<ttFont>
    <TTGlyph name="A" xMin="24" yMin="0" xMax="532" yMax="692">
      <contour>
        <pt x="24" y="0" on="1"/>
        <pt x="369" y="692" on="1"/>
        <pt x="518" y="692" on="1"/>
        <pt x="532" y="0" on="1"/>
        <pt x="456" y="0" on="1"/>
        <pt x="450" y="177" on="1"/>
        <pt x="191" y="177" on="1"/>
        <pt x="102" y="0" on="1"/>
      </contour>
      <contour>
        <pt x="414" y="624" on="1"/>
        <pt x="223" y="244" on="1"/>
        <pt x="451" y="244" on="1"/>
        <pt x="444" y="624" on="1"/>
      </contour>
    </TTGlyph>
    <TTGlyph name="AE" xMin="25" yMin="0" xMax="900" yMax="696">
      <contour>
        <pt x="348" y="0" on="1"/>
        <pt x="389" y="177" on="1"/>
        <pt x="188" y="177" on="1"/>
        <pt x="98" y="0" on="1"/>
        <pt x="25" y="0" on="1"/>
        <pt x="370" y="696" on="1"/>
        <pt x="900" y="696" on="1"/>
        <pt x="885" y="624" on="1"/>
        <pt x="568" y="626" on="1"/>
        <pt x="511" y="386" on="1"/>
        <pt x="771" y="386" on="1"/>
        <pt x="756" y="317" on="1"/>
        <pt x="495" y="317" on="1"/>
        <pt x="437" y="72" on="1"/>
        <pt x="752" y="72" on="1"/>
        <pt x="737" y="0" on="1"/>
      </contour>
      <contour>
        <pt x="408" y="624" on="1"/>
        <pt x="221" y="247" on="1"/>
        <pt x="406" y="247" on="1"/>
        <pt x="496" y="624" on="1"/>
      </contour>
    </TTGlyph>
    <TTGlyph name="AEacute" xMin="25" yMin="0" xMax="900" yMax="936">
      <contour>
        <pt x="348" y="0" on="1"/>
        <pt x="389" y="177" on="1"/>
        <pt x="188" y="177" on="1"/>
        <pt x="98" y="0" on="1"/>
        <pt x="25" y="0" on="1"/>
        <pt x="370" y="696" on="1"/>
        <pt x="900" y="696" on="1"/>
        <pt x="885" y="624" on="1"/>
        <pt x="568" y="626" on="1"/>
        <pt x="511" y="386" on="1"/>
        <pt x="771" y="386" on="1"/>
        <pt x="756" y="317" on="1"/>
        <pt x="495" y="317" on="1"/>
        <pt x="437" y="72" on="1"/>
        <pt x="752" y="72" on="1"/>
        <pt x="737" y="0" on="1"/>
      </contour>
      <contour>
        <pt x="408" y="624" on="1"/>
        <pt x="221" y="247" on="1"/>
        <pt x="406" y="247" on="1"/>
        <pt x="496" y="624" on="1"/>
      </contour>
      <contour>
        <pt x="547" y="785" on="1"/>
        <pt x="538" y="842" on="1"/>
        <pt x="766" y="936" on="1"/>
        <pt x="775" y="871" on="1"/>
      </contour>
    </TTGlyph>
    <TTGlyph name="Aacute" xMin="24" yMin="0" xMax="616" yMax="936">
      <contour>
        <pt x="388" y="785" on="1"/>
        <pt x="379" y="842" on="1"/>
        <pt x="607" y="936" on="1"/>
        <pt x="616" y="871" on="1"/>
      </contour>
      <contour>
        <pt x="24" y="0" on="1"/>
        <pt x="369" y="692" on="1"/>
        <pt x="518" y="692" on="1"/>
        <pt x="532" y="0" on="1"/>
        <pt x="456" y="0" on="1"/>
        <pt x="450" y="177" on="1"/>
        <pt x="191" y="177" on="1"/>
        <pt x="102" y="0" on="1"/>
      </contour>
      <contour>
        <pt x="414" y="624" on="1"/>
        <pt x="223" y="244" on="1"/>
        <pt x="451" y="244" on="1"/>
        <pt x="444" y="624" on="1"/>
      </contour>
    </TTGlyph>
    <TTGlyph name="Abreve" xMin="24" yMin="0" xMax="629" yMax="922">
      <contour>
        <pt x="459" y="795" on="1"/>
        <pt x="344" y="795" on="0"/>
        <pt x="344" y="892" on="1"/>
        <pt x="344" y="906" on="0"/>
        <pt x="347" y="922" on="1"/>
        <pt x="413" y="922" on="1"/>
        <pt x="411" y="912" on="0"/>
        <pt x="411" y="881" on="0"/>
        <pt x="438" y="855" on="0"/>
        <pt x="503" y="855" on="0"/>
        <pt x="554" y="892" on="0"/>
        <pt x="563" y="922" on="1"/>
        <pt x="629" y="922" on="1"/>
        <pt x="592" y="795" on="0"/>
      </contour>
      <contour>
        <pt x="24" y="0" on="1"/>
        <pt x="369" y="692" on="1"/>
        <pt x="518" y="692" on="1"/>
        <pt x="532" y="0" on="1"/>
        <pt x="456" y="0" on="1"/>
        <pt x="450" y="177" on="1"/>
        <pt x="191" y="177" on="1"/>
        <pt x="102" y="0" on="1"/>
      </contour>
      <contour>
        <pt x="414" y="624" on="1"/>
        <pt x="223" y="244" on="1"/>
        <pt x="451" y="244" on="1"/>
        <pt x="444" y="624" on="1"/>
      </contour>
    </TTGlyph>
    <TTGlyph name="Acircumflex" xMin="24" yMin="0" xMax="604" yMax="931">
      <contour>
        <pt x="303" y="793" on="1"/>
        <pt x="467" y="931" on="1"/>
        <pt x="508" y="931" on="1"/>
        <pt x="604" y="793" on="1"/>
        <pt x="535" y="793" on="1"/>
        <pt x="481" y="874" on="1"/>
        <pt x="385" y="793" on="1"/>
      </contour>
      <contour>
        <pt x="24" y="0" on="1"/>
        <pt x="369" y="692" on="1"/>
        <pt x="518" y="692" on="1"/>
        <pt x="532" y="0" on="1"/>
        <pt x="456" y="0" on="1"/>
        <pt x="450" y="177" on="1"/>
        <pt x="191" y="177" on="1"/>
        <pt x="102" y="0" on="1"/>
      </contour>
      <contour>
        <pt x="414" y="624" on="1"/>
        <pt x="223" y="244" on="1"/>
        <pt x="451" y="244" on="1"/>
        <pt x="444" y="624" on="1"/>
      </contour>
    </TTGlyph>
    <TTGlyph name="Adieresis" xMin="24" yMin="0" xMax="612" yMax="907">
      <contour>
        <pt x="341" y="814" on="1"/>
        <pt x="362" y="907" on="1"/>
        <pt x="424" y="907" on="1"/>
        <pt x="401" y="814" on="1"/>
      </contour>
      <contour>
        <pt x="528" y="814" on="1"/>
        <pt x="550" y="907" on="1"/>
        <pt x="612" y="907" on="1"/>
        <pt x="589" y="814" on="1"/>
      </contour>
      <contour>
        <pt x="24" y="0" on="1"/>
        <pt x="369" y="692" on="1"/>
        <pt x="518" y="692" on="1"/>
        <pt x="532" y="0" on="1"/>
        <pt x="456" y="0" on="1"/>
        <pt x="450" y="177" on="1"/>
        <pt x="191" y="177" on="1"/>
        <pt x="102" y="0" on="1"/>
      </contour>
      <contour>
        <pt x="414" y="624" on="1"/>
        <pt x="223" y="244" on="1"/>
        <pt x="451" y="244" on="1"/>
        <pt x="444" y="624" on="1"/>
      </contour>
    </TTGlyph>
    <TTGlyph name="Agrave" xMin="24" yMin="0" xMax="548" yMax="930">
      <contour>
        <pt x="363" y="930" on="1"/>
        <pt x="548" y="836" on="1"/>
        <pt x="514" y="780" on="1"/>
        <pt x="326" y="866" on="1"/>
      </contour>
      <contour>
        <pt x="24" y="0" on="1"/>
        <pt x="369" y="692" on="1"/>
        <pt x="518" y="692" on="1"/>
        <pt x="532" y="0" on="1"/>
        <pt x="456" y="0" on="1"/>
        <pt x="450" y="177" on="1"/>
        <pt x="191" y="177" on="1"/>
        <pt x="102" y="0" on="1"/>
      </contour>
      <contour>
        <pt x="414" y="624" on="1"/>
        <pt x="223" y="244" on="1"/>
        <pt x="451" y="244" on="1"/>
        <pt x="444" y="624" on="1"/>
      </contour>
    </TTGlyph>
    <TTGlyph name="Amacron" xMin="24" yMin="0" xMax="622" yMax="889">
      <contour>
        <pt x="315" y="829" on="1"/>
        <pt x="328" y="889" on="1"/>
        <pt x="622" y="889" on="1"/>
        <pt x="608" y="829" on="1"/>
      </contour>
      <contour>
        <pt x="24" y="0" on="1"/>
        <pt x="369" y="692" on="1"/>
        <pt x="518" y="692" on="1"/>
        <pt x="532" y="0" on="1"/>
        <pt x="456" y="0" on="1"/>
        <pt x="450" y="177" on="1"/>
        <pt x="191" y="177" on="1"/>
        <pt x="102" y="0" on="1"/>
      </contour>
      <contour>
        <pt x="414" y="624" on="1"/>
        <pt x="223" y="244" on="1"/>
        <pt x="451" y="244" on="1"/>
        <pt x="444" y="624" on="1"/>
      </contour>
    </TTGlyph>
    <TTGlyph name="Aogonek" xMin="24" yMin="-204" xMax="532" yMax="692">
      <contour>
        <pt x="532" y="0" on="1"/>
        <pt x="527" y="0" on="1"/>
        <pt x="497" y="-25" on="0"/>
        <pt x="440" y="-94" on="0"/>
        <pt x="440" y="-117" on="1"/>
        <pt x="440" y="-137" on="0"/>
        <pt x="464" y="-137" on="1"/>
        <pt x="512" y="-132" on="1"/>
        <pt x="505" y="-195" on="1"/>
        <pt x="460" y="-204" on="0"/>
        <pt x="428" y="-204" on="1"/>
        <pt x="358" y="-204" on="0"/>
        <pt x="358" y="-141" on="1"/>
        <pt x="358" y="-108" on="0"/>
        <pt x="419" y="-29" on="0"/>
        <pt x="456" y="1" on="1"/>
        <pt x="450" y="177" on="1"/>
        <pt x="191" y="177" on="1"/>
        <pt x="102" y="0" on="1"/>
        <pt x="24" y="0" on="1"/>
        <pt x="369" y="692" on="1"/>
        <pt x="518" y="692" on="1"/>
        <pt x="532" y="4" on="1"/>
      </contour>
      <contour>
        <pt x="414" y="624" on="1"/>
        <pt x="223" y="244" on="1"/>
        <pt x="451" y="244" on="1"/>
        <pt x="444" y="624" on="1"/>
      </contour>
    </TTGlyph>
    <TTGlyph name="Aring" xMin="24" yMin="0" xMax="564" yMax="840">
      <contour>
        <pt x="358" y="669" on="1"/>
        <pt x="346" y="685" on="0"/>
        <pt x="346" y="723" on="0"/>
        <pt x="350" y="740" on="1"/>
        <pt x="363" y="790" on="0"/>
        <pt x="431" y="840" on="0"/>
        <pt x="526" y="840" on="0"/>
        <pt x="548" y="815" on="1"/>
        <pt x="563" y="799" on="0"/>
        <pt x="563" y="757" on="0"/>
        <pt x="559" y="740" on="1"/>
        <pt x="546" y="694" on="0"/>
        <pt x="518" y="670" on="1"/>
        <pt x="532" y="0" on="1"/>
        <pt x="456" y="0" on="1"/>
        <pt x="450" y="177" on="1"/>
        <pt x="191" y="177" on="1"/>
        <pt x="102" y="0" on="1"/>
        <pt x="24" y="0" on="1"/>
      </contour>
      <contour>
        <pt x="414" y="624" on="1"/>
        <pt x="223" y="244" on="1"/>
        <pt x="451" y="244" on="1"/>
        <pt x="444" y="624" on="1"/>
      </contour>
      <contour>
        <pt x="400" y="740" on="1"/>
        <pt x="398" y="733" on="0"/>
        <pt x="398" y="715" on="0"/>
        <pt x="414" y="693" on="0"/>
        <pt x="437" y="692" on="1"/>
        <pt x="447" y="692" on="1"/>
        <pt x="497" y="694" on="0"/>
        <pt x="508" y="740" on="1"/>
        <pt x="509" y="747" on="0"/>
        <pt x="509" y="767" on="0"/>
        <pt x="489" y="788" on="0"/>
        <pt x="466" y="788" on="1"/>
        <pt x="412" y="788" on="0"/>
      </contour>
    </TTGlyph>
    <TTGlyph name="Aringacute" xMin="24" yMin="0" xMax="615" yMax="1028">
      <contour>
        <pt x="358" y="669" on="1"/>
        <pt x="346" y="685" on="0"/>
        <pt x="346" y="723" on="0"/>
        <pt x="350" y="740" on="1"/>
        <pt x="363" y="790" on="0"/>
        <pt x="431" y="840" on="0"/>
        <pt x="526" y="840" on="0"/>
        <pt x="548" y="815" on="1"/>
        <pt x="563" y="799" on="0"/>
        <pt x="563" y="757" on="0"/>
        <pt x="559" y="740" on="1"/>
        <pt x="546" y="694" on="0"/>
        <pt x="518" y="670" on="1"/>
        <pt x="532" y="0" on="1"/>
        <pt x="456" y="0" on="1"/>
        <pt x="450" y="177" on="1"/>
        <pt x="191" y="177" on="1"/>
        <pt x="102" y="0" on="1"/>
        <pt x="24" y="0" on="1"/>
      </contour>
      <contour>
        <pt x="414" y="624" on="1"/>
        <pt x="223" y="244" on="1"/>
        <pt x="451" y="244" on="1"/>
        <pt x="444" y="624" on="1"/>
      </contour>
      <contour>
        <pt x="387" y="876" on="1"/>
        <pt x="380" y="934" on="1"/>
        <pt x="608" y="1028" on="1"/>
        <pt x="615" y="962" on="1"/>
      </contour>
      <contour>
        <pt x="400" y="740" on="1"/>
        <pt x="398" y="733" on="0"/>
        <pt x="398" y="715" on="0"/>
        <pt x="417" y="692" on="0"/>
        <pt x="442" y="692" on="1"/>
        <pt x="447" y="692" on="1"/>
        <pt x="497" y="694" on="0"/>
        <pt x="508" y="740" on="1"/>
        <pt x="509" y="747" on="0"/>
        <pt x="509" y="767" on="0"/>
        <pt x="489" y="788" on="0"/>
        <pt x="466" y="788" on="1"/>
        <pt x="412" y="788" on="0"/>
      </contour>
    </TTGlyph>
    <TTGlyph name="Atilde" xMin="24" yMin="0" xMax="630" yMax="925">
      <contour>
        <pt x="530" y="804" on="1"/>
        <pt x="507" y="804" on="0"/>
        <pt x="404" y="860" on="0"/>
        <pt x="392" y="860" on="1"/>
        <pt x="369" y="860" on="0"/>
        <pt x="319" y="824" on="1"/>
        <pt x="302" y="811" on="1"/>
        <pt x="300" y="865" on="1"/>
        <pt x="367" y="925" on="0"/>
        <pt x="405" y="925" on="1"/>
        <pt x="432" y="925" on="0"/>
        <pt x="533" y="870" on="0"/>
        <pt x="544" y="870" on="1"/>
        <pt x="563" y="870" on="0"/>
        <pt x="611" y="904" on="1"/>
        <pt x="627" y="916" on="1"/>
        <pt x="630" y="863" on="1"/>
        <pt x="567" y="804" on="0"/>
      </contour>
      <contour>
        <pt x="24" y="0" on="1"/>
        <pt x="369" y="692" on="1"/>
        <pt x="518" y="692" on="1"/>
        <pt x="532" y="0" on="1"/>
        <pt x="456" y="0" on="1"/>
        <pt x="450" y="177" on="1"/>
        <pt x="191" y="177" on="1"/>
        <pt x="102" y="0" on="1"/>
      </contour>
      <contour>
        <pt x="414" y="624" on="1"/>
        <pt x="223" y="244" on="1"/>
        <pt x="451" y="244" on="1"/>
        <pt x="444" y="624" on="1"/>
      </contour>
    </TTGlyph>
    <TTGlyph name="B" xMin="78" yMin="0" xMax="626" yMax="692">
      <contour>
        <pt x="460" y="692" on="1"/>
        <pt x="543" y="692" on="0"/>
        <pt x="626" y="628" on="0"/>
        <pt x="626" y="483" on="0"/>
        <pt x="555" y="383" on="0"/>
        <pt x="497" y="358" on="1"/>
        <pt x="581" y="325" on="0"/>
        <pt x="581" y="239" on="1"/>
        <pt x="581" y="130" on="0"/>
        <pt x="443" y="0" on="0"/>
        <pt x="316" y="0" on="1"/>
        <pt x="78" y="0" on="1"/>
        <pt x="237" y="692" on="1"/>
      </contour>
      <contour>
        <pt x="386" y="320" on="1"/>
        <pt x="228" y="320" on="1"/>
        <pt x="170" y="67" on="1"/>
        <pt x="332" y="67" on="1"/>
        <pt x="411" y="67" on="0"/>
        <pt x="501" y="159" on="0"/>
        <pt x="501" y="237" on="1"/>
        <pt x="501" y="320" on="0"/>
      </contour>
      <contour>
        <pt x="447" y="625" on="1"/>
        <pt x="298" y="625" on="1"/>
        <pt x="243" y="386" on="1"/>
        <pt x="397" y="386" on="1"/>
        <pt x="464" y="386" on="0"/>
        <pt x="548" y="477" on="0"/>
        <pt x="548" y="545" on="1"/>
        <pt x="548" y="589" on="0"/>
        <pt x="501" y="625" on="0"/>
      </contour>
    </TTGlyph>
    <TTGlyph name="C" xMin="112" yMin="-10" xMax="627" yMax="702">
      <contour>
        <pt x="305" y="-10" on="1"/>
        <pt x="112" y="-10" on="0"/>
        <pt x="112" y="188" on="1"/>
        <pt x="112" y="366" on="0"/>
        <pt x="194" y="524" on="1"/>
        <pt x="234" y="602" on="0"/>
        <pt x="373" y="702" on="0"/>
        <pt x="461" y="702" on="1"/>
        <pt x="527" y="702" on="0"/>
        <pt x="603" y="684" on="1"/>
        <pt x="627" y="679" on="1"/>
        <pt x="610" y="619" on="1"/>
        <pt x="533" y="634" on="0"/>
        <pt x="395" y="634" on="0"/>
        <pt x="291" y="551" on="0"/>
        <pt x="259" y="486" on="1"/>
        <pt x="192" y="348" on="0"/>
        <pt x="192" y="192" on="1"/>
        <pt x="192" y="124" on="0"/>
        <pt x="251" y="58" on="0"/>
        <pt x="315" y="58" on="1"/>
        <pt x="391" y="58" on="0"/>
        <pt x="455" y="70" on="1"/>
        <pt x="478" y="75" on="1"/>
        <pt x="473" y="12" on="1"/>
        <pt x="384" y="-10" on="0"/>
      </contour>
    </TTGlyph>
    <TTGlyph name="Cacute" xMin="112" yMin="-10" xMax="639" yMax="936">
      <contour>
        <pt x="305" y="-10" on="1"/>
        <pt x="112" y="-10" on="0"/>
        <pt x="112" y="188" on="1"/>
        <pt x="112" y="366" on="0"/>
        <pt x="194" y="524" on="1"/>
        <pt x="234" y="602" on="0"/>
        <pt x="373" y="702" on="0"/>
        <pt x="461" y="702" on="1"/>
        <pt x="527" y="702" on="0"/>
        <pt x="603" y="684" on="1"/>
        <pt x="627" y="679" on="1"/>
        <pt x="610" y="619" on="1"/>
        <pt x="533" y="634" on="0"/>
        <pt x="395" y="634" on="0"/>
        <pt x="291" y="551" on="0"/>
        <pt x="259" y="486" on="1"/>
        <pt x="192" y="348" on="0"/>
        <pt x="192" y="192" on="1"/>
        <pt x="192" y="124" on="0"/>
        <pt x="251" y="58" on="0"/>
        <pt x="315" y="58" on="1"/>
        <pt x="391" y="58" on="0"/>
        <pt x="455" y="70" on="1"/>
        <pt x="478" y="75" on="1"/>
        <pt x="473" y="12" on="1"/>
        <pt x="384" y="-10" on="0"/>
      </contour>
      <contour>
        <pt x="411" y="785" on="1"/>
        <pt x="402" y="842" on="1"/>
        <pt x="630" y="936" on="1"/>
        <pt x="639" y="871" on="1"/>
      </contour>
    </TTGlyph>
    <TTGlyph name="Ccaron" xMin="112" yMin="-10" xMax="666" yMax="929">
      <contour>
        <pt x="305" y="-10" on="1"/>
        <pt x="112" y="-10" on="0"/>
        <pt x="112" y="188" on="1"/>
        <pt x="112" y="366" on="0"/>
        <pt x="194" y="524" on="1"/>
        <pt x="234" y="602" on="0"/>
        <pt x="373" y="702" on="0"/>
        <pt x="461" y="702" on="1"/>
        <pt x="527" y="702" on="0"/>
        <pt x="603" y="684" on="1"/>
        <pt x="627" y="679" on="1"/>
        <pt x="610" y="619" on="1"/>
        <pt x="533" y="634" on="0"/>
        <pt x="395" y="634" on="0"/>
        <pt x="291" y="551" on="0"/>
        <pt x="259" y="486" on="1"/>
        <pt x="192" y="348" on="0"/>
        <pt x="192" y="192" on="1"/>
        <pt x="192" y="124" on="0"/>
        <pt x="251" y="58" on="0"/>
        <pt x="315" y="58" on="1"/>
        <pt x="391" y="58" on="0"/>
        <pt x="455" y="70" on="1"/>
        <pt x="478" y="75" on="1"/>
        <pt x="473" y="12" on="1"/>
        <pt x="384" y="-10" on="0"/>
      </contour>
      <contour>
        <pt x="666" y="929" on="1"/>
        <pt x="509" y="792" on="1"/>
        <pt x="462" y="792" on="1"/>
        <pt x="364" y="929" on="1"/>
        <pt x="438" y="929" on="1"/>
        <pt x="496" y="847" on="1"/>
        <pt x="589" y="929" on="1"/>
      </contour>
    </TTGlyph>
    <TTGlyph name="Ccedilla" xMin="112" yMin="-211" xMax="627" yMax="702">
      <contour>
        <pt x="296" y="-45" on="1"/>
        <pt x="381" y="-45" on="0"/>
        <pt x="381" y="-100" on="1"/>
        <pt x="381" y="-111" on="0"/>
        <pt x="378" y="-124" on="1"/>
        <pt x="359" y="-211" on="0"/>
        <pt x="270" y="-211" on="1"/>
        <pt x="227" y="-211" on="0"/>
        <pt x="200" y="-206" on="1"/>
        <pt x="190" y="-204" on="1"/>
        <pt x="203" y="-153" on="1"/>
        <pt x="240" y="-156" on="0"/>
        <pt x="265" y="-156" on="1"/>
        <pt x="306" y="-156" on="0"/>
        <pt x="316" y="-120" on="1"/>
        <pt x="321" y="-101" on="0"/>
        <pt x="302" y="-87" on="0"/>
        <pt x="282" y="-87" on="1"/>
        <pt x="243" y="-87" on="1"/>
        <pt x="261" y="-7" on="1"/>
        <pt x="112" y="14" on="0"/>
        <pt x="112" y="188" on="1"/>
        <pt x="112" y="366" on="0"/>
        <pt x="194" y="524" on="1"/>
        <pt x="234" y="602" on="0"/>
        <pt x="373" y="702" on="0"/>
        <pt x="461" y="702" on="1"/>
        <pt x="527" y="702" on="0"/>
        <pt x="603" y="684" on="1"/>
        <pt x="627" y="679" on="1"/>
        <pt x="610" y="619" on="1"/>
        <pt x="533" y="634" on="0"/>
        <pt x="395" y="634" on="0"/>
        <pt x="291" y="551" on="0"/>
        <pt x="259" y="486" on="1"/>
        <pt x="192" y="348" on="0"/>
        <pt x="192" y="192" on="1"/>
        <pt x="192" y="124" on="0"/>
        <pt x="251" y="58" on="0"/>
        <pt x="315" y="58" on="1"/>
        <pt x="391" y="58" on="0"/>
        <pt x="455" y="70" on="1"/>
        <pt x="478" y="75" on="1"/>
        <pt x="473" y="12" on="1"/>
        <pt x="384" y="-10" on="0"/>
        <pt x="305" y="-10" on="1"/>
        <pt x="300" y="-10" on="1"/>
        <pt x="291" y="-45" on="1"/>
      </contour>
    </TTGlyph>
    <TTGlyph name="Ccircumflex" xMin="112" yMin="-10" xMax="636" yMax="931">
      <contour>
        <pt x="305" y="-10" on="1"/>
        <pt x="112" y="-10" on="0"/>
        <pt x="112" y="188" on="1"/>
        <pt x="112" y="366" on="0"/>
        <pt x="194" y="524" on="1"/>
        <pt x="234" y="602" on="0"/>
        <pt x="373" y="702" on="0"/>
        <pt x="461" y="702" on="1"/>
        <pt x="527" y="702" on="0"/>
        <pt x="603" y="684" on="1"/>
        <pt x="627" y="679" on="1"/>
        <pt x="610" y="619" on="1"/>
        <pt x="533" y="634" on="0"/>
        <pt x="395" y="634" on="0"/>
        <pt x="291" y="551" on="0"/>
        <pt x="259" y="486" on="1"/>
        <pt x="192" y="348" on="0"/>
        <pt x="192" y="192" on="1"/>
        <pt x="192" y="124" on="0"/>
        <pt x="251" y="58" on="0"/>
        <pt x="315" y="58" on="1"/>
        <pt x="391" y="58" on="0"/>
        <pt x="455" y="70" on="1"/>
        <pt x="478" y="75" on="1"/>
        <pt x="473" y="12" on="1"/>
        <pt x="384" y="-10" on="0"/>
      </contour>
      <contour>
        <pt x="335" y="793" on="1"/>
        <pt x="499" y="931" on="1"/>
        <pt x="540" y="931" on="1"/>
        <pt x="636" y="793" on="1"/>
        <pt x="567" y="793" on="1"/>
        <pt x="513" y="874" on="1"/>
        <pt x="417" y="793" on="1"/>
      </contour>
    </TTGlyph>
    <TTGlyph name="Cdotaccent" xMin="112" yMin="-10" xMax="627" yMax="883">
      <contour>
        <pt x="305" y="-10" on="1"/>
        <pt x="112" y="-10" on="0"/>
        <pt x="112" y="188" on="1"/>
        <pt x="112" y="366" on="0"/>
        <pt x="194" y="524" on="1"/>
        <pt x="234" y="602" on="0"/>
        <pt x="373" y="702" on="0"/>
        <pt x="461" y="702" on="1"/>
        <pt x="527" y="702" on="0"/>
        <pt x="603" y="684" on="1"/>
        <pt x="627" y="679" on="1"/>
        <pt x="610" y="619" on="1"/>
        <pt x="533" y="634" on="0"/>
        <pt x="395" y="634" on="0"/>
        <pt x="291" y="551" on="0"/>
        <pt x="259" y="486" on="1"/>
        <pt x="192" y="348" on="0"/>
        <pt x="192" y="192" on="1"/>
        <pt x="192" y="124" on="0"/>
        <pt x="251" y="58" on="0"/>
        <pt x="315" y="58" on="1"/>
        <pt x="391" y="58" on="0"/>
        <pt x="455" y="70" on="1"/>
        <pt x="478" y="75" on="1"/>
        <pt x="473" y="12" on="1"/>
        <pt x="384" y="-10" on="0"/>
      </contour>
      <contour>
        <pt x="450" y="793" on="1"/>
        <pt x="470" y="883" on="1"/>
        <pt x="534" y="883" on="1"/>
        <pt x="513" y="793" on="1"/>
      </contour>
    </TTGlyph>
    <TTGlyph name="D" xMin="78" yMin="0" xMax="652" yMax="692">
      <contour>
        <pt x="317" y="0" on="1"/>
        <pt x="78" y="0" on="1"/>
        <pt x="238" y="692" on="1"/>
        <pt x="460" y="692" on="1"/>
        <pt x="555" y="692" on="0"/>
        <pt x="652" y="594" on="0"/>
        <pt x="652" y="486" on="1"/>
        <pt x="652" y="347" on="0"/>
        <pt x="600" y="224" on="1"/>
        <pt x="573" y="160" on="0"/>
        <pt x="497" y="61" on="0"/>
        <pt x="384" y="0" on="0"/>
      </contour>
      <contour>
        <pt x="541" y="281" on="0"/>
        <pt x="572" y="422" on="0"/>
        <pt x="572" y="559" on="0"/>
        <pt x="512" y="624" on="0"/>
        <pt x="445" y="624" on="1"/>
        <pt x="298" y="624" on="1"/>
        <pt x="171" y="68" on="1"/>
        <pt x="328" y="68" on="1"/>
        <pt x="387" y="68" on="0"/>
        <pt x="484" y="152" on="0"/>
      </contour>
    </TTGlyph>
    <TTGlyph name="Dcaron" xMin="78" yMin="0" xMax="652" yMax="929">
      <contour>
        <pt x="317" y="0" on="1"/>
        <pt x="78" y="0" on="1"/>
        <pt x="238" y="692" on="1"/>
        <pt x="460" y="692" on="1"/>
        <pt x="555" y="692" on="0"/>
        <pt x="652" y="594" on="0"/>
        <pt x="652" y="486" on="1"/>
        <pt x="652" y="347" on="0"/>
        <pt x="600" y="224" on="1"/>
        <pt x="573" y="160" on="0"/>
        <pt x="497" y="61" on="0"/>
        <pt x="384" y="0" on="0"/>
      </contour>
      <contour>
        <pt x="572" y="559" on="0"/>
        <pt x="512" y="624" on="0"/>
        <pt x="445" y="624" on="1"/>
        <pt x="298" y="624" on="1"/>
        <pt x="171" y="68" on="1"/>
        <pt x="328" y="68" on="1"/>
        <pt x="387" y="68" on="0"/>
        <pt x="484" y="152" on="0"/>
        <pt x="541" y="281" on="0"/>
        <pt x="572" y="422" on="0"/>
      </contour>
      <contour>
        <pt x="627" y="929" on="1"/>
        <pt x="470" y="792" on="1"/>
        <pt x="423" y="792" on="1"/>
        <pt x="325" y="929" on="1"/>
        <pt x="399" y="929" on="1"/>
        <pt x="457" y="847" on="1"/>
        <pt x="550" y="929" on="1"/>
      </contour>
    </TTGlyph>
    <TTGlyph name="Dcroat" xMin="82" yMin="0" xMax="656" yMax="692">
      <contour>
        <pt x="321" y="0" on="1"/>
        <pt x="82" y="0" on="1"/>
        <pt x="153" y="309" on="1"/>
        <pt x="86" y="309" on="1"/>
        <pt x="102" y="386" on="1"/>
        <pt x="171" y="386" on="1"/>
        <pt x="242" y="692" on="1"/>
        <pt x="464" y="692" on="1"/>
        <pt x="559" y="692" on="0"/>
        <pt x="656" y="594" on="0"/>
        <pt x="656" y="486" on="1"/>
        <pt x="656" y="347" on="0"/>
        <pt x="604" y="224" on="1"/>
        <pt x="577" y="160" on="0"/>
        <pt x="501" y="61" on="0"/>
        <pt x="388" y="0" on="0"/>
      </contour>
      <contour>
        <pt x="545" y="281" on="0"/>
        <pt x="576" y="422" on="0"/>
        <pt x="576" y="559" on="0"/>
        <pt x="516" y="624" on="0"/>
        <pt x="449" y="624" on="1"/>
        <pt x="302" y="624" on="1"/>
        <pt x="247" y="386" on="1"/>
        <pt x="389" y="386" on="1"/>
        <pt x="371" y="309" on="1"/>
        <pt x="230" y="309" on="1"/>
        <pt x="175" y="68" on="1"/>
        <pt x="332" y="68" on="1"/>
        <pt x="391" y="68" on="0"/>
        <pt x="488" y="152" on="0"/>
      </contour>
    </TTGlyph>
    <TTGlyph name="Delta" xMin="85" yMin="0" xMax="538" yMax="660">
      <contour>
        <pt x="538" y="0" on="1"/>
        <pt x="85" y="0" on="1"/>
        <pt x="85" y="57" on="1"/>
        <pt x="244" y="660" on="1"/>
        <pt x="379" y="660" on="1"/>
        <pt x="538" y="56" on="1"/>
      </contour>
      <contour>
        <pt x="324" y="595" on="1"/>
        <pt x="298" y="595" on="1"/>
        <pt x="162" y="66" on="1"/>
        <pt x="460" y="66" on="1"/>
      </contour>
    </TTGlyph>
    <TTGlyph name="E" xMin="78" yMin="0" xMax="623" yMax="692">
      <contour>
        <pt x="78" y="0" on="1"/>
        <pt x="237" y="692" on="1"/>
        <pt x="623" y="692" on="1"/>
        <pt x="607" y="624" on="1"/>
        <pt x="298" y="624" on="1"/>
        <pt x="243" y="386" on="1"/>
        <pt x="497" y="386" on="1"/>
        <pt x="481" y="318" on="1"/>
        <pt x="228" y="318" on="1"/>
        <pt x="170" y="68" on="1"/>
        <pt x="479" y="68" on="1"/>
        <pt x="464" y="0" on="1"/>
      </contour>
    </TTGlyph>
    <TTGlyph name="Eacute" xMin="78" yMin="0" xMax="623" yMax="936">
      <contour>
        <pt x="377" y="785" on="1"/>
        <pt x="368" y="842" on="1"/>
        <pt x="596" y="936" on="1"/>
        <pt x="605" y="871" on="1"/>
      </contour>
      <contour>
        <pt x="78" y="0" on="1"/>
        <pt x="237" y="692" on="1"/>
        <pt x="623" y="692" on="1"/>
        <pt x="607" y="624" on="1"/>
        <pt x="298" y="624" on="1"/>
        <pt x="243" y="386" on="1"/>
        <pt x="497" y="386" on="1"/>
        <pt x="481" y="318" on="1"/>
        <pt x="228" y="318" on="1"/>
        <pt x="170" y="68" on="1"/>
        <pt x="479" y="68" on="1"/>
        <pt x="464" y="0" on="1"/>
      </contour>
    </TTGlyph>
    <TTGlyph name="Ebreve" xMin="78" yMin="0" xMax="623" yMax="923">
      <contour>
        <pt x="444" y="796" on="1"/>
        <pt x="329" y="796" on="0"/>
        <pt x="329" y="893" on="1"/>
        <pt x="329" y="907" on="0"/>
        <pt x="332" y="923" on="1"/>
        <pt x="398" y="923" on="1"/>
        <pt x="396" y="913" on="0"/>
        <pt x="396" y="882" on="0"/>
        <pt x="423" y="856" on="0"/>
        <pt x="488" y="856" on="0"/>
        <pt x="539" y="893" on="0"/>
        <pt x="548" y="923" on="1"/>
        <pt x="614" y="923" on="1"/>
        <pt x="577" y="796" on="0"/>
      </contour>
      <contour>
        <pt x="78" y="0" on="1"/>
        <pt x="237" y="692" on="1"/>
        <pt x="623" y="692" on="1"/>
        <pt x="607" y="624" on="1"/>
        <pt x="298" y="624" on="1"/>
        <pt x="243" y="386" on="1"/>
        <pt x="497" y="386" on="1"/>
        <pt x="481" y="318" on="1"/>
        <pt x="228" y="318" on="1"/>
        <pt x="170" y="68" on="1"/>
        <pt x="479" y="68" on="1"/>
        <pt x="464" y="0" on="1"/>
      </contour>
    </TTGlyph>
    <TTGlyph name="Ecaron" xMin="78" yMin="0" xMax="623" yMax="936">
      <contour>
        <pt x="622" y="936" on="1"/>
        <pt x="465" y="799" on="1"/>
        <pt x="418" y="799" on="1"/>
        <pt x="320" y="936" on="1"/>
        <pt x="394" y="936" on="1"/>
        <pt x="452" y="854" on="1"/>
        <pt x="545" y="936" on="1"/>
      </contour>
      <contour>
        <pt x="78" y="0" on="1"/>
        <pt x="237" y="692" on="1"/>
        <pt x="623" y="692" on="1"/>
        <pt x="607" y="624" on="1"/>
        <pt x="298" y="624" on="1"/>
        <pt x="243" y="386" on="1"/>
        <pt x="497" y="386" on="1"/>
        <pt x="481" y="318" on="1"/>
        <pt x="228" y="318" on="1"/>
        <pt x="170" y="68" on="1"/>
        <pt x="479" y="68" on="1"/>
        <pt x="464" y="0" on="1"/>
      </contour>
    </TTGlyph>
    <TTGlyph name="Ecircumflex" xMin="78" yMin="0" xMax="643" yMax="929">
      <contour>
        <pt x="342" y="791" on="1"/>
        <pt x="506" y="929" on="1"/>
        <pt x="547" y="929" on="1"/>
        <pt x="643" y="791" on="1"/>
        <pt x="574" y="791" on="1"/>
        <pt x="520" y="872" on="1"/>
        <pt x="424" y="791" on="1"/>
      </contour>
      <contour>
        <pt x="78" y="0" on="1"/>
        <pt x="237" y="692" on="1"/>
        <pt x="623" y="692" on="1"/>
        <pt x="607" y="624" on="1"/>
        <pt x="298" y="624" on="1"/>
        <pt x="243" y="386" on="1"/>
        <pt x="497" y="386" on="1"/>
        <pt x="481" y="318" on="1"/>
        <pt x="228" y="318" on="1"/>
        <pt x="170" y="68" on="1"/>
        <pt x="479" y="68" on="1"/>
        <pt x="464" y="0" on="1"/>
      </contour>
    </TTGlyph>
    <TTGlyph name="Edieresis" xMin="78" yMin="0" xMax="623" yMax="907">
      <contour>
        <pt x="332" y="814" on="1"/>
        <pt x="353" y="907" on="1"/>
        <pt x="415" y="907" on="1"/>
        <pt x="392" y="814" on="1"/>
      </contour>
      <contour>
        <pt x="519" y="814" on="1"/>
        <pt x="541" y="907" on="1"/>
        <pt x="603" y="907" on="1"/>
        <pt x="580" y="814" on="1"/>
      </contour>
      <contour>
        <pt x="78" y="0" on="1"/>
        <pt x="237" y="692" on="1"/>
        <pt x="623" y="692" on="1"/>
        <pt x="607" y="624" on="1"/>
        <pt x="298" y="624" on="1"/>
        <pt x="243" y="386" on="1"/>
        <pt x="497" y="386" on="1"/>
        <pt x="481" y="318" on="1"/>
        <pt x="228" y="318" on="1"/>
        <pt x="170" y="68" on="1"/>
        <pt x="479" y="68" on="1"/>
        <pt x="464" y="0" on="1"/>
      </contour>
    </TTGlyph>
    <TTGlyph name="Edotaccent" xMin="78" yMin="0" xMax="623" yMax="920">
      <contour>
        <pt x="418" y="830" on="1"/>
        <pt x="438" y="920" on="1"/>
        <pt x="502" y="920" on="1"/>
        <pt x="481" y="830" on="1"/>
      </contour>
      <contour>
        <pt x="78" y="0" on="1"/>
        <pt x="237" y="692" on="1"/>
        <pt x="623" y="692" on="1"/>
        <pt x="607" y="624" on="1"/>
        <pt x="298" y="624" on="1"/>
        <pt x="243" y="386" on="1"/>
        <pt x="497" y="386" on="1"/>
        <pt x="481" y="318" on="1"/>
        <pt x="228" y="318" on="1"/>
        <pt x="170" y="68" on="1"/>
        <pt x="479" y="68" on="1"/>
        <pt x="464" y="0" on="1"/>
      </contour>
    </TTGlyph>
    <TTGlyph name="Egrave" xMin="78" yMin="0" xMax="623" yMax="930">
      <contour>
        <pt x="369" y="930" on="1"/>
        <pt x="554" y="836" on="1"/>
        <pt x="520" y="780" on="1"/>
        <pt x="332" y="866" on="1"/>
      </contour>
      <contour>
        <pt x="78" y="0" on="1"/>
        <pt x="237" y="692" on="1"/>
        <pt x="623" y="692" on="1"/>
        <pt x="607" y="624" on="1"/>
        <pt x="298" y="624" on="1"/>
        <pt x="243" y="386" on="1"/>
        <pt x="497" y="386" on="1"/>
        <pt x="481" y="318" on="1"/>
        <pt x="228" y="318" on="1"/>
        <pt x="170" y="68" on="1"/>
        <pt x="479" y="68" on="1"/>
        <pt x="464" y="0" on="1"/>
      </contour>
    </TTGlyph>
    <TTGlyph name="Emacron" xMin="78" yMin="0" xMax="623" yMax="883">
      <contour>
        <pt x="305" y="823" on="1"/>
        <pt x="318" y="883" on="1"/>
        <pt x="612" y="883" on="1"/>
        <pt x="598" y="823" on="1"/>
      </contour>
      <contour>
        <pt x="78" y="0" on="1"/>
        <pt x="237" y="692" on="1"/>
        <pt x="623" y="692" on="1"/>
        <pt x="607" y="624" on="1"/>
        <pt x="298" y="624" on="1"/>
        <pt x="243" y="386" on="1"/>
        <pt x="497" y="386" on="1"/>
        <pt x="481" y="318" on="1"/>
        <pt x="228" y="318" on="1"/>
        <pt x="170" y="68" on="1"/>
        <pt x="479" y="68" on="1"/>
        <pt x="464" y="0" on="1"/>
      </contour>
    </TTGlyph>
    <TTGlyph name="Eng" xMin="78" yMin="-187" xMax="713" yMax="692">
      <contour>
        <pt x="78" y="0" on="1"/>
        <pt x="238" y="692" on="1"/>
        <pt x="375" y="692" on="1"/>
        <pt x="479" y="79" on="1"/>
        <pt x="497" y="79" on="1"/>
        <pt x="639" y="692" on="1"/>
        <pt x="713" y="692" on="1"/>
        <pt x="554" y="2" on="1"/>
        <pt x="539" y="-64" on="0"/>
        <pt x="516" y="-128" on="0"/>
        <pt x="469" y="-175" on="0"/>
        <pt x="405" y="-187" on="0"/>
        <pt x="346" y="-187" on="1"/>
        <pt x="358" y="-119" on="1"/>
        <pt x="419" y="-118" on="0"/>
        <pt x="461" y="-77" on="0"/>
        <pt x="479" y="0" on="1"/>
        <pt x="421" y="0" on="1"/>
        <pt x="314" y="617" on="1"/>
        <pt x="294" y="617" on="1"/>
        <pt x="151" y="0" on="1"/>
      </contour>
    </TTGlyph>
    <TTGlyph name="Eogonek" xMin="78" yMin="-204" xMax="623" yMax="692">
      <contour>
        <pt x="356" y="-117" on="1"/>
        <pt x="356" y="-137" on="0"/>
        <pt x="380" y="-137" on="1"/>
        <pt x="428" y="-132" on="1"/>
        <pt x="421" y="-195" on="1"/>
        <pt x="376" y="-204" on="0"/>
        <pt x="344" y="-204" on="1"/>
        <pt x="274" y="-204" on="0"/>
        <pt x="274" y="-141" on="1"/>
        <pt x="274" y="-109" on="0"/>
        <pt x="333" y="-31" on="0"/>
        <pt x="370" y="0" on="1"/>
        <pt x="78" y="0" on="1"/>
        <pt x="237" y="692" on="1"/>
        <pt x="623" y="692" on="1"/>
        <pt x="607" y="624" on="1"/>
        <pt x="298" y="624" on="1"/>
        <pt x="243" y="386" on="1"/>
        <pt x="497" y="386" on="1"/>
        <pt x="481" y="318" on="1"/>
        <pt x="228" y="318" on="1"/>
        <pt x="170" y="68" on="1"/>
        <pt x="479" y="68" on="1"/>
        <pt x="464" y="0" on="1"/>
        <pt x="443" y="0" on="1"/>
        <pt x="413" y="-25" on="0"/>
        <pt x="356" y="-94" on="0"/>
      </contour>
    </TTGlyph>
    <TTGlyph name="Eth" xMin="82" yMin="0" xMax="656" yMax="692">
      <contour>
        <pt x="321" y="0" on="1"/>
        <pt x="82" y="0" on="1"/>
        <pt x="153" y="309" on="1"/>
        <pt x="87" y="309" on="1"/>
        <pt x="102" y="386" on="1"/>
        <pt x="171" y="386" on="1"/>
        <pt x="242" y="692" on="1"/>
        <pt x="464" y="692" on="1"/>
        <pt x="559" y="692" on="0"/>
        <pt x="656" y="594" on="0"/>
        <pt x="656" y="486" on="1"/>
        <pt x="656" y="347" on="0"/>
        <pt x="604" y="224" on="1"/>
        <pt x="577" y="160" on="0"/>
        <pt x="501" y="61" on="0"/>
        <pt x="388" y="0" on="0"/>
      </contour>
      <contour>
        <pt x="545" y="281" on="0"/>
        <pt x="576" y="422" on="0"/>
        <pt x="576" y="559" on="0"/>
        <pt x="516" y="624" on="0"/>
        <pt x="449" y="624" on="1"/>
        <pt x="302" y="624" on="1"/>
        <pt x="247" y="386" on="1"/>
        <pt x="389" y="386" on="1"/>
        <pt x="372" y="309" on="1"/>
        <pt x="230" y="309" on="1"/>
        <pt x="175" y="68" on="1"/>
        <pt x="332" y="68" on="1"/>
        <pt x="391" y="68" on="0"/>
        <pt x="488" y="152" on="0"/>
      </contour>
    </TTGlyph>
    <TTGlyph name="Euro" xMin="100" yMin="-10" xMax="644" yMax="671">
      <contour>
        <pt x="336" y="-10" on="1"/>
        <pt x="152" y="-10" on="0"/>
        <pt x="152" y="180" on="1"/>
        <pt x="152" y="209" on="1"/>
        <pt x="100" y="209" on="1"/>
        <pt x="114" y="271" on="1"/>
        <pt x="158" y="271" on="1"/>
        <pt x="164" y="319" on="0"/>
        <pt x="180" y="376" on="1"/>
        <pt x="138" y="376" on="1"/>
        <pt x="153" y="437" on="1"/>
        <pt x="200" y="437" on="1"/>
        <pt x="242" y="542" on="0"/>
        <pt x="385" y="671" on="0"/>
        <pt x="485" y="671" on="1"/>
        <pt x="552" y="671" on="0"/>
        <pt x="621" y="654" on="1"/>
        <pt x="644" y="649" on="1"/>
        <pt x="628" y="591" on="1"/>
        <pt x="554" y="606" on="0"/>
        <pt x="416" y="606" on="0"/>
        <pt x="313" y="514" on="0"/>
        <pt x="279" y="437" on="1"/>
        <pt x="547" y="437" on="1"/>
        <pt x="533" y="376" on="1"/>
        <pt x="257" y="376" on="1"/>
        <pt x="243" y="332" on="0"/>
        <pt x="234" y="271" on="1"/>
        <pt x="509" y="271" on="1"/>
        <pt x="495" y="209" on="1"/>
        <pt x="228" y="209" on="1"/>
        <pt x="228" y="183" on="1"/>
        <pt x="228" y="55" on="0"/>
        <pt x="346" y="55" on="1"/>
        <pt x="409" y="55" on="0"/>
        <pt x="480" y="68" on="1"/>
        <pt x="502" y="72" on="1"/>
        <pt x="497" y="11" on="1"/>
        <pt x="412" y="-10" on="0"/>
      </contour>
    </TTGlyph>
    <TTGlyph name="F" xMin="78" yMin="0" xMax="615" yMax="692">
      <contour>
        <pt x="78" y="0" on="1"/>
        <pt x="238" y="692" on="1"/>
        <pt x="615" y="692" on="1"/>
        <pt x="599" y="624" on="1"/>
        <pt x="298" y="624" on="1"/>
        <pt x="236" y="351" on="1"/>
        <pt x="492" y="351" on="1"/>
        <pt x="476" y="284" on="1"/>
        <pt x="220" y="284" on="1"/>
        <pt x="154" y="0" on="1"/>
      </contour>
    </TTGlyph>
    <TTGlyph name="G" xMin="113" yMin="-10" xMax="668" yMax="702">
      <contour>
        <pt x="322" y="-10" on="1"/>
        <pt x="113" y="-10" on="0"/>
        <pt x="113" y="186" on="1"/>
        <pt x="113" y="383" on="0"/>
        <pt x="198" y="536" on="1"/>
        <pt x="240" y="611" on="0"/>
        <pt x="381" y="702" on="0"/>
        <pt x="469" y="702" on="1"/>
        <pt x="554" y="702" on="0"/>
        <pt x="640" y="678" on="1"/>
        <pt x="668" y="671" on="1"/>
        <pt x="649" y="613" on="1"/>
        <pt x="549" y="634" on="0"/>
        <pt x="459" y="634" on="1"/>
        <pt x="405" y="634" on="0"/>
        <pt x="315" y="577" on="0"/>
        <pt x="255" y="484" on="0"/>
        <pt x="234" y="424" on="1"/>
        <pt x="193" y="312" on="0"/>
        <pt x="193" y="58" on="0"/>
        <pt x="330" y="58" on="1"/>
        <pt x="374" y="58" on="0"/>
        <pt x="433" y="70" on="1"/>
        <pt x="451" y="73" on="1"/>
        <pt x="503" y="293" on="1"/>
        <pt x="398" y="293" on="1"/>
        <pt x="413" y="359" on="1"/>
        <pt x="595" y="359" on="1"/>
        <pt x="515" y="17" on="1"/>
        <pt x="427" y="-10" on="0"/>
      </contour>
    </TTGlyph>
    <TTGlyph name="Gbreve" xMin="113" yMin="-10" xMax="678" yMax="923">
      <contour>
        <pt x="447" y="923" on="1"/>
        <pt x="446" y="916" on="0"/>
        <pt x="446" y="878" on="0"/>
        <pt x="478" y="848" on="0"/>
        <pt x="546" y="848" on="0"/>
        <pt x="597" y="889" on="0"/>
        <pt x="606" y="923" on="1"/>
        <pt x="678" y="923" on="1"/>
        <pt x="659" y="858" on="0"/>
        <pt x="559" y="778" on="0"/>
        <pt x="433" y="778" on="0"/>
        <pt x="374" y="838" on="0"/>
        <pt x="372" y="886" on="1"/>
        <pt x="372" y="904" on="0"/>
        <pt x="375" y="923" on="1"/>
      </contour>
      <contour>
        <pt x="322" y="-10" on="1"/>
        <pt x="113" y="-10" on="0"/>
        <pt x="113" y="186" on="1"/>
        <pt x="113" y="383" on="0"/>
        <pt x="198" y="536" on="1"/>
        <pt x="240" y="611" on="0"/>
        <pt x="381" y="702" on="0"/>
        <pt x="469" y="702" on="1"/>
        <pt x="554" y="702" on="0"/>
        <pt x="640" y="678" on="1"/>
        <pt x="668" y="671" on="1"/>
        <pt x="649" y="613" on="1"/>
        <pt x="549" y="634" on="0"/>
        <pt x="459" y="634" on="1"/>
        <pt x="405" y="634" on="0"/>
        <pt x="315" y="577" on="0"/>
        <pt x="255" y="484" on="0"/>
        <pt x="234" y="424" on="1"/>
        <pt x="193" y="312" on="0"/>
        <pt x="193" y="58" on="0"/>
        <pt x="330" y="58" on="1"/>
        <pt x="374" y="58" on="0"/>
        <pt x="433" y="70" on="1"/>
        <pt x="451" y="73" on="1"/>
        <pt x="503" y="293" on="1"/>
        <pt x="398" y="293" on="1"/>
        <pt x="413" y="359" on="1"/>
        <pt x="595" y="359" on="1"/>
        <pt x="515" y="17" on="1"/>
        <pt x="427" y="-10" on="0"/>
      </contour>
    </TTGlyph>
    <TTGlyph name="Gcircumflex" xMin="113" yMin="-10" xMax="668" yMax="930">
      <contour>
        <pt x="339" y="779" on="1"/>
        <pt x="494" y="930" on="1"/>
        <pt x="547" y="930" on="1"/>
        <pt x="634" y="779" on="1"/>
        <pt x="558" y="779" on="1"/>
        <pt x="510" y="865" on="1"/>
        <pt x="421" y="779" on="1"/>
      </contour>
      <contour>
        <pt x="322" y="-10" on="1"/>
        <pt x="113" y="-10" on="0"/>
        <pt x="113" y="186" on="1"/>
        <pt x="113" y="383" on="0"/>
        <pt x="198" y="536" on="1"/>
        <pt x="240" y="611" on="0"/>
        <pt x="381" y="702" on="0"/>
        <pt x="469" y="702" on="1"/>
        <pt x="554" y="702" on="0"/>
        <pt x="640" y="678" on="1"/>
        <pt x="668" y="671" on="1"/>
        <pt x="649" y="613" on="1"/>
        <pt x="549" y="634" on="0"/>
        <pt x="459" y="634" on="1"/>
        <pt x="405" y="634" on="0"/>
        <pt x="315" y="577" on="0"/>
        <pt x="255" y="484" on="0"/>
        <pt x="234" y="424" on="1"/>
        <pt x="193" y="312" on="0"/>
        <pt x="193" y="58" on="0"/>
        <pt x="330" y="58" on="1"/>
        <pt x="374" y="58" on="0"/>
        <pt x="433" y="70" on="1"/>
        <pt x="451" y="73" on="1"/>
        <pt x="503" y="293" on="1"/>
        <pt x="398" y="293" on="1"/>
        <pt x="413" y="359" on="1"/>
        <pt x="595" y="359" on="1"/>
        <pt x="515" y="17" on="1"/>
        <pt x="427" y="-10" on="0"/>
      </contour>
    </TTGlyph>
    <TTGlyph name="Gcommaaccent" xMin="113" yMin="-283" xMax="668" yMax="702">
      <contour>
        <pt x="322" y="-10" on="1"/>
        <pt x="113" y="-10" on="0"/>
        <pt x="113" y="186" on="1"/>
        <pt x="113" y="383" on="0"/>
        <pt x="198" y="536" on="1"/>
        <pt x="240" y="611" on="0"/>
        <pt x="381" y="702" on="0"/>
        <pt x="469" y="702" on="1"/>
        <pt x="554" y="702" on="0"/>
        <pt x="640" y="678" on="1"/>
        <pt x="668" y="671" on="1"/>
        <pt x="649" y="613" on="1"/>
        <pt x="549" y="634" on="0"/>
        <pt x="459" y="634" on="1"/>
        <pt x="405" y="634" on="0"/>
        <pt x="315" y="577" on="0"/>
        <pt x="255" y="484" on="0"/>
        <pt x="234" y="424" on="1"/>
        <pt x="193" y="312" on="0"/>
        <pt x="193" y="58" on="0"/>
        <pt x="330" y="58" on="1"/>
        <pt x="374" y="58" on="0"/>
        <pt x="433" y="70" on="1"/>
        <pt x="451" y="73" on="1"/>
        <pt x="503" y="293" on="1"/>
        <pt x="398" y="293" on="1"/>
        <pt x="413" y="359" on="1"/>
        <pt x="595" y="359" on="1"/>
        <pt x="515" y="17" on="1"/>
        <pt x="427" y="-10" on="0"/>
      </contour>
      <contour>
        <pt x="257" y="-73" on="1"/>
        <pt x="327" y="-73" on="1"/>
        <pt x="231" y="-283" on="1"/>
        <pt x="170" y="-283" on="1"/>
      </contour>
    </TTGlyph>
    <TTGlyph name="Gdotaccent" xMin="113" yMin="-10" xMax="668" yMax="886">
      <contour>
        <pt x="465" y="797" on="1"/>
        <pt x="486" y="886" on="1"/>
        <pt x="556" y="886" on="1"/>
        <pt x="535" y="797" on="1"/>
      </contour>
      <contour>
        <pt x="322" y="-10" on="1"/>
        <pt x="113" y="-10" on="0"/>
        <pt x="113" y="186" on="1"/>
        <pt x="113" y="383" on="0"/>
        <pt x="198" y="536" on="1"/>
        <pt x="240" y="611" on="0"/>
        <pt x="381" y="702" on="0"/>
        <pt x="469" y="702" on="1"/>
        <pt x="554" y="702" on="0"/>
        <pt x="640" y="678" on="1"/>
        <pt x="668" y="671" on="1"/>
        <pt x="649" y="613" on="1"/>
        <pt x="549" y="634" on="0"/>
        <pt x="459" y="634" on="1"/>
        <pt x="405" y="634" on="0"/>
        <pt x="315" y="577" on="0"/>
        <pt x="255" y="484" on="0"/>
        <pt x="234" y="424" on="1"/>
        <pt x="193" y="312" on="0"/>
        <pt x="193" y="58" on="0"/>
        <pt x="330" y="58" on="1"/>
        <pt x="374" y="58" on="0"/>
        <pt x="433" y="70" on="1"/>
        <pt x="451" y="73" on="1"/>
        <pt x="503" y="293" on="1"/>
        <pt x="398" y="293" on="1"/>
        <pt x="413" y="359" on="1"/>
        <pt x="595" y="359" on="1"/>
        <pt x="515" y="17" on="1"/>
        <pt x="427" y="-10" on="0"/>
      </contour>
    </TTGlyph>
    <TTGlyph name="H" xMin="78" yMin="0" xMax="706" yMax="692">
      <contour>
        <pt x="469" y="0" on="1"/>
        <pt x="542" y="316" on="1"/>
        <pt x="227" y="316" on="1"/>
        <pt x="154" y="0" on="1"/>
        <pt x="78" y="0" on="1"/>
        <pt x="238" y="692" on="1"/>
        <pt x="314" y="692" on="1"/>
        <pt x="243" y="383" on="1"/>
        <pt x="558" y="383" on="1"/>
        <pt x="629" y="692" on="1"/>
        <pt x="706" y="692" on="1"/>
        <pt x="546" y="0" on="1"/>
      </contour>
    </TTGlyph>
    <TTGlyph name="Hbar" xMin="85" yMin="0" xMax="764" yMax="692">
      <contour>
        <pt x="122" y="503" on="1"/>
        <pt x="122" y="504" on="1"/>
        <pt x="137" y="572" on="1"/>
        <pt x="217" y="572" on="1"/>
        <pt x="245" y="692" on="1"/>
        <pt x="318" y="692" on="1"/>
        <pt x="290" y="572" on="1"/>
        <pt x="612" y="572" on="1"/>
        <pt x="640" y="692" on="1"/>
        <pt x="713" y="692" on="1"/>
        <pt x="685" y="572" on="1"/>
        <pt x="764" y="572" on="1"/>
        <pt x="746" y="503" on="1"/>
        <pt x="669" y="503" on="1"/>
        <pt x="554" y="0" on="1"/>
        <pt x="480" y="0" on="1"/>
        <pt x="552" y="312" on="1"/>
        <pt x="230" y="312" on="1"/>
        <pt x="158" y="0" on="1"/>
        <pt x="85" y="0" on="1"/>
        <pt x="201" y="503" on="1"/>
      </contour>
      <contour>
        <pt x="247" y="385" on="1"/>
        <pt x="569" y="385" on="1"/>
        <pt x="596" y="503" on="1"/>
        <pt x="274" y="503" on="1"/>
      </contour>
    </TTGlyph>
    <TTGlyph name="Hcircumflex" xMin="78" yMin="0" xMax="706" yMax="931">
      <contour>
        <pt x="469" y="0" on="1"/>
        <pt x="542" y="316" on="1"/>
        <pt x="227" y="316" on="1"/>
        <pt x="154" y="0" on="1"/>
        <pt x="78" y="0" on="1"/>
        <pt x="238" y="692" on="1"/>
        <pt x="314" y="692" on="1"/>
        <pt x="243" y="383" on="1"/>
        <pt x="558" y="383" on="1"/>
        <pt x="629" y="692" on="1"/>
        <pt x="706" y="692" on="1"/>
        <pt x="546" y="0" on="1"/>
      </contour>
      <contour>
        <pt x="335" y="793" on="1"/>
        <pt x="499" y="931" on="1"/>
        <pt x="540" y="931" on="1"/>
        <pt x="636" y="793" on="1"/>
        <pt x="567" y="793" on="1"/>
        <pt x="513" y="874" on="1"/>
        <pt x="417" y="793" on="1"/>
      </contour>
    </TTGlyph>
    <TTGlyph name="I" xMin="78" yMin="0" xMax="314" yMax="692">
      <contour>
        <pt x="78" y="0" on="1"/>
        <pt x="238" y="692" on="1"/>
        <pt x="314" y="692" on="1"/>
        <pt x="154" y="0" on="1"/>
      </contour>
    </TTGlyph>
    <TTGlyph name="Iacute" xMin="78" yMin="0" xMax="467" yMax="936">
      <contour>
        <pt x="239" y="785" on="1"/>
        <pt x="230" y="842" on="1"/>
        <pt x="458" y="936" on="1"/>
        <pt x="467" y="871" on="1"/>
      </contour>
      <contour>
        <pt x="78" y="0" on="1"/>
        <pt x="238" y="692" on="1"/>
        <pt x="314" y="692" on="1"/>
        <pt x="154" y="0" on="1"/>
      </contour>
    </TTGlyph>
    <TTGlyph name="Ibreve" xMin="78" yMin="0" xMax="468" yMax="922">
      <contour>
        <pt x="298" y="795" on="1"/>
        <pt x="183" y="795" on="0"/>
        <pt x="183" y="892" on="1"/>
        <pt x="183" y="906" on="0"/>
        <pt x="186" y="922" on="1"/>
        <pt x="252" y="922" on="1"/>
        <pt x="250" y="912" on="0"/>
        <pt x="250" y="881" on="0"/>
        <pt x="277" y="855" on="0"/>
        <pt x="342" y="855" on="0"/>
        <pt x="393" y="892" on="0"/>
        <pt x="402" y="922" on="1"/>
        <pt x="468" y="922" on="1"/>
        <pt x="431" y="795" on="0"/>
      </contour>
      <contour>
        <pt x="78" y="0" on="1"/>
        <pt x="238" y="692" on="1"/>
        <pt x="314" y="692" on="1"/>
        <pt x="154" y="0" on="1"/>
      </contour>
    </TTGlyph>
    <TTGlyph name="Icircumflex" xMin="78" yMin="0" xMax="444" yMax="929">
      <contour>
        <pt x="143" y="791" on="1"/>
        <pt x="307" y="929" on="1"/>
        <pt x="348" y="929" on="1"/>
        <pt x="444" y="791" on="1"/>
        <pt x="375" y="791" on="1"/>
        <pt x="321" y="872" on="1"/>
        <pt x="225" y="791" on="1"/>
      </contour>
      <contour>
        <pt x="78" y="0" on="1"/>
        <pt x="238" y="692" on="1"/>
        <pt x="314" y="692" on="1"/>
        <pt x="154" y="0" on="1"/>
      </contour>
    </TTGlyph>
    <TTGlyph name="Idieresis" xMin="78" yMin="0" xMax="444" yMax="912">
      <contour>
        <pt x="173" y="819" on="1"/>
        <pt x="194" y="912" on="1"/>
        <pt x="256" y="912" on="1"/>
        <pt x="233" y="819" on="1"/>
      </contour>
      <contour>
        <pt x="360" y="819" on="1"/>
        <pt x="382" y="912" on="1"/>
        <pt x="444" y="912" on="1"/>
        <pt x="421" y="819" on="1"/>
      </contour>
      <contour>
        <pt x="78" y="0" on="1"/>
        <pt x="238" y="692" on="1"/>
        <pt x="314" y="692" on="1"/>
        <pt x="154" y="0" on="1"/>
      </contour>
    </TTGlyph>
    <TTGlyph name="Idotaccent" xMin="78" yMin="0" xMax="354" yMax="920">
      <contour>
        <pt x="270" y="830" on="1"/>
        <pt x="290" y="920" on="1"/>
        <pt x="354" y="920" on="1"/>
        <pt x="333" y="830" on="1"/>
      </contour>
      <contour>
        <pt x="78" y="0" on="1"/>
        <pt x="238" y="692" on="1"/>
        <pt x="314" y="692" on="1"/>
        <pt x="154" y="0" on="1"/>
      </contour>
    </TTGlyph>
    <TTGlyph name="Igrave" xMin="78" yMin="0" xMax="371" yMax="930">
      <contour>
        <pt x="186" y="930" on="1"/>
        <pt x="371" y="836" on="1"/>
        <pt x="337" y="780" on="1"/>
        <pt x="149" y="866" on="1"/>
      </contour>
      <contour>
        <pt x="78" y="0" on="1"/>
        <pt x="238" y="692" on="1"/>
        <pt x="314" y="692" on="1"/>
        <pt x="154" y="0" on="1"/>
      </contour>
    </TTGlyph>
    <TTGlyph name="Imacron" xMin="78" yMin="0" xMax="460" yMax="893">
      <contour>
        <pt x="153" y="833" on="1"/>
        <pt x="166" y="893" on="1"/>
        <pt x="460" y="893" on="1"/>
        <pt x="446" y="833" on="1"/>
      </contour>
      <contour>
        <pt x="78" y="0" on="1"/>
        <pt x="238" y="692" on="1"/>
        <pt x="314" y="692" on="1"/>
        <pt x="154" y="0" on="1"/>
      </contour>
    </TTGlyph>
    <TTGlyph name="Iogonek" xMin="-23" yMin="-204" xMax="314" yMax="692">
      <contour>
        <pt x="48" y="-204" on="1"/>
        <pt x="-23" y="-204" on="0"/>
        <pt x="-23" y="-141" on="1"/>
        <pt x="-23" y="-82" on="0"/>
        <pt x="78" y="3" on="1"/>
        <pt x="238" y="692" on="1"/>
        <pt x="314" y="692" on="1"/>
        <pt x="154" y="0" on="1"/>
        <pt x="123" y="-20" on="0"/>
        <pt x="59" y="-93" on="0"/>
        <pt x="59" y="-117" on="1"/>
        <pt x="59" y="-137" on="0"/>
        <pt x="83" y="-137" on="1"/>
        <pt x="132" y="-132" on="1"/>
        <pt x="124" y="-195" on="1"/>
        <pt x="80" y="-204" on="0"/>
      </contour>
    </TTGlyph>
    <TTGlyph name="Itilde" xMin="78" yMin="0" xMax="474" yMax="919">
      <contour>
        <pt x="374" y="798" on="1"/>
        <pt x="350" y="798" on="0"/>
        <pt x="248" y="854" on="0"/>
        <pt x="236" y="854" on="1"/>
        <pt x="213" y="854" on="0"/>
        <pt x="163" y="818" on="1"/>
        <pt x="146" y="805" on="1"/>
        <pt x="144" y="859" on="1"/>
        <pt x="211" y="919" on="0"/>
        <pt x="249" y="919" on="1"/>
        <pt x="276" y="919" on="0"/>
        <pt x="377" y="864" on="0"/>
        <pt x="388" y="864" on="1"/>
        <pt x="407" y="864" on="0"/>
        <pt x="455" y="898" on="1"/>
        <pt x="471" y="910" on="1"/>
        <pt x="474" y="857" on="1"/>
        <pt x="411" y="798" on="0"/>
      </contour>
      <contour>
        <pt x="78" y="0" on="1"/>
        <pt x="238" y="692" on="1"/>
        <pt x="314" y="692" on="1"/>
        <pt x="154" y="0" on="1"/>
      </contour>
    </TTGlyph>
    <TTGlyph name="J" xMin="7" yMin="-70" xMax="350" yMax="692">
      <contour>
        <pt x="350" y="692" on="1"/>
        <pt x="218" y="118" on="1"/>
        <pt x="198" y="32" on="0"/>
        <pt x="160" y="-40" on="0"/>
        <pt x="86" y="-70" on="0"/>
        <pt x="7" y="-70" on="1"/>
        <pt x="19" y="-2" on="1"/>
        <pt x="81" y="-2" on="0"/>
        <pt x="123" y="41" on="0"/>
        <pt x="142" y="124" on="1"/>
        <pt x="274" y="692" on="1"/>
      </contour>
    </TTGlyph>
    <TTGlyph name="Jcircumflex" xMin="7" yMin="-70" xMax="475" yMax="931">
      <contour>
        <pt x="350" y="692" on="1"/>
        <pt x="218" y="118" on="1"/>
        <pt x="198" y="32" on="0"/>
        <pt x="160" y="-40" on="0"/>
        <pt x="86" y="-70" on="0"/>
        <pt x="7" y="-70" on="1"/>
        <pt x="19" y="-2" on="1"/>
        <pt x="81" y="-2" on="0"/>
        <pt x="123" y="41" on="0"/>
        <pt x="142" y="124" on="1"/>
        <pt x="274" y="692" on="1"/>
      </contour>
      <contour>
        <pt x="174" y="793" on="1"/>
        <pt x="338" y="931" on="1"/>
        <pt x="379" y="931" on="1"/>
        <pt x="475" y="793" on="1"/>
        <pt x="406" y="793" on="1"/>
        <pt x="352" y="874" on="1"/>
        <pt x="256" y="793" on="1"/>
      </contour>
    </TTGlyph>
    <TTGlyph name="K" xMin="78" yMin="0" xMax="662" yMax="692">
      <contour>
        <pt x="422" y="0" on="1"/>
        <pt x="324" y="307" on="1"/>
        <pt x="224" y="304" on="1"/>
        <pt x="154" y="0" on="1"/>
        <pt x="78" y="0" on="1"/>
        <pt x="238" y="692" on="1"/>
        <pt x="314" y="692" on="1"/>
        <pt x="240" y="372" on="1"/>
        <pt x="331" y="375" on="1"/>
        <pt x="576" y="692" on="1"/>
        <pt x="662" y="692" on="1"/>
        <pt x="393" y="343" on="1"/>
        <pt x="503" y="0" on="1"/>
      </contour>
    </TTGlyph>
    <TTGlyph name="Kcommaaccent" xMin="78" yMin="-283" xMax="662" yMax="692">
      <contour>
        <pt x="229" y="-73" on="1"/>
        <pt x="299" y="-73" on="1"/>
        <pt x="203" y="-283" on="1"/>
        <pt x="142" y="-283" on="1"/>
      </contour>
      <contour>
        <pt x="422" y="0" on="1"/>
        <pt x="324" y="307" on="1"/>
        <pt x="224" y="304" on="1"/>
        <pt x="154" y="0" on="1"/>
        <pt x="78" y="0" on="1"/>
        <pt x="238" y="692" on="1"/>
        <pt x="314" y="692" on="1"/>
        <pt x="240" y="372" on="1"/>
        <pt x="331" y="375" on="1"/>
        <pt x="576" y="692" on="1"/>
        <pt x="662" y="692" on="1"/>
        <pt x="393" y="343" on="1"/>
        <pt x="503" y="0" on="1"/>
      </contour>
    </TTGlyph>
    <TTGlyph name="L" xMin="78" yMin="0" xMax="442" yMax="692">
      <contour>
        <pt x="427" y="0" on="1"/>
        <pt x="78" y="0" on="1"/>
        <pt x="238" y="692" on="1"/>
        <pt x="314" y="692" on="1"/>
        <pt x="170" y="68" on="1"/>
        <pt x="442" y="68" on="1"/>
      </contour>
    </TTGlyph>
    <TTGlyph name="Lacute" xMin="78" yMin="0" xMax="544" yMax="936">
      <contour>
        <pt x="316" y="785" on="1"/>
        <pt x="307" y="842" on="1"/>
        <pt x="535" y="936" on="1"/>
        <pt x="544" y="871" on="1"/>
      </contour>
      <contour>
        <pt x="427" y="0" on="1"/>
        <pt x="78" y="0" on="1"/>
        <pt x="238" y="692" on="1"/>
        <pt x="314" y="692" on="1"/>
        <pt x="170" y="68" on="1"/>
        <pt x="442" y="68" on="1"/>
      </contour>
    </TTGlyph>
    <TTGlyph name="Lcaron" xMin="78" yMin="0" xMax="554" yMax="692">
      <contour>
        <pt x="554" y="692" on="1"/>
        <pt x="499" y="460" on="1"/>
        <pt x="431" y="460" on="1"/>
        <pt x="486" y="692" on="1"/>
      </contour>
      <contour>
        <pt x="427" y="0" on="1"/>
        <pt x="78" y="0" on="1"/>
        <pt x="238" y="692" on="1"/>
        <pt x="314" y="692" on="1"/>
        <pt x="170" y="68" on="1"/>
        <pt x="442" y="68" on="1"/>
      </contour>
    </TTGlyph>
    <TTGlyph name="Lcommaaccent" xMin="78" yMin="-283" xMax="442" yMax="692">
      <contour>
        <pt x="207" y="-73" on="1"/>
        <pt x="277" y="-73" on="1"/>
        <pt x="181" y="-283" on="1"/>
        <pt x="120" y="-283" on="1"/>
      </contour>
      <contour>
        <pt x="427" y="0" on="1"/>
        <pt x="78" y="0" on="1"/>
        <pt x="238" y="692" on="1"/>
        <pt x="314" y="692" on="1"/>
        <pt x="170" y="68" on="1"/>
        <pt x="442" y="68" on="1"/>
      </contour>
    </TTGlyph>
    <TTGlyph name="Lslash" xMin="63" yMin="0" xMax="444" yMax="692">
      <contour>
        <pt x="429" y="0" on="1"/>
        <pt x="80" y="0" on="1"/>
        <pt x="142" y="268" on="1"/>
        <pt x="88" y="234" on="1"/>
        <pt x="88" y="235" on="1"/>
        <pt x="63" y="289" on="1"/>
        <pt x="161" y="350" on="1"/>
        <pt x="240" y="692" on="1"/>
        <pt x="316" y="692" on="1"/>
        <pt x="250" y="405" on="1"/>
        <pt x="398" y="498" on="1"/>
        <pt x="421" y="443" on="1"/>
        <pt x="231" y="324" on="1"/>
        <pt x="172" y="68" on="1"/>
        <pt x="444" y="68" on="1"/>
      </contour>
    </TTGlyph>
    <TTGlyph name="M" xMin="78" yMin="0" xMax="862" yMax="692">
      <contour>
        <pt x="78" y="0" on="1"/>
        <pt x="238" y="692" on="1"/>
        <pt x="367" y="692" on="1"/>
        <pt x="411" y="106" on="1"/>
        <pt x="731" y="692" on="1"/>
        <pt x="862" y="692" on="1"/>
        <pt x="702" y="0" on="1"/>
        <pt x="626" y="0" on="1"/>
        <pt x="771" y="624" on="1"/>
        <pt x="760" y="624" on="1"/>
        <pt x="434" y="25" on="1"/>
        <pt x="354" y="25" on="1"/>
        <pt x="308" y="624" on="1"/>
        <pt x="298" y="624" on="1"/>
        <pt x="154" y="0" on="1"/>
      </contour>
    </TTGlyph>
    <TTGlyph name="N" xMin="78" yMin="0" xMax="713" yMax="692">
      <contour>
        <pt x="78" y="0" on="1"/>
        <pt x="238" y="692" on="1"/>
        <pt x="374" y="692" on="1"/>
        <pt x="478" y="79" on="1"/>
        <pt x="497" y="79" on="1"/>
        <pt x="638" y="692" on="1"/>
        <pt x="713" y="692" on="1"/>
        <pt x="553" y="0" on="1"/>
        <pt x="422" y="0" on="1"/>
        <pt x="314" y="617" on="1"/>
        <pt x="294" y="617" on="1"/>
        <pt x="151" y="0" on="1"/>
      </contour>
    </TTGlyph>
    <TTGlyph name="Nacute" xMin="78" yMin="0" xMax="713" yMax="936">
      <contour>
        <pt x="402" y="785" on="1"/>
        <pt x="393" y="842" on="1"/>
        <pt x="621" y="936" on="1"/>
        <pt x="630" y="871" on="1"/>
      </contour>
      <contour>
        <pt x="78" y="0" on="1"/>
        <pt x="238" y="692" on="1"/>
        <pt x="374" y="692" on="1"/>
        <pt x="478" y="79" on="1"/>
        <pt x="497" y="79" on="1"/>
        <pt x="638" y="692" on="1"/>
        <pt x="713" y="692" on="1"/>
        <pt x="553" y="0" on="1"/>
        <pt x="422" y="0" on="1"/>
        <pt x="314" y="617" on="1"/>
        <pt x="294" y="617" on="1"/>
        <pt x="151" y="0" on="1"/>
      </contour>
    </TTGlyph>
    <TTGlyph name="Ncaron" xMin="78" yMin="0" xMax="713" yMax="926">
      <contour>
        <pt x="669" y="926" on="1"/>
        <pt x="512" y="789" on="1"/>
        <pt x="465" y="789" on="1"/>
        <pt x="367" y="926" on="1"/>
        <pt x="441" y="926" on="1"/>
        <pt x="499" y="844" on="1"/>
        <pt x="592" y="926" on="1"/>
      </contour>
      <contour>
        <pt x="78" y="0" on="1"/>
        <pt x="238" y="692" on="1"/>
        <pt x="374" y="692" on="1"/>
        <pt x="478" y="79" on="1"/>
        <pt x="497" y="79" on="1"/>
        <pt x="638" y="692" on="1"/>
        <pt x="713" y="692" on="1"/>
        <pt x="553" y="0" on="1"/>
        <pt x="422" y="0" on="1"/>
        <pt x="314" y="617" on="1"/>
        <pt x="294" y="617" on="1"/>
        <pt x="151" y="0" on="1"/>
      </contour>
    </TTGlyph>
    <TTGlyph name="Ncommaaccent" xMin="78" yMin="-283" xMax="713" yMax="692">
      <contour>
        <pt x="280" y="-73" on="1"/>
        <pt x="350" y="-73" on="1"/>
        <pt x="254" y="-283" on="1"/>
        <pt x="193" y="-283" on="1"/>
      </contour>
      <contour>
        <pt x="78" y="0" on="1"/>
        <pt x="238" y="692" on="1"/>
        <pt x="374" y="692" on="1"/>
        <pt x="478" y="79" on="1"/>
        <pt x="497" y="79" on="1"/>
        <pt x="638" y="692" on="1"/>
        <pt x="713" y="692" on="1"/>
        <pt x="553" y="0" on="1"/>
        <pt x="422" y="0" on="1"/>
        <pt x="314" y="617" on="1"/>
        <pt x="294" y="617" on="1"/>
        <pt x="151" y="0" on="1"/>
      </contour>
    </TTGlyph>
    <TTGlyph name="Ntilde" xMin="78" yMin="0" xMax="713" yMax="923">
      <contour>
        <pt x="569" y="802" on="1"/>
        <pt x="546" y="802" on="0"/>
        <pt x="442" y="858" on="0"/>
        <pt x="430" y="858" on="1"/>
        <pt x="408" y="858" on="0"/>
        <pt x="358" y="822" on="1"/>
        <pt x="341" y="809" on="1"/>
        <pt x="339" y="863" on="1"/>
        <pt x="406" y="923" on="0"/>
        <pt x="444" y="923" on="1"/>
        <pt x="471" y="923" on="0"/>
        <pt x="572" y="868" on="0"/>
        <pt x="582" y="868" on="1"/>
        <pt x="602" y="868" on="0"/>
        <pt x="650" y="902" on="1"/>
        <pt x="666" y="914" on="1"/>
        <pt x="669" y="861" on="1"/>
        <pt x="606" y="802" on="0"/>
      </contour>
      <contour>
        <pt x="78" y="0" on="1"/>
        <pt x="238" y="692" on="1"/>
        <pt x="374" y="692" on="1"/>
        <pt x="478" y="79" on="1"/>
        <pt x="497" y="79" on="1"/>
        <pt x="638" y="692" on="1"/>
        <pt x="713" y="692" on="1"/>
        <pt x="553" y="0" on="1"/>
        <pt x="422" y="0" on="1"/>
        <pt x="314" y="617" on="1"/>
        <pt x="294" y="617" on="1"/>
        <pt x="151" y="0" on="1"/>
      </contour>
    </TTGlyph>
    <TTGlyph name="O" xMin="114" yMin="-10" xMax="672" yMax="702">
      <contour>
        <pt x="193" y="123" on="0"/>
        <pt x="257" y="58" on="0"/>
        <pt x="402" y="58" on="0"/>
        <pt x="451" y="98" on="1"/>
        <pt x="519" y="154" on="0"/>
        <pt x="592" y="378" on="0"/>
        <pt x="592" y="490" on="1"/>
        <pt x="592" y="565" on="0"/>
        <pt x="525" y="634" on="0"/>
        <pt x="388" y="634" on="0"/>
        <pt x="342" y="597" on="1"/>
        <pt x="273" y="540" on="0"/>
        <pt x="193" y="308" on="0"/>
      </contour>
      <contour>
        <pt x="672" y="360" on="0"/>
        <pt x="587" y="118" on="0"/>
        <pt x="431" y="-10" on="0"/>
        <pt x="216" y="-10" on="0"/>
        <pt x="114" y="87" on="0"/>
        <pt x="114" y="325" on="0"/>
        <pt x="197" y="561" on="0"/>
        <pt x="351" y="702" on="0"/>
        <pt x="457" y="702" on="1"/>
        <pt x="672" y="702" on="0"/>
        <pt x="672" y="495" on="1"/>
      </contour>
    </TTGlyph>
    <TTGlyph name="OE" xMin="106" yMin="-10" xMax="979" yMax="706">
      <contour>
        <pt x="295" y="-10" on="1"/>
        <pt x="199" y="-10" on="0"/>
        <pt x="154" y="33" on="1"/>
        <pt x="107" y="78" on="0"/>
        <pt x="107" y="241" on="0"/>
        <pt x="131" y="345" on="1"/>
        <pt x="174" y="528" on="0"/>
        <pt x="331" y="706" on="0"/>
        <pt x="463" y="706" on="1"/>
        <pt x="532" y="706" on="0"/>
        <pt x="594" y="696" on="1"/>
        <pt x="979" y="696" on="1"/>
        <pt x="963" y="621" on="1"/>
        <pt x="649" y="621" on="1"/>
        <pt x="592" y="388" on="1"/>
        <pt x="849" y="388" on="1"/>
        <pt x="833" y="315" on="1"/>
        <pt x="577" y="317" on="1"/>
        <pt x="520" y="75" on="1"/>
        <pt x="833" y="75" on="1"/>
        <pt x="815" y="-1" on="1"/>
        <pt x="432" y="-1" on="1"/>
        <pt x="331" y="-10" on="0"/>
      </contour>
      <contour>
        <pt x="319" y="65" on="1"/>
        <pt x="345" y="65" on="0"/>
        <pt x="446" y="73" on="1"/>
        <pt x="577" y="624" on="1"/>
        <pt x="526" y="631" on="0"/>
        <pt x="453" y="631" on="1"/>
        <pt x="353" y="631" on="0"/>
        <pt x="242" y="496" on="0"/>
        <pt x="207" y="346" on="1"/>
        <pt x="184" y="251" on="0"/>
        <pt x="184" y="127" on="0"/>
        <pt x="247" y="65" on="0"/>
      </contour>
    </TTGlyph>
    <TTGlyph name="Oacute" xMin="114" yMin="-10" xMax="672" yMax="936">
      <contour>
        <pt x="193" y="123" on="0"/>
        <pt x="257" y="58" on="0"/>
        <pt x="402" y="58" on="0"/>
        <pt x="451" y="98" on="1"/>
        <pt x="519" y="154" on="0"/>
        <pt x="592" y="378" on="0"/>
        <pt x="592" y="490" on="1"/>
        <pt x="592" y="565" on="0"/>
        <pt x="525" y="634" on="0"/>
        <pt x="388" y="634" on="0"/>
        <pt x="342" y="597" on="1"/>
        <pt x="273" y="540" on="0"/>
        <pt x="193" y="308" on="0"/>
      </contour>
      <contour>
        <pt x="672" y="360" on="0"/>
        <pt x="587" y="118" on="0"/>
        <pt x="431" y="-10" on="0"/>
        <pt x="216" y="-10" on="0"/>
        <pt x="114" y="87" on="0"/>
        <pt x="114" y="325" on="0"/>
        <pt x="197" y="561" on="0"/>
        <pt x="351" y="702" on="0"/>
        <pt x="457" y="702" on="1"/>
        <pt x="672" y="702" on="0"/>
        <pt x="672" y="495" on="1"/>
      </contour>
      <contour>
        <pt x="425" y="785" on="1"/>
        <pt x="416" y="842" on="1"/>
        <pt x="644" y="936" on="1"/>
        <pt x="653" y="871" on="1"/>
      </contour>
    </TTGlyph>
    <TTGlyph name="Obreve" xMin="114" yMin="-10" xMax="672" yMax="923">
      <contour>
        <pt x="489" y="796" on="1"/>
        <pt x="374" y="796" on="0"/>
        <pt x="374" y="893" on="1"/>
        <pt x="374" y="907" on="0"/>
        <pt x="377" y="923" on="1"/>
        <pt x="443" y="923" on="1"/>
        <pt x="441" y="913" on="0"/>
        <pt x="441" y="882" on="0"/>
        <pt x="468" y="856" on="0"/>
        <pt x="533" y="856" on="0"/>
        <pt x="584" y="893" on="0"/>
        <pt x="593" y="923" on="1"/>
        <pt x="659" y="923" on="1"/>
        <pt x="622" y="796" on="0"/>
      </contour>
      <contour>
        <pt x="193" y="123" on="0"/>
        <pt x="257" y="58" on="0"/>
        <pt x="402" y="58" on="0"/>
        <pt x="451" y="98" on="1"/>
        <pt x="519" y="154" on="0"/>
        <pt x="592" y="378" on="0"/>
        <pt x="592" y="490" on="1"/>
        <pt x="592" y="565" on="0"/>
        <pt x="525" y="634" on="0"/>
        <pt x="388" y="634" on="0"/>
        <pt x="342" y="597" on="1"/>
        <pt x="273" y="540" on="0"/>
        <pt x="193" y="308" on="0"/>
      </contour>
      <contour>
        <pt x="672" y="360" on="0"/>
        <pt x="587" y="118" on="0"/>
        <pt x="431" y="-10" on="0"/>
        <pt x="216" y="-10" on="0"/>
        <pt x="114" y="87" on="0"/>
        <pt x="114" y="325" on="0"/>
        <pt x="197" y="561" on="0"/>
        <pt x="351" y="702" on="0"/>
        <pt x="457" y="702" on="1"/>
        <pt x="672" y="702" on="0"/>
        <pt x="672" y="495" on="1"/>
      </contour>
    </TTGlyph>
    <TTGlyph name="Ocircumflex" xMin="114" yMin="-10" xMax="672" yMax="931">
      <contour>
        <pt x="193" y="123" on="0"/>
        <pt x="257" y="58" on="0"/>
        <pt x="402" y="58" on="0"/>
        <pt x="451" y="98" on="1"/>
        <pt x="519" y="154" on="0"/>
        <pt x="592" y="378" on="0"/>
        <pt x="592" y="490" on="1"/>
        <pt x="592" y="565" on="0"/>
        <pt x="525" y="634" on="0"/>
        <pt x="388" y="634" on="0"/>
        <pt x="342" y="597" on="1"/>
        <pt x="273" y="540" on="0"/>
        <pt x="193" y="308" on="0"/>
      </contour>
      <contour>
        <pt x="672" y="360" on="0"/>
        <pt x="587" y="118" on="0"/>
        <pt x="431" y="-10" on="0"/>
        <pt x="216" y="-10" on="0"/>
        <pt x="114" y="87" on="0"/>
        <pt x="114" y="325" on="0"/>
        <pt x="197" y="561" on="0"/>
        <pt x="351" y="702" on="0"/>
        <pt x="457" y="702" on="1"/>
        <pt x="672" y="702" on="0"/>
        <pt x="672" y="495" on="1"/>
      </contour>
      <contour>
        <pt x="347" y="793" on="1"/>
        <pt x="511" y="931" on="1"/>
        <pt x="552" y="931" on="1"/>
        <pt x="648" y="793" on="1"/>
        <pt x="579" y="793" on="1"/>
        <pt x="525" y="874" on="1"/>
        <pt x="429" y="793" on="1"/>
      </contour>
    </TTGlyph>
    <TTGlyph name="Odieresis" xMin="114" yMin="-10" xMax="672" yMax="905">
      <contour>
        <pt x="371" y="812" on="1"/>
        <pt x="392" y="905" on="1"/>
        <pt x="461" y="905" on="1"/>
        <pt x="439" y="812" on="1"/>
      </contour>
      <contour>
        <pt x="560" y="812" on="1"/>
        <pt x="581" y="905" on="1"/>
        <pt x="649" y="905" on="1"/>
        <pt x="628" y="812" on="1"/>
      </contour>
      <contour>
        <pt x="193" y="123" on="0"/>
        <pt x="257" y="58" on="0"/>
        <pt x="402" y="58" on="0"/>
        <pt x="451" y="98" on="1"/>
        <pt x="519" y="154" on="0"/>
        <pt x="592" y="378" on="0"/>
        <pt x="592" y="490" on="1"/>
        <pt x="592" y="565" on="0"/>
        <pt x="525" y="634" on="0"/>
        <pt x="388" y="634" on="0"/>
        <pt x="342" y="597" on="1"/>
        <pt x="273" y="540" on="0"/>
        <pt x="193" y="308" on="0"/>
      </contour>
      <contour>
        <pt x="672" y="360" on="0"/>
        <pt x="587" y="118" on="0"/>
        <pt x="431" y="-10" on="0"/>
        <pt x="216" y="-10" on="0"/>
        <pt x="114" y="87" on="0"/>
        <pt x="114" y="325" on="0"/>
        <pt x="197" y="561" on="0"/>
        <pt x="351" y="702" on="0"/>
        <pt x="457" y="702" on="1"/>
        <pt x="672" y="702" on="0"/>
        <pt x="672" y="495" on="1"/>
      </contour>
    </TTGlyph>
    <TTGlyph name="Ograve" xMin="114" yMin="-10" xMax="672" yMax="930">
      <contour>
        <pt x="413" y="930" on="1"/>
        <pt x="598" y="836" on="1"/>
        <pt x="564" y="780" on="1"/>
        <pt x="376" y="866" on="1"/>
      </contour>
      <contour>
        <pt x="193" y="123" on="0"/>
        <pt x="257" y="58" on="0"/>
        <pt x="402" y="58" on="0"/>
        <pt x="451" y="98" on="1"/>
        <pt x="519" y="154" on="0"/>
        <pt x="592" y="378" on="0"/>
        <pt x="592" y="490" on="1"/>
        <pt x="592" y="565" on="0"/>
        <pt x="525" y="634" on="0"/>
        <pt x="388" y="634" on="0"/>
        <pt x="342" y="597" on="1"/>
        <pt x="273" y="540" on="0"/>
        <pt x="193" y="308" on="0"/>
      </contour>
      <contour>
        <pt x="672" y="360" on="0"/>
        <pt x="587" y="118" on="0"/>
        <pt x="431" y="-10" on="0"/>
        <pt x="216" y="-10" on="0"/>
        <pt x="114" y="87" on="0"/>
        <pt x="114" y="325" on="0"/>
        <pt x="197" y="561" on="0"/>
        <pt x="351" y="702" on="0"/>
        <pt x="457" y="702" on="1"/>
        <pt x="672" y="702" on="0"/>
        <pt x="672" y="495" on="1"/>
      </contour>
    </TTGlyph>
    <TTGlyph name="Ohungarumlaut" xMin="114" yMin="-10" xMax="748" yMax="933">
      <contour>
        <pt x="577" y="771" on="1"/>
        <pt x="535" y="801" on="1"/>
        <pt x="699" y="932" on="1"/>
        <pt x="748" y="900" on="1"/>
      </contour>
      <contour>
        <pt x="388" y="772" on="1"/>
        <pt x="345" y="801" on="1"/>
        <pt x="511" y="933" on="1"/>
        <pt x="557" y="901" on="1"/>
      </contour>
      <contour>
        <pt x="193" y="123" on="0"/>
        <pt x="257" y="58" on="0"/>
        <pt x="402" y="58" on="0"/>
        <pt x="451" y="98" on="1"/>
        <pt x="519" y="154" on="0"/>
        <pt x="592" y="378" on="0"/>
        <pt x="592" y="490" on="1"/>
        <pt x="592" y="565" on="0"/>
        <pt x="525" y="634" on="0"/>
        <pt x="388" y="634" on="0"/>
        <pt x="342" y="597" on="1"/>
        <pt x="273" y="540" on="0"/>
        <pt x="193" y="308" on="0"/>
      </contour>
      <contour>
        <pt x="672" y="360" on="0"/>
        <pt x="587" y="118" on="0"/>
        <pt x="431" y="-10" on="0"/>
        <pt x="216" y="-10" on="0"/>
        <pt x="114" y="87" on="0"/>
        <pt x="114" y="325" on="0"/>
        <pt x="197" y="561" on="0"/>
        <pt x="351" y="702" on="0"/>
        <pt x="457" y="702" on="1"/>
        <pt x="672" y="702" on="0"/>
        <pt x="672" y="495" on="1"/>
      </contour>
    </TTGlyph>
    <TTGlyph name="Omacron" xMin="114" yMin="-10" xMax="672" yMax="883">
      <contour>
        <pt x="193" y="123" on="0"/>
        <pt x="257" y="58" on="0"/>
        <pt x="402" y="58" on="0"/>
        <pt x="451" y="98" on="1"/>
        <pt x="519" y="154" on="0"/>
        <pt x="592" y="378" on="0"/>
        <pt x="592" y="490" on="1"/>
        <pt x="592" y="565" on="0"/>
        <pt x="525" y="634" on="0"/>
        <pt x="388" y="634" on="0"/>
        <pt x="342" y="597" on="1"/>
        <pt x="273" y="540" on="0"/>
        <pt x="193" y="308" on="0"/>
      </contour>
      <contour>
        <pt x="672" y="360" on="0"/>
        <pt x="587" y="118" on="0"/>
        <pt x="431" y="-10" on="0"/>
        <pt x="216" y="-10" on="0"/>
        <pt x="114" y="87" on="0"/>
        <pt x="114" y="325" on="0"/>
        <pt x="197" y="561" on="0"/>
        <pt x="351" y="702" on="0"/>
        <pt x="457" y="702" on="1"/>
        <pt x="672" y="702" on="0"/>
        <pt x="672" y="495" on="1"/>
      </contour>
      <contour>
        <pt x="351" y="823" on="1"/>
        <pt x="364" y="883" on="1"/>
        <pt x="658" y="883" on="1"/>
        <pt x="644" y="823" on="1"/>
      </contour>
    </TTGlyph>
    <TTGlyph name="Omega" xMin="99" yMin="-9" xMax="568" yMax="671">
      <contour>
        <pt x="99" y="57" on="1"/>
        <pt x="220" y="57" on="1"/>
        <pt x="208" y="77" on="0"/>
        <pt x="172" y="144" on="0"/>
        <pt x="112" y="313" on="0"/>
        <pt x="112" y="376" on="1"/>
        <pt x="112" y="530" on="0"/>
        <pt x="208" y="671" on="0"/>
        <pt x="458" y="671" on="0"/>
        <pt x="555" y="530" on="0"/>
        <pt x="555" y="376" on="1"/>
        <pt x="555" y="313" on="0"/>
        <pt x="500" y="154" on="0"/>
        <pt x="473" y="106" on="1"/>
        <pt x="446" y="57" on="1"/>
        <pt x="568" y="57" on="1"/>
        <pt x="568" y="-9" on="1"/>
        <pt x="371" y="-9" on="1"/>
        <pt x="371" y="48" on="1"/>
        <pt x="407" y="115" on="0"/>
        <pt x="475" y="307" on="0"/>
        <pt x="475" y="356" on="1"/>
        <pt x="475" y="491" on="0"/>
        <pt x="421" y="602" on="0"/>
        <pt x="333" y="602" on="1"/>
        <pt x="262" y="602" on="0"/>
        <pt x="230" y="564" on="1"/>
        <pt x="192" y="520" on="0"/>
        <pt x="192" y="356" on="1"/>
        <pt x="192" y="307" on="0"/>
        <pt x="244" y="153" on="0"/>
        <pt x="270" y="100" on="1"/>
        <pt x="295" y="48" on="1"/>
        <pt x="295" y="-9" on="1"/>
        <pt x="99" y="-9" on="1"/>
      </contour>
    </TTGlyph>
    <TTGlyph name="Oslash" xMin="69" yMin="-114" xMax="718" yMax="797">
      <contour>
        <pt x="159" y="44" on="1"/>
        <pt x="114" y="92" on="0"/>
        <pt x="114" y="325" on="0"/>
        <pt x="197" y="561" on="0"/>
        <pt x="351" y="702" on="0"/>
        <pt x="457" y="702" on="1"/>
        <pt x="537" y="702" on="0"/>
        <pt x="587" y="674" on="1"/>
        <pt x="671" y="797" on="1"/>
        <pt x="718" y="776" on="1"/>
        <pt x="627" y="642" on="1"/>
        <pt x="672" y="589" on="0"/>
        <pt x="672" y="495" on="1"/>
        <pt x="672" y="360" on="0"/>
        <pt x="587" y="118" on="0"/>
        <pt x="431" y="-10" on="0"/>
        <pt x="326" y="-10" on="1"/>
        <pt x="247" y="-10" on="0"/>
        <pt x="199" y="14" on="1"/>
        <pt x="111" y="-114" on="1"/>
        <pt x="69" y="-89" on="1"/>
      </contour>
      <contour>
        <pt x="544" y="611" on="1"/>
        <pt x="512" y="634" on="0"/>
        <pt x="388" y="634" on="0"/>
        <pt x="342" y="597" on="1"/>
        <pt x="273" y="540" on="0"/>
        <pt x="193" y="308" on="0"/>
        <pt x="193" y="202" on="1"/>
        <pt x="193" y="145" on="0"/>
        <pt x="207" y="116" on="1"/>
      </contour>
      <contour>
        <pt x="242" y="77" on="1"/>
        <pt x="274" y="58" on="0"/>
        <pt x="402" y="58" on="0"/>
        <pt x="451" y="98" on="1"/>
        <pt x="519" y="154" on="0"/>
        <pt x="592" y="378" on="0"/>
        <pt x="592" y="490" on="1"/>
        <pt x="592" y="541" on="0"/>
        <pt x="578" y="570" on="1"/>
        <pt x="415" y="329" on="1"/>
      </contour>
    </TTGlyph>
    <TTGlyph name="Oslashacute" xMin="70" yMin="-114" xMax="719" yMax="936">
      <contour>
        <pt x="160" y="44" on="1"/>
        <pt x="115" y="92" on="0"/>
        <pt x="115" y="325" on="0"/>
        <pt x="198" y="561" on="0"/>
        <pt x="352" y="702" on="0"/>
        <pt x="458" y="702" on="1"/>
        <pt x="538" y="702" on="0"/>
        <pt x="588" y="674" on="1"/>
        <pt x="672" y="797" on="1"/>
        <pt x="719" y="776" on="1"/>
        <pt x="628" y="642" on="1"/>
        <pt x="673" y="589" on="0"/>
        <pt x="673" y="495" on="1"/>
        <pt x="673" y="360" on="0"/>
        <pt x="588" y="118" on="0"/>
        <pt x="432" y="-10" on="0"/>
        <pt x="327" y="-10" on="1"/>
        <pt x="248" y="-10" on="0"/>
        <pt x="200" y="14" on="1"/>
        <pt x="112" y="-114" on="1"/>
        <pt x="70" y="-89" on="1"/>
      </contour>
      <contour>
        <pt x="545" y="611" on="1"/>
        <pt x="513" y="634" on="0"/>
        <pt x="389" y="634" on="0"/>
        <pt x="343" y="597" on="1"/>
        <pt x="274" y="540" on="0"/>
        <pt x="194" y="308" on="0"/>
        <pt x="194" y="202" on="1"/>
        <pt x="194" y="145" on="0"/>
        <pt x="208" y="116" on="1"/>
      </contour>
      <contour>
        <pt x="243" y="77" on="1"/>
        <pt x="275" y="58" on="0"/>
        <pt x="403" y="58" on="0"/>
        <pt x="452" y="98" on="1"/>
        <pt x="520" y="154" on="0"/>
        <pt x="593" y="378" on="0"/>
        <pt x="593" y="490" on="1"/>
        <pt x="593" y="541" on="0"/>
        <pt x="579" y="570" on="1"/>
        <pt x="416" y="329" on="1"/>
      </contour>
      <contour>
        <pt x="420" y="778" on="1"/>
        <pt x="411" y="842" on="1"/>
        <pt x="639" y="936" on="1"/>
        <pt x="649" y="864" on="1"/>
      </contour>
    </TTGlyph>
    <TTGlyph name="Otilde" xMin="114" yMin="-10" xMax="681" yMax="923">
      <contour>
        <pt x="581" y="802" on="1"/>
        <pt x="558" y="802" on="0"/>
        <pt x="454" y="858" on="0"/>
        <pt x="442" y="858" on="1"/>
        <pt x="420" y="858" on="0"/>
        <pt x="370" y="822" on="1"/>
        <pt x="353" y="809" on="1"/>
        <pt x="351" y="863" on="1"/>
        <pt x="418" y="923" on="0"/>
        <pt x="456" y="923" on="1"/>
        <pt x="483" y="923" on="0"/>
        <pt x="584" y="868" on="0"/>
        <pt x="594" y="868" on="1"/>
        <pt x="614" y="868" on="0"/>
        <pt x="662" y="902" on="1"/>
        <pt x="678" y="914" on="1"/>
        <pt x="681" y="861" on="1"/>
        <pt x="618" y="802" on="0"/>
      </contour>
      <contour>
        <pt x="193" y="123" on="0"/>
        <pt x="257" y="58" on="0"/>
        <pt x="402" y="58" on="0"/>
        <pt x="451" y="98" on="1"/>
        <pt x="519" y="154" on="0"/>
        <pt x="592" y="378" on="0"/>
        <pt x="592" y="490" on="1"/>
        <pt x="592" y="565" on="0"/>
        <pt x="525" y="634" on="0"/>
        <pt x="388" y="634" on="0"/>
        <pt x="342" y="597" on="1"/>
        <pt x="273" y="540" on="0"/>
        <pt x="193" y="308" on="0"/>
      </contour>
      <contour>
        <pt x="672" y="360" on="0"/>
        <pt x="587" y="118" on="0"/>
        <pt x="431" y="-10" on="0"/>
        <pt x="216" y="-10" on="0"/>
        <pt x="114" y="87" on="0"/>
        <pt x="114" y="325" on="0"/>
        <pt x="197" y="561" on="0"/>
        <pt x="351" y="702" on="0"/>
        <pt x="457" y="702" on="1"/>
        <pt x="672" y="702" on="0"/>
        <pt x="672" y="495" on="1"/>
      </contour>
    </TTGlyph>
    <TTGlyph name="P" xMin="78" yMin="0" xMax="627" yMax="692">
      <contour>
        <pt x="359" y="232" on="1"/>
        <pt x="208" y="232" on="1"/>
        <pt x="154" y="0" on="1"/>
        <pt x="78" y="0" on="1"/>
        <pt x="238" y="692" on="1"/>
        <pt x="456" y="692" on="1"/>
        <pt x="545" y="692" on="0"/>
        <pt x="627" y="611" on="0"/>
        <pt x="627" y="528" on="1"/>
        <pt x="627" y="395" on="0"/>
        <pt x="486" y="232" on="0"/>
      </contour>
      <contour>
        <pt x="371" y="300" on="1"/>
        <pt x="456" y="300" on="0"/>
        <pt x="547" y="428" on="0"/>
        <pt x="547" y="527" on="1"/>
        <pt x="547" y="576" on="0"/>
        <pt x="500" y="624" on="0"/>
        <pt x="447" y="624" on="1"/>
        <pt x="298" y="624" on="1"/>
        <pt x="224" y="300" on="1"/>
      </contour>
    </TTGlyph>
    <TTGlyph name="Q" xMin="114" yMin="-145" xMax="672" yMax="702">
      <contour>
        <pt x="326" y="-10" on="1"/>
        <pt x="216" y="-10" on="0"/>
        <pt x="114" y="87" on="0"/>
        <pt x="114" y="325" on="0"/>
        <pt x="197" y="561" on="0"/>
        <pt x="351" y="702" on="0"/>
        <pt x="457" y="702" on="1"/>
        <pt x="672" y="702" on="0"/>
        <pt x="672" y="495" on="1"/>
        <pt x="672" y="360" on="0"/>
        <pt x="587" y="118" on="0"/>
        <pt x="506" y="51" on="1"/>
        <pt x="486" y="34" on="0"/>
        <pt x="460" y="21" on="1"/>
        <pt x="508" y="-121" on="1"/>
        <pt x="435" y="-145" on="1"/>
        <pt x="390" y="-3" on="1"/>
        <pt x="355" y="-10" on="0"/>
      </contour>
      <contour>
        <pt x="193" y="123" on="0"/>
        <pt x="257" y="58" on="0"/>
        <pt x="402" y="58" on="0"/>
        <pt x="451" y="98" on="1"/>
        <pt x="519" y="154" on="0"/>
        <pt x="592" y="378" on="0"/>
        <pt x="592" y="490" on="1"/>
        <pt x="592" y="565" on="0"/>
        <pt x="525" y="634" on="0"/>
        <pt x="388" y="634" on="0"/>
        <pt x="342" y="597" on="1"/>
        <pt x="273" y="540" on="0"/>
        <pt x="193" y="308" on="0"/>
      </contour>
    </TTGlyph>
    <TTGlyph name="R" xMin="78" yMin="0" xMax="629" yMax="692">
      <contour>
        <pt x="449" y="692" on="1"/>
        <pt x="540" y="692" on="0"/>
        <pt x="629" y="614" on="0"/>
        <pt x="629" y="417" on="0"/>
        <pt x="522" y="289" on="0"/>
        <pt x="451" y="269" on="1"/>
        <pt x="527" y="0" on="1"/>
        <pt x="450" y="0" on="1"/>
        <pt x="379" y="259" on="1"/>
        <pt x="215" y="259" on="1"/>
        <pt x="154" y="0" on="1"/>
        <pt x="78" y="0" on="1"/>
        <pt x="238" y="692" on="1"/>
      </contour>
      <contour>
        <pt x="549" y="523" on="1"/>
        <pt x="549" y="579" on="0"/>
        <pt x="499" y="625" on="0"/>
        <pt x="441" y="625" on="1"/>
        <pt x="299" y="625" on="1"/>
        <pt x="230" y="326" on="1"/>
        <pt x="377" y="326" on="1"/>
        <pt x="455" y="326" on="0"/>
        <pt x="549" y="436" on="0"/>
      </contour>
    </TTGlyph>
    <TTGlyph name="Racute" xMin="78" yMin="0" xMax="629" yMax="936">
      <contour>
        <pt x="629" y="417" on="0"/>
        <pt x="522" y="289" on="0"/>
        <pt x="451" y="269" on="1"/>
        <pt x="527" y="0" on="1"/>
        <pt x="450" y="0" on="1"/>
        <pt x="379" y="259" on="1"/>
        <pt x="215" y="259" on="1"/>
        <pt x="154" y="0" on="1"/>
        <pt x="78" y="0" on="1"/>
        <pt x="238" y="692" on="1"/>
        <pt x="449" y="692" on="1"/>
        <pt x="540" y="692" on="0"/>
        <pt x="629" y="614" on="0"/>
      </contour>
      <contour>
        <pt x="549" y="523" on="1"/>
        <pt x="549" y="579" on="0"/>
        <pt x="499" y="625" on="0"/>
        <pt x="441" y="625" on="1"/>
        <pt x="299" y="625" on="1"/>
        <pt x="230" y="326" on="1"/>
        <pt x="377" y="326" on="1"/>
        <pt x="455" y="326" on="0"/>
        <pt x="549" y="436" on="0"/>
      </contour>
      <contour>
        <pt x="357" y="785" on="1"/>
        <pt x="348" y="842" on="1"/>
        <pt x="576" y="936" on="1"/>
        <pt x="585" y="871" on="1"/>
      </contour>
    </TTGlyph>
    <TTGlyph name="Rcaron" xMin="78" yMin="0" xMax="629" yMax="926">
      <contour>
        <pt x="614" y="926" on="1"/>
        <pt x="457" y="789" on="1"/>
        <pt x="410" y="789" on="1"/>
        <pt x="312" y="926" on="1"/>
        <pt x="386" y="926" on="1"/>
        <pt x="444" y="844" on="1"/>
        <pt x="537" y="926" on="1"/>
      </contour>
      <contour>
        <pt x="629" y="417" on="0"/>
        <pt x="522" y="289" on="0"/>
        <pt x="451" y="269" on="1"/>
        <pt x="527" y="0" on="1"/>
        <pt x="450" y="0" on="1"/>
        <pt x="379" y="259" on="1"/>
        <pt x="215" y="259" on="1"/>
        <pt x="154" y="0" on="1"/>
        <pt x="78" y="0" on="1"/>
        <pt x="238" y="692" on="1"/>
        <pt x="449" y="692" on="1"/>
        <pt x="540" y="692" on="0"/>
        <pt x="629" y="614" on="0"/>
      </contour>
      <contour>
        <pt x="549" y="523" on="1"/>
        <pt x="549" y="579" on="0"/>
        <pt x="499" y="625" on="0"/>
        <pt x="441" y="625" on="1"/>
        <pt x="299" y="625" on="1"/>
        <pt x="230" y="326" on="1"/>
        <pt x="377" y="326" on="1"/>
        <pt x="455" y="326" on="0"/>
        <pt x="549" y="436" on="0"/>
      </contour>
    </TTGlyph>
    <TTGlyph name="Rcommaaccent" xMin="78" yMin="-283" xMax="629" yMax="692">
      <contour>
        <pt x="164" y="-283" on="1"/>
        <pt x="251" y="-73" on="1"/>
        <pt x="321" y="-73" on="1"/>
        <pt x="225" y="-283" on="1"/>
      </contour>
      <contour>
        <pt x="449" y="692" on="1"/>
        <pt x="540" y="692" on="0"/>
        <pt x="629" y="614" on="0"/>
        <pt x="629" y="417" on="0"/>
        <pt x="522" y="289" on="0"/>
        <pt x="451" y="269" on="1"/>
        <pt x="527" y="0" on="1"/>
        <pt x="450" y="0" on="1"/>
        <pt x="379" y="259" on="1"/>
        <pt x="215" y="259" on="1"/>
        <pt x="154" y="0" on="1"/>
        <pt x="78" y="0" on="1"/>
        <pt x="238" y="692" on="1"/>
      </contour>
      <contour>
        <pt x="549" y="523" on="1"/>
        <pt x="549" y="579" on="0"/>
        <pt x="499" y="625" on="0"/>
        <pt x="441" y="625" on="1"/>
        <pt x="299" y="625" on="1"/>
        <pt x="230" y="326" on="1"/>
        <pt x="377" y="326" on="1"/>
        <pt x="455" y="326" on="0"/>
        <pt x="549" y="436" on="0"/>
      </contour>
    </TTGlyph>
    <TTGlyph name="S" xMin="56" yMin="-10" xMax="590" yMax="702">
      <contour>
        <pt x="577" y="617" on="1"/>
        <pt x="471" y="635" on="0"/>
        <pt x="325" y="635" on="0"/>
        <pt x="240" y="560" on="0"/>
        <pt x="240" y="489" on="1"/>
        <pt x="240" y="449" on="0"/>
        <pt x="289" y="413" on="0"/>
        <pt x="444" y="358" on="0"/>
        <pt x="505" y="294" on="0"/>
        <pt x="505" y="229" on="1"/>
        <pt x="505" y="117" on="0"/>
        <pt x="371" y="-10" on="0"/>
        <pt x="257" y="-10" on="1"/>
        <pt x="172" y="-10" on="0"/>
        <pt x="85" y="10" on="1"/>
        <pt x="56" y="16" on="1"/>
        <pt x="69" y="76" on="1"/>
        <pt x="185" y="58" on="0"/>
        <pt x="339" y="58" on="0"/>
        <pt x="426" y="143" on="0"/>
        <pt x="426" y="222" on="1"/>
        <pt x="426" y="263" on="0"/>
        <pt x="382" y="302" on="0"/>
        <pt x="232" y="354" on="0"/>
        <pt x="162" y="418" on="0"/>
        <pt x="162" y="483" on="1"/>
        <pt x="162" y="585" on="0"/>
        <pt x="293" y="702" on="0"/>
        <pt x="404" y="702" on="1"/>
        <pt x="486" y="702" on="0"/>
        <pt x="564" y="681" on="1"/>
        <pt x="590" y="674" on="1"/>
      </contour>
    </TTGlyph>
    <TTGlyph name="Sacute" xMin="56" yMin="-10" xMax="590" yMax="936">
      <contour>
        <pt x="577" y="617" on="1"/>
        <pt x="471" y="635" on="0"/>
        <pt x="325" y="635" on="0"/>
        <pt x="240" y="560" on="0"/>
        <pt x="240" y="489" on="1"/>
        <pt x="240" y="449" on="0"/>
        <pt x="289" y="413" on="0"/>
        <pt x="444" y="358" on="0"/>
        <pt x="505" y="294" on="0"/>
        <pt x="505" y="229" on="1"/>
        <pt x="505" y="117" on="0"/>
        <pt x="371" y="-10" on="0"/>
        <pt x="257" y="-10" on="1"/>
        <pt x="172" y="-10" on="0"/>
        <pt x="85" y="10" on="1"/>
        <pt x="56" y="16" on="1"/>
        <pt x="69" y="76" on="1"/>
        <pt x="185" y="58" on="0"/>
        <pt x="339" y="58" on="0"/>
        <pt x="426" y="143" on="0"/>
        <pt x="426" y="222" on="1"/>
        <pt x="426" y="263" on="0"/>
        <pt x="382" y="302" on="0"/>
        <pt x="232" y="354" on="0"/>
        <pt x="162" y="418" on="0"/>
        <pt x="162" y="483" on="1"/>
        <pt x="162" y="585" on="0"/>
        <pt x="293" y="702" on="0"/>
        <pt x="404" y="702" on="1"/>
        <pt x="486" y="702" on="0"/>
        <pt x="564" y="681" on="1"/>
        <pt x="590" y="674" on="1"/>
      </contour>
      <contour>
        <pt x="352" y="785" on="1"/>
        <pt x="343" y="842" on="1"/>
        <pt x="571" y="936" on="1"/>
        <pt x="580" y="871" on="1"/>
      </contour>
    </TTGlyph>
    <TTGlyph name="Scaron" xMin="56" yMin="-10" xMax="621" yMax="929">
      <contour>
        <pt x="621" y="929" on="1"/>
        <pt x="464" y="792" on="1"/>
        <pt x="417" y="792" on="1"/>
        <pt x="319" y="929" on="1"/>
        <pt x="393" y="929" on="1"/>
        <pt x="451" y="847" on="1"/>
        <pt x="544" y="929" on="1"/>
      </contour>
      <contour>
        <pt x="577" y="617" on="1"/>
        <pt x="471" y="635" on="0"/>
        <pt x="325" y="635" on="0"/>
        <pt x="240" y="560" on="0"/>
        <pt x="240" y="489" on="1"/>
        <pt x="240" y="449" on="0"/>
        <pt x="289" y="413" on="0"/>
        <pt x="444" y="358" on="0"/>
        <pt x="505" y="294" on="0"/>
        <pt x="505" y="229" on="1"/>
        <pt x="505" y="117" on="0"/>
        <pt x="371" y="-10" on="0"/>
        <pt x="257" y="-10" on="1"/>
        <pt x="172" y="-10" on="0"/>
        <pt x="85" y="10" on="1"/>
        <pt x="56" y="16" on="1"/>
        <pt x="69" y="76" on="1"/>
        <pt x="185" y="58" on="0"/>
        <pt x="339" y="58" on="0"/>
        <pt x="426" y="143" on="0"/>
        <pt x="426" y="222" on="1"/>
        <pt x="426" y="263" on="0"/>
        <pt x="382" y="302" on="0"/>
        <pt x="232" y="354" on="0"/>
        <pt x="162" y="418" on="0"/>
        <pt x="162" y="483" on="1"/>
        <pt x="162" y="585" on="0"/>
        <pt x="293" y="702" on="0"/>
        <pt x="404" y="702" on="1"/>
        <pt x="486" y="702" on="0"/>
        <pt x="564" y="681" on="1"/>
        <pt x="590" y="674" on="1"/>
      </contour>
    </TTGlyph>
    <TTGlyph name="Scedilla" xMin="56" yMin="-211" xMax="590" yMax="702">
      <contour>
        <pt x="261" y="-45" on="1"/>
        <pt x="346" y="-45" on="0"/>
        <pt x="346" y="-100" on="1"/>
        <pt x="346" y="-111" on="0"/>
        <pt x="343" y="-124" on="1"/>
        <pt x="324" y="-211" on="0"/>
        <pt x="235" y="-211" on="1"/>
        <pt x="192" y="-211" on="0"/>
        <pt x="166" y="-206" on="1"/>
        <pt x="155" y="-204" on="1"/>
        <pt x="168" y="-153" on="1"/>
        <pt x="205" y="-156" on="0"/>
        <pt x="230" y="-156" on="1"/>
        <pt x="271" y="-156" on="0"/>
        <pt x="281" y="-120" on="1"/>
        <pt x="286" y="-101" on="0"/>
        <pt x="267" y="-87" on="0"/>
        <pt x="247" y="-87" on="1"/>
        <pt x="208" y="-87" on="1"/>
        <pt x="225" y="-9" on="1"/>
        <pt x="145" y="-5" on="0"/>
        <pt x="80" y="10" on="1"/>
        <pt x="56" y="16" on="1"/>
        <pt x="69" y="76" on="1"/>
        <pt x="185" y="58" on="0"/>
        <pt x="339" y="58" on="0"/>
        <pt x="426" y="143" on="0"/>
        <pt x="426" y="222" on="1"/>
        <pt x="426" y="263" on="0"/>
        <pt x="382" y="302" on="0"/>
        <pt x="232" y="354" on="0"/>
        <pt x="162" y="418" on="0"/>
        <pt x="162" y="483" on="1"/>
        <pt x="162" y="585" on="0"/>
        <pt x="293" y="702" on="0"/>
        <pt x="404" y="702" on="1"/>
        <pt x="486" y="702" on="0"/>
        <pt x="564" y="681" on="1"/>
        <pt x="590" y="674" on="1"/>
        <pt x="577" y="617" on="1"/>
        <pt x="471" y="635" on="0"/>
        <pt x="325" y="635" on="0"/>
        <pt x="240" y="560" on="0"/>
        <pt x="240" y="489" on="1"/>
        <pt x="240" y="449" on="0"/>
        <pt x="289" y="413" on="0"/>
        <pt x="444" y="358" on="0"/>
        <pt x="505" y="294" on="0"/>
        <pt x="505" y="229" on="1"/>
        <pt x="505" y="119" on="0"/>
        <pt x="375" y="-8" on="0"/>
        <pt x="265" y="-10" on="1"/>
        <pt x="256" y="-45" on="1"/>
      </contour>
    </TTGlyph>
    <TTGlyph name="Scircumflex" xMin="56" yMin="-10" xMax="590" yMax="931">
      <contour>
        <pt x="577" y="617" on="1"/>
        <pt x="471" y="635" on="0"/>
        <pt x="325" y="635" on="0"/>
        <pt x="240" y="560" on="0"/>
        <pt x="240" y="489" on="1"/>
        <pt x="240" y="449" on="0"/>
        <pt x="289" y="413" on="0"/>
        <pt x="444" y="358" on="0"/>
        <pt x="505" y="294" on="0"/>
        <pt x="505" y="229" on="1"/>
        <pt x="505" y="117" on="0"/>
        <pt x="371" y="-10" on="0"/>
        <pt x="257" y="-10" on="1"/>
        <pt x="172" y="-10" on="0"/>
        <pt x="85" y="10" on="1"/>
        <pt x="56" y="16" on="1"/>
        <pt x="69" y="76" on="1"/>
        <pt x="185" y="58" on="0"/>
        <pt x="339" y="58" on="0"/>
        <pt x="426" y="143" on="0"/>
        <pt x="426" y="222" on="1"/>
        <pt x="426" y="263" on="0"/>
        <pt x="382" y="302" on="0"/>
        <pt x="232" y="354" on="0"/>
        <pt x="162" y="418" on="0"/>
        <pt x="162" y="483" on="1"/>
        <pt x="162" y="585" on="0"/>
        <pt x="293" y="702" on="0"/>
        <pt x="404" y="702" on="1"/>
        <pt x="486" y="702" on="0"/>
        <pt x="564" y="681" on="1"/>
        <pt x="590" y="674" on="1"/>
      </contour>
      <contour>
        <pt x="279" y="793" on="1"/>
        <pt x="443" y="931" on="1"/>
        <pt x="484" y="931" on="1"/>
        <pt x="580" y="793" on="1"/>
        <pt x="511" y="793" on="1"/>
        <pt x="457" y="874" on="1"/>
        <pt x="361" y="793" on="1"/>
      </contour>
    </TTGlyph>
    <TTGlyph name="Scommaaccent" xMin="56" yMin="-283" xMax="590" yMax="702">
      <contour>
        <pt x="211" y="-73" on="1"/>
        <pt x="281" y="-73" on="1"/>
        <pt x="185" y="-283" on="1"/>
        <pt x="124" y="-283" on="1"/>
      </contour>
      <contour>
        <pt x="577" y="617" on="1"/>
        <pt x="471" y="635" on="0"/>
        <pt x="325" y="635" on="0"/>
        <pt x="240" y="560" on="0"/>
        <pt x="240" y="489" on="1"/>
        <pt x="240" y="449" on="0"/>
        <pt x="289" y="413" on="0"/>
        <pt x="444" y="358" on="0"/>
        <pt x="505" y="294" on="0"/>
        <pt x="505" y="229" on="1"/>
        <pt x="505" y="117" on="0"/>
        <pt x="371" y="-10" on="0"/>
        <pt x="257" y="-10" on="1"/>
        <pt x="172" y="-10" on="0"/>
        <pt x="85" y="10" on="1"/>
        <pt x="56" y="16" on="1"/>
        <pt x="69" y="76" on="1"/>
        <pt x="185" y="58" on="0"/>
        <pt x="339" y="58" on="0"/>
        <pt x="426" y="143" on="0"/>
        <pt x="426" y="222" on="1"/>
        <pt x="426" y="263" on="0"/>
        <pt x="382" y="302" on="0"/>
        <pt x="232" y="354" on="0"/>
        <pt x="162" y="418" on="0"/>
        <pt x="162" y="483" on="1"/>
        <pt x="162" y="585" on="0"/>
        <pt x="293" y="702" on="0"/>
        <pt x="404" y="702" on="1"/>
        <pt x="486" y="702" on="0"/>
        <pt x="564" y="681" on="1"/>
        <pt x="590" y="674" on="1"/>
      </contour>
    </TTGlyph>
    <TTGlyph name="T" xMin="154" yMin="0" xMax="617" yMax="692">
      <contour>
        <pt x="154" y="624" on="1"/>
        <pt x="170" y="692" on="1"/>
        <pt x="617" y="692" on="1"/>
        <pt x="601" y="624" on="1"/>
        <pt x="415" y="624" on="1"/>
        <pt x="271" y="0" on="1"/>
        <pt x="195" y="0" on="1"/>
        <pt x="339" y="624" on="1"/>
      </contour>
    </TTGlyph>
    <TTGlyph name="Tbar" xMin="114" yMin="0" xMax="619" yMax="692">
      <contour>
        <pt x="156" y="624" on="1"/>
        <pt x="172" y="692" on="1"/>
        <pt x="619" y="692" on="1"/>
        <pt x="603" y="624" on="1"/>
        <pt x="417" y="624" on="1"/>
        <pt x="357" y="365" on="1"/>
        <pt x="513" y="365" on="1"/>
        <pt x="495" y="295" on="1"/>
        <pt x="341" y="295" on="1"/>
        <pt x="273" y="0" on="1"/>
        <pt x="197" y="0" on="1"/>
        <pt x="265" y="295" on="1"/>
        <pt x="114" y="295" on="1"/>
        <pt x="130" y="365" on="1"/>
        <pt x="281" y="365" on="1"/>
        <pt x="341" y="624" on="1"/>
      </contour>
    </TTGlyph>
    <TTGlyph name="Tcaron" xMin="154" yMin="0" xMax="617" yMax="926">
      <contour>
        <pt x="584" y="926" on="1"/>
        <pt x="427" y="789" on="1"/>
        <pt x="380" y="789" on="1"/>
        <pt x="282" y="926" on="1"/>
        <pt x="356" y="926" on="1"/>
        <pt x="414" y="844" on="1"/>
        <pt x="507" y="926" on="1"/>
      </contour>
      <contour>
        <pt x="154" y="624" on="1"/>
        <pt x="170" y="692" on="1"/>
        <pt x="617" y="692" on="1"/>
        <pt x="601" y="624" on="1"/>
        <pt x="415" y="624" on="1"/>
        <pt x="271" y="0" on="1"/>
        <pt x="195" y="0" on="1"/>
        <pt x="339" y="624" on="1"/>
      </contour>
    </TTGlyph>
    <TTGlyph name="Tcedilla" xMin="141" yMin="-211" xMax="617" yMax="692">
      <contour>
        <pt x="247" y="-45" on="1"/>
        <pt x="332" y="-45" on="0"/>
        <pt x="332" y="-100" on="1"/>
        <pt x="332" y="-111" on="0"/>
        <pt x="329" y="-124" on="1"/>
        <pt x="310" y="-211" on="0"/>
        <pt x="221" y="-211" on="1"/>
        <pt x="178" y="-211" on="0"/>
        <pt x="152" y="-206" on="1"/>
        <pt x="141" y="-204" on="1"/>
        <pt x="154" y="-153" on="1"/>
        <pt x="191" y="-156" on="0"/>
        <pt x="216" y="-156" on="1"/>
        <pt x="257" y="-156" on="0"/>
        <pt x="267" y="-120" on="1"/>
        <pt x="272" y="-101" on="0"/>
        <pt x="253" y="-87" on="0"/>
        <pt x="233" y="-87" on="1"/>
        <pt x="194" y="-87" on="1"/>
        <pt x="214" y="0" on="1"/>
        <pt x="195" y="0" on="1"/>
        <pt x="339" y="624" on="1"/>
        <pt x="154" y="624" on="1"/>
        <pt x="170" y="692" on="1"/>
        <pt x="617" y="692" on="1"/>
        <pt x="601" y="624" on="1"/>
        <pt x="415" y="624" on="1"/>
        <pt x="271" y="0" on="1"/>
        <pt x="253" y="0" on="1"/>
        <pt x="242" y="-45" on="1"/>
      </contour>
    </TTGlyph>
    <TTGlyph name="Tcommaaccent" xMin="99" yMin="-283" xMax="617" yMax="692">
      <contour>
        <pt x="186" y="-73" on="1"/>
        <pt x="256" y="-73" on="1"/>
        <pt x="160" y="-283" on="1"/>
        <pt x="99" y="-283" on="1"/>
      </contour>
      <contour>
        <pt x="154" y="624" on="1"/>
        <pt x="170" y="692" on="1"/>
        <pt x="617" y="692" on="1"/>
        <pt x="601" y="624" on="1"/>
        <pt x="415" y="624" on="1"/>
        <pt x="271" y="0" on="1"/>
        <pt x="195" y="0" on="1"/>
        <pt x="339" y="624" on="1"/>
      </contour>
    </TTGlyph>
    <TTGlyph name="Thorn" xMin="76" yMin="0" xMax="606" yMax="696">
      <contour>
        <pt x="354" y="194" on="1"/>
        <pt x="481" y="194" on="0"/>
        <pt x="523" y="359" on="1"/>
        <pt x="531" y="389" on="0"/>
        <pt x="531" y="445" on="0"/>
        <pt x="519" y="468" on="1"/>
        <pt x="498" y="510" on="0"/>
        <pt x="425" y="511" on="1"/>
        <pt x="270" y="512" on="1"/>
        <pt x="195" y="194" on="1"/>
      </contour>
      <contour>
        <pt x="442" y="585" on="1"/>
        <pt x="544" y="585" on="0"/>
        <pt x="582" y="522" on="1"/>
        <pt x="606" y="481" on="0"/>
        <pt x="606" y="395" on="0"/>
        <pt x="598" y="359" on="1"/>
        <pt x="574" y="249" on="0"/>
        <pt x="440" y="120" on="0"/>
        <pt x="340" y="120" on="1"/>
        <pt x="339" y="120" on="0"/>
        <pt x="337" y="120" on="1"/>
        <pt x="178" y="120" on="1"/>
        <pt x="150" y="0" on="1"/>
        <pt x="76" y="0" on="1"/>
        <pt x="240" y="696" on="1"/>
        <pt x="314" y="696" on="1"/>
        <pt x="287" y="585" on="1"/>
      </contour>
    </TTGlyph>
    <TTGlyph name="U" xMin="113" yMin="-10" xMax="681" yMax="692">
      <contour>
        <pt x="189" y="144" on="1"/>
        <pt x="189" y="58" on="0"/>
        <pt x="317" y="58" on="1"/>
        <pt x="396" y="58" on="0"/>
        <pt x="475" y="132" on="0"/>
        <pt x="493" y="211" on="1"/>
        <pt x="604" y="692" on="1"/>
        <pt x="681" y="692" on="1"/>
        <pt x="570" y="211" on="1"/>
        <pt x="544" y="97" on="0"/>
        <pt x="423" y="-10" on="0"/>
        <pt x="320" y="-10" on="1"/>
        <pt x="113" y="-10" on="0"/>
        <pt x="113" y="134" on="1"/>
        <pt x="113" y="183" on="0"/>
        <pt x="124" y="225" on="1"/>
        <pt x="232" y="692" on="1"/>
        <pt x="309" y="692" on="1"/>
        <pt x="199" y="217" on="1"/>
        <pt x="189" y="177" on="0"/>
      </contour>
    </TTGlyph>
    <TTGlyph name="Uacute" xMin="113" yMin="-10" xMax="681" yMax="936">
      <contour>
        <pt x="189" y="144" on="1"/>
        <pt x="189" y="58" on="0"/>
        <pt x="317" y="58" on="1"/>
        <pt x="396" y="58" on="0"/>
        <pt x="475" y="132" on="0"/>
        <pt x="493" y="211" on="1"/>
        <pt x="604" y="692" on="1"/>
        <pt x="681" y="692" on="1"/>
        <pt x="570" y="211" on="1"/>
        <pt x="544" y="97" on="0"/>
        <pt x="423" y="-10" on="0"/>
        <pt x="320" y="-10" on="1"/>
        <pt x="113" y="-10" on="0"/>
        <pt x="113" y="134" on="1"/>
        <pt x="113" y="183" on="0"/>
        <pt x="124" y="225" on="1"/>
        <pt x="232" y="692" on="1"/>
        <pt x="309" y="692" on="1"/>
        <pt x="199" y="217" on="1"/>
        <pt x="189" y="177" on="0"/>
      </contour>
      <contour>
        <pt x="386" y="785" on="1"/>
        <pt x="377" y="842" on="1"/>
        <pt x="605" y="936" on="1"/>
        <pt x="614" y="871" on="1"/>
      </contour>
    </TTGlyph>
    <TTGlyph name="Ubreve" xMin="113" yMin="-10" xMax="681" yMax="923">
      <contour>
        <pt x="466" y="796" on="1"/>
        <pt x="351" y="796" on="0"/>
        <pt x="351" y="893" on="1"/>
        <pt x="351" y="907" on="0"/>
        <pt x="354" y="923" on="1"/>
        <pt x="420" y="923" on="1"/>
        <pt x="418" y="913" on="0"/>
        <pt x="418" y="882" on="0"/>
        <pt x="445" y="856" on="0"/>
        <pt x="510" y="856" on="0"/>
        <pt x="561" y="893" on="0"/>
        <pt x="570" y="923" on="1"/>
        <pt x="636" y="923" on="1"/>
        <pt x="599" y="796" on="0"/>
      </contour>
      <contour>
        <pt x="189" y="144" on="1"/>
        <pt x="189" y="58" on="0"/>
        <pt x="317" y="58" on="1"/>
        <pt x="396" y="58" on="0"/>
        <pt x="475" y="132" on="0"/>
        <pt x="493" y="211" on="1"/>
        <pt x="604" y="692" on="1"/>
        <pt x="681" y="692" on="1"/>
        <pt x="570" y="211" on="1"/>
        <pt x="544" y="97" on="0"/>
        <pt x="423" y="-10" on="0"/>
        <pt x="320" y="-10" on="1"/>
        <pt x="113" y="-10" on="0"/>
        <pt x="113" y="134" on="1"/>
        <pt x="113" y="183" on="0"/>
        <pt x="124" y="225" on="1"/>
        <pt x="232" y="692" on="1"/>
        <pt x="309" y="692" on="1"/>
        <pt x="199" y="217" on="1"/>
        <pt x="189" y="177" on="0"/>
      </contour>
    </TTGlyph>
    <TTGlyph name="Ucircumflex" xMin="113" yMin="-10" xMax="681" yMax="931">
      <contour>
        <pt x="189" y="144" on="1"/>
        <pt x="189" y="58" on="0"/>
        <pt x="317" y="58" on="1"/>
        <pt x="396" y="58" on="0"/>
        <pt x="475" y="132" on="0"/>
        <pt x="493" y="211" on="1"/>
        <pt x="604" y="692" on="1"/>
        <pt x="681" y="692" on="1"/>
        <pt x="570" y="211" on="1"/>
        <pt x="544" y="97" on="0"/>
        <pt x="423" y="-10" on="0"/>
        <pt x="320" y="-10" on="1"/>
        <pt x="113" y="-10" on="0"/>
        <pt x="113" y="134" on="1"/>
        <pt x="113" y="183" on="0"/>
        <pt x="124" y="225" on="1"/>
        <pt x="232" y="692" on="1"/>
        <pt x="309" y="692" on="1"/>
        <pt x="199" y="217" on="1"/>
        <pt x="189" y="177" on="0"/>
      </contour>
      <contour>
        <pt x="322" y="793" on="1"/>
        <pt x="486" y="931" on="1"/>
        <pt x="527" y="931" on="1"/>
        <pt x="623" y="793" on="1"/>
        <pt x="554" y="793" on="1"/>
        <pt x="500" y="874" on="1"/>
        <pt x="404" y="793" on="1"/>
      </contour>
    </TTGlyph>
    <TTGlyph name="Udieresis" xMin="113" yMin="-10" xMax="681" yMax="905">
      <contour>
        <pt x="345" y="812" on="1"/>
        <pt x="366" y="905" on="1"/>
        <pt x="435" y="905" on="1"/>
        <pt x="413" y="812" on="1"/>
      </contour>
      <contour>
        <pt x="534" y="812" on="1"/>
        <pt x="554" y="905" on="1"/>
        <pt x="623" y="905" on="1"/>
        <pt x="601" y="812" on="1"/>
      </contour>
      <contour>
        <pt x="189" y="144" on="1"/>
        <pt x="189" y="58" on="0"/>
        <pt x="317" y="58" on="1"/>
        <pt x="396" y="58" on="0"/>
        <pt x="475" y="132" on="0"/>
        <pt x="493" y="211" on="1"/>
        <pt x="604" y="692" on="1"/>
        <pt x="681" y="692" on="1"/>
        <pt x="570" y="211" on="1"/>
        <pt x="544" y="97" on="0"/>
        <pt x="423" y="-10" on="0"/>
        <pt x="320" y="-10" on="1"/>
        <pt x="113" y="-10" on="0"/>
        <pt x="113" y="134" on="1"/>
        <pt x="113" y="183" on="0"/>
        <pt x="124" y="225" on="1"/>
        <pt x="232" y="692" on="1"/>
        <pt x="309" y="692" on="1"/>
        <pt x="199" y="217" on="1"/>
        <pt x="189" y="177" on="0"/>
      </contour>
    </TTGlyph>
    <TTGlyph name="Ugrave" xMin="113" yMin="-10" xMax="681" yMax="930">
      <contour>
        <pt x="393" y="930" on="1"/>
        <pt x="578" y="836" on="1"/>
        <pt x="544" y="780" on="1"/>
        <pt x="356" y="866" on="1"/>
      </contour>
      <contour>
        <pt x="189" y="144" on="1"/>
        <pt x="189" y="58" on="0"/>
        <pt x="317" y="58" on="1"/>
        <pt x="396" y="58" on="0"/>
        <pt x="475" y="132" on="0"/>
        <pt x="493" y="211" on="1"/>
        <pt x="604" y="692" on="1"/>
        <pt x="681" y="692" on="1"/>
        <pt x="570" y="211" on="1"/>
        <pt x="544" y="97" on="0"/>
        <pt x="423" y="-10" on="0"/>
        <pt x="320" y="-10" on="1"/>
        <pt x="113" y="-10" on="0"/>
        <pt x="113" y="134" on="1"/>
        <pt x="113" y="183" on="0"/>
        <pt x="124" y="225" on="1"/>
        <pt x="232" y="692" on="1"/>
        <pt x="309" y="692" on="1"/>
        <pt x="199" y="217" on="1"/>
        <pt x="189" y="177" on="0"/>
      </contour>
    </TTGlyph>
    <TTGlyph name="Uhungarumlaut" xMin="113" yMin="-10" xMax="717" yMax="917">
      <contour>
        <pt x="546" y="755" on="1"/>
        <pt x="504" y="785" on="1"/>
        <pt x="668" y="916" on="1"/>
        <pt x="717" y="884" on="1"/>
      </contour>
      <contour>
        <pt x="357" y="756" on="1"/>
        <pt x="314" y="785" on="1"/>
        <pt x="480" y="917" on="1"/>
        <pt x="526" y="885" on="1"/>
      </contour>
      <contour>
        <pt x="189" y="144" on="1"/>
        <pt x="189" y="58" on="0"/>
        <pt x="317" y="58" on="1"/>
        <pt x="396" y="58" on="0"/>
        <pt x="475" y="132" on="0"/>
        <pt x="493" y="211" on="1"/>
        <pt x="604" y="692" on="1"/>
        <pt x="681" y="692" on="1"/>
        <pt x="570" y="211" on="1"/>
        <pt x="544" y="97" on="0"/>
        <pt x="423" y="-10" on="0"/>
        <pt x="320" y="-10" on="1"/>
        <pt x="113" y="-10" on="0"/>
        <pt x="113" y="134" on="1"/>
        <pt x="113" y="183" on="0"/>
        <pt x="124" y="225" on="1"/>
        <pt x="232" y="692" on="1"/>
        <pt x="309" y="692" on="1"/>
        <pt x="199" y="217" on="1"/>
        <pt x="189" y="177" on="0"/>
      </contour>
    </TTGlyph>
    <TTGlyph name="Umacron" xMin="113" yMin="-10" xMax="681" yMax="883">
      <contour>
        <pt x="189" y="144" on="1"/>
        <pt x="189" y="58" on="0"/>
        <pt x="317" y="58" on="1"/>
        <pt x="396" y="58" on="0"/>
        <pt x="475" y="132" on="0"/>
        <pt x="493" y="211" on="1"/>
        <pt x="604" y="692" on="1"/>
        <pt x="681" y="692" on="1"/>
        <pt x="570" y="211" on="1"/>
        <pt x="544" y="97" on="0"/>
        <pt x="423" y="-10" on="0"/>
        <pt x="320" y="-10" on="1"/>
        <pt x="113" y="-10" on="0"/>
        <pt x="113" y="134" on="1"/>
        <pt x="113" y="183" on="0"/>
        <pt x="124" y="225" on="1"/>
        <pt x="232" y="692" on="1"/>
        <pt x="309" y="692" on="1"/>
        <pt x="199" y="217" on="1"/>
        <pt x="189" y="177" on="0"/>
      </contour>
      <contour>
        <pt x="331" y="823" on="1"/>
        <pt x="344" y="883" on="1"/>
        <pt x="638" y="883" on="1"/>
        <pt x="624" y="823" on="1"/>
      </contour>
    </TTGlyph>
    <TTGlyph name="Uogonek" xMin="114" yMin="-204" xMax="682" yMax="692">
      <contour>
        <pt x="293" y="-9" on="1"/>
        <pt x="315" y="9" on="0"/>
        <pt x="319" y="12" on="1"/>
        <pt x="382" y="4" on="1"/>
        <pt x="353" y="-19" on="0"/>
        <pt x="290" y="-93" on="0"/>
        <pt x="290" y="-117" on="1"/>
        <pt x="290" y="-137" on="0"/>
        <pt x="314" y="-137" on="1"/>
        <pt x="362" y="-132" on="1"/>
        <pt x="355" y="-195" on="1"/>
        <pt x="310" y="-204" on="0"/>
        <pt x="278" y="-204" on="1"/>
        <pt x="208" y="-204" on="0"/>
        <pt x="208" y="-141" on="1"/>
        <pt x="208" y="-87" on="0"/>
        <pt x="293" y="-9" on="1"/>
        <pt x="209" y="-6" on="0"/>
        <pt x="114" y="65" on="0"/>
        <pt x="114" y="134" on="1"/>
        <pt x="114" y="183" on="0"/>
        <pt x="125" y="225" on="1"/>
        <pt x="233" y="692" on="1"/>
        <pt x="310" y="692" on="1"/>
        <pt x="200" y="217" on="1"/>
        <pt x="190" y="177" on="0"/>
        <pt x="190" y="144" on="1"/>
        <pt x="190" y="58" on="0"/>
        <pt x="318" y="58" on="1"/>
        <pt x="397" y="58" on="0"/>
        <pt x="476" y="132" on="0"/>
        <pt x="494" y="211" on="1"/>
        <pt x="605" y="692" on="1"/>
        <pt x="682" y="692" on="1"/>
        <pt x="571" y="211" on="1"/>
        <pt x="545" y="97" on="0"/>
        <pt x="424" y="-10" on="0"/>
        <pt x="312" y="-10" on="1"/>
        <pt x="308" y="-10" on="0"/>
        <pt x="296" y="-9" on="0"/>
      </contour>
    </TTGlyph>
    <TTGlyph name="Uring" xMin="113" yMin="-10" xMax="681" yMax="941">
      <contour>
        <pt x="552" y="768" on="1"/>
        <pt x="518" y="741" on="0"/>
        <pt x="421" y="741" on="0"/>
        <pt x="398" y="768" on="1"/>
        <pt x="383" y="785" on="0"/>
        <pt x="383" y="824" on="0"/>
        <pt x="388" y="841" on="1"/>
        <pt x="401" y="891" on="0"/>
        <pt x="469" y="941" on="0"/>
        <pt x="564" y="941" on="0"/>
        <pt x="586" y="916" on="1"/>
        <pt x="601" y="900" on="0"/>
        <pt x="601" y="879" on="1"/>
        <pt x="601" y="807" on="0"/>
      </contour>
      <contour>
        <pt x="438" y="841" on="1"/>
        <pt x="436" y="834" on="0"/>
        <pt x="436" y="816" on="0"/>
        <pt x="455" y="793" on="0"/>
        <pt x="480" y="793" on="1"/>
        <pt x="535" y="793" on="0"/>
        <pt x="546" y="841" on="1"/>
        <pt x="547" y="848" on="0"/>
        <pt x="547" y="868" on="0"/>
        <pt x="527" y="889" on="0"/>
        <pt x="504" y="889" on="1"/>
        <pt x="450" y="889" on="0"/>
      </contour>
      <contour>
        <pt x="189" y="144" on="1"/>
        <pt x="189" y="58" on="0"/>
        <pt x="317" y="58" on="1"/>
        <pt x="396" y="58" on="0"/>
        <pt x="475" y="132" on="0"/>
        <pt x="493" y="211" on="1"/>
        <pt x="604" y="692" on="1"/>
        <pt x="681" y="692" on="1"/>
        <pt x="570" y="211" on="1"/>
        <pt x="544" y="97" on="0"/>
        <pt x="423" y="-10" on="0"/>
        <pt x="320" y="-10" on="1"/>
        <pt x="113" y="-10" on="0"/>
        <pt x="113" y="134" on="1"/>
        <pt x="113" y="183" on="0"/>
        <pt x="124" y="225" on="1"/>
        <pt x="232" y="692" on="1"/>
        <pt x="309" y="692" on="1"/>
        <pt x="199" y="217" on="1"/>
        <pt x="189" y="177" on="0"/>
      </contour>
    </TTGlyph>
    <TTGlyph name="Utilde" xMin="113" yMin="-10" xMax="681" yMax="923">
      <contour>
        <pt x="550" y="802" on="1"/>
        <pt x="526" y="802" on="0"/>
        <pt x="424" y="858" on="0"/>
        <pt x="412" y="858" on="1"/>
        <pt x="389" y="858" on="0"/>
        <pt x="339" y="822" on="1"/>
        <pt x="322" y="809" on="1"/>
        <pt x="320" y="863" on="1"/>
        <pt x="387" y="923" on="0"/>
        <pt x="425" y="923" on="1"/>
        <pt x="452" y="923" on="0"/>
        <pt x="553" y="868" on="0"/>
        <pt x="564" y="868" on="1"/>
        <pt x="583" y="868" on="0"/>
        <pt x="631" y="902" on="1"/>
        <pt x="647" y="914" on="1"/>
        <pt x="650" y="861" on="1"/>
        <pt x="587" y="802" on="0"/>
      </contour>
      <contour>
        <pt x="189" y="144" on="1"/>
        <pt x="189" y="58" on="0"/>
        <pt x="317" y="58" on="1"/>
        <pt x="396" y="58" on="0"/>
        <pt x="475" y="132" on="0"/>
        <pt x="493" y="211" on="1"/>
        <pt x="604" y="692" on="1"/>
        <pt x="681" y="692" on="1"/>
        <pt x="570" y="211" on="1"/>
        <pt x="544" y="97" on="0"/>
        <pt x="423" y="-10" on="0"/>
        <pt x="320" y="-10" on="1"/>
        <pt x="113" y="-10" on="0"/>
        <pt x="113" y="134" on="1"/>
        <pt x="113" y="183" on="0"/>
        <pt x="124" y="225" on="1"/>
        <pt x="232" y="692" on="1"/>
        <pt x="309" y="692" on="1"/>
        <pt x="199" y="217" on="1"/>
        <pt x="189" y="177" on="0"/>
      </contour>
    </TTGlyph>
    <TTGlyph name="V" xMin="181" yMin="0" xMax="678" yMax="692">
      <contour>
        <pt x="601" y="692" on="1"/>
        <pt x="678" y="692" on="1"/>
        <pt x="348" y="0" on="1"/>
        <pt x="190" y="0" on="1"/>
        <pt x="181" y="692" on="1"/>
        <pt x="258" y="692" on="1"/>
        <pt x="261" y="68" on="1"/>
        <pt x="306" y="68" on="1"/>
      </contour>
    </TTGlyph>
    <TTGlyph name="W" xMin="160" yMin="0" xMax="957" yMax="692">
      <contour>
        <pt x="187" y="692" on="1"/>
        <pt x="263" y="692" on="1"/>
        <pt x="232" y="71" on="1"/>
        <pt x="258" y="71" on="1"/>
        <pt x="527" y="682" on="1"/>
        <pt x="611" y="682" on="1"/>
        <pt x="592" y="71" on="1"/>
        <pt x="618" y="71" on="1"/>
        <pt x="880" y="692" on="1"/>
        <pt x="957" y="692" on="1"/>
        <pt x="659" y="0" on="1"/>
        <pt x="526" y="0" on="1"/>
        <pt x="545" y="570" on="1"/>
        <pt x="297" y="0" on="1"/>
        <pt x="160" y="0" on="1"/>
      </contour>
    </TTGlyph>
    <TTGlyph name="Wacute" xMin="160" yMin="0" xMax="957" yMax="936">
      <contour>
        <pt x="505" y="785" on="1"/>
        <pt x="496" y="842" on="1"/>
        <pt x="724" y="936" on="1"/>
        <pt x="733" y="871" on="1"/>
      </contour>
      <contour>
        <pt x="187" y="692" on="1"/>
        <pt x="263" y="692" on="1"/>
        <pt x="232" y="71" on="1"/>
        <pt x="258" y="71" on="1"/>
        <pt x="527" y="682" on="1"/>
        <pt x="611" y="682" on="1"/>
        <pt x="592" y="71" on="1"/>
        <pt x="618" y="71" on="1"/>
        <pt x="880" y="692" on="1"/>
        <pt x="957" y="692" on="1"/>
        <pt x="659" y="0" on="1"/>
        <pt x="526" y="0" on="1"/>
        <pt x="545" y="570" on="1"/>
        <pt x="297" y="0" on="1"/>
        <pt x="160" y="0" on="1"/>
      </contour>
    </TTGlyph>
    <TTGlyph name="Wcircumflex" xMin="160" yMin="0" xMax="957" yMax="928">
      <contour>
        <pt x="436" y="790" on="1"/>
        <pt x="600" y="928" on="1"/>
        <pt x="641" y="928" on="1"/>
        <pt x="737" y="790" on="1"/>
        <pt x="668" y="790" on="1"/>
        <pt x="614" y="871" on="1"/>
        <pt x="518" y="790" on="1"/>
      </contour>
      <contour>
        <pt x="187" y="692" on="1"/>
        <pt x="263" y="692" on="1"/>
        <pt x="232" y="71" on="1"/>
        <pt x="258" y="71" on="1"/>
        <pt x="527" y="682" on="1"/>
        <pt x="611" y="682" on="1"/>
        <pt x="592" y="71" on="1"/>
        <pt x="618" y="71" on="1"/>
        <pt x="880" y="692" on="1"/>
        <pt x="957" y="692" on="1"/>
        <pt x="659" y="0" on="1"/>
        <pt x="526" y="0" on="1"/>
        <pt x="545" y="570" on="1"/>
        <pt x="297" y="0" on="1"/>
        <pt x="160" y="0" on="1"/>
      </contour>
    </TTGlyph>
    <TTGlyph name="Wdieresis" xMin="160" yMin="0" xMax="957" yMax="907">
      <contour>
        <pt x="468" y="814" on="1"/>
        <pt x="489" y="907" on="1"/>
        <pt x="551" y="907" on="1"/>
        <pt x="528" y="814" on="1"/>
      </contour>
      <contour>
        <pt x="655" y="814" on="1"/>
        <pt x="677" y="907" on="1"/>
        <pt x="739" y="907" on="1"/>
        <pt x="716" y="814" on="1"/>
      </contour>
      <contour>
        <pt x="187" y="692" on="1"/>
        <pt x="263" y="692" on="1"/>
        <pt x="232" y="71" on="1"/>
        <pt x="258" y="71" on="1"/>
        <pt x="527" y="682" on="1"/>
        <pt x="611" y="682" on="1"/>
        <pt x="592" y="71" on="1"/>
        <pt x="618" y="71" on="1"/>
        <pt x="880" y="692" on="1"/>
        <pt x="957" y="692" on="1"/>
        <pt x="659" y="0" on="1"/>
        <pt x="526" y="0" on="1"/>
        <pt x="545" y="570" on="1"/>
        <pt x="297" y="0" on="1"/>
        <pt x="160" y="0" on="1"/>
      </contour>
    </TTGlyph>
    <TTGlyph name="Wgrave" xMin="160" yMin="0" xMax="957" yMax="930">
      <contour>
        <pt x="508" y="930" on="1"/>
        <pt x="693" y="836" on="1"/>
        <pt x="659" y="780" on="1"/>
        <pt x="471" y="866" on="1"/>
      </contour>
      <contour>
        <pt x="187" y="692" on="1"/>
        <pt x="263" y="692" on="1"/>
        <pt x="232" y="71" on="1"/>
        <pt x="258" y="71" on="1"/>
        <pt x="527" y="682" on="1"/>
        <pt x="611" y="682" on="1"/>
        <pt x="592" y="71" on="1"/>
        <pt x="618" y="71" on="1"/>
        <pt x="880" y="692" on="1"/>
        <pt x="957" y="692" on="1"/>
        <pt x="659" y="0" on="1"/>
        <pt x="526" y="0" on="1"/>
        <pt x="545" y="570" on="1"/>
        <pt x="297" y="0" on="1"/>
        <pt x="160" y="0" on="1"/>
      </contour>
    </TTGlyph>
    <TTGlyph name="X" xMin="12" yMin="0" xMax="659" yMax="692">
      <contour>
        <pt x="261" y="692" on="1"/>
        <pt x="351" y="404" on="1"/>
        <pt x="575" y="692" on="1"/>
        <pt x="659" y="692" on="1"/>
        <pt x="383" y="343" on="1"/>
        <pt x="495" y="0" on="1"/>
        <pt x="416" y="0" on="1"/>
        <pt x="324" y="287" on="1"/>
        <pt x="97" y="0" on="1"/>
        <pt x="12" y="0" on="1"/>
        <pt x="292" y="347" on="1"/>
        <pt x="181" y="692" on="1"/>
      </contour>
    </TTGlyph>
    <TTGlyph name="Y" xMin="170" yMin="0" xMax="641" yMax="692">
      <contour>
        <pt x="641" y="692" on="1"/>
        <pt x="348" y="296" on="1"/>
        <pt x="279" y="0" on="1"/>
        <pt x="206" y="0" on="1"/>
        <pt x="276" y="302" on="1"/>
        <pt x="170" y="692" on="1"/>
        <pt x="248" y="692" on="1"/>
        <pt x="329" y="369" on="1"/>
        <pt x="558" y="692" on="1"/>
      </contour>
    </TTGlyph>
    <TTGlyph name="Yacute" xMin="170" yMin="0" xMax="641" yMax="936">
      <contour>
        <pt x="345" y="785" on="1"/>
        <pt x="336" y="842" on="1"/>
        <pt x="564" y="936" on="1"/>
        <pt x="573" y="871" on="1"/>
      </contour>
      <contour>
        <pt x="641" y="692" on="1"/>
        <pt x="348" y="296" on="1"/>
        <pt x="279" y="0" on="1"/>
        <pt x="206" y="0" on="1"/>
        <pt x="276" y="302" on="1"/>
        <pt x="170" y="692" on="1"/>
        <pt x="248" y="692" on="1"/>
        <pt x="329" y="369" on="1"/>
        <pt x="558" y="692" on="1"/>
      </contour>
    </TTGlyph>
    <TTGlyph name="Ycircumflex" xMin="170" yMin="0" xMax="641" yMax="928">
      <contour>
        <pt x="272" y="790" on="1"/>
        <pt x="436" y="928" on="1"/>
        <pt x="477" y="928" on="1"/>
        <pt x="573" y="790" on="1"/>
        <pt x="504" y="790" on="1"/>
        <pt x="450" y="871" on="1"/>
        <pt x="354" y="790" on="1"/>
      </contour>
      <contour>
        <pt x="641" y="692" on="1"/>
        <pt x="348" y="296" on="1"/>
        <pt x="279" y="0" on="1"/>
        <pt x="206" y="0" on="1"/>
        <pt x="276" y="302" on="1"/>
        <pt x="170" y="692" on="1"/>
        <pt x="248" y="692" on="1"/>
        <pt x="329" y="369" on="1"/>
        <pt x="558" y="692" on="1"/>
      </contour>
    </TTGlyph>
    <TTGlyph name="Ydieresis" xMin="170" yMin="0" xMax="641" yMax="906">
      <contour>
        <pt x="298" y="813" on="1"/>
        <pt x="319" y="906" on="1"/>
        <pt x="381" y="906" on="1"/>
        <pt x="358" y="813" on="1"/>
      </contour>
      <contour>
        <pt x="485" y="813" on="1"/>
        <pt x="507" y="906" on="1"/>
        <pt x="569" y="906" on="1"/>
        <pt x="546" y="813" on="1"/>
      </contour>
      <contour>
        <pt x="641" y="692" on="1"/>
        <pt x="348" y="296" on="1"/>
        <pt x="279" y="0" on="1"/>
        <pt x="206" y="0" on="1"/>
        <pt x="276" y="302" on="1"/>
        <pt x="170" y="692" on="1"/>
        <pt x="248" y="692" on="1"/>
        <pt x="329" y="369" on="1"/>
        <pt x="558" y="692" on="1"/>
      </contour>
    </TTGlyph>
    <TTGlyph name="Ygrave" xMin="170" yMin="0" xMax="641" yMax="930">
      <contour>
        <pt x="341" y="930" on="1"/>
        <pt x="526" y="836" on="1"/>
        <pt x="492" y="780" on="1"/>
        <pt x="304" y="866" on="1"/>
      </contour>
      <contour>
        <pt x="641" y="692" on="1"/>
        <pt x="348" y="296" on="1"/>
        <pt x="279" y="0" on="1"/>
        <pt x="206" y="0" on="1"/>
        <pt x="276" y="302" on="1"/>
        <pt x="170" y="692" on="1"/>
        <pt x="248" y="692" on="1"/>
        <pt x="329" y="369" on="1"/>
        <pt x="558" y="692" on="1"/>
      </contour>
    </TTGlyph>
    <TTGlyph name="Z" xMin="38" yMin="0" xMax="616" yMax="692">
      <contour>
        <pt x="184" y="624" on="1"/>
        <pt x="200" y="692" on="1"/>
        <pt x="616" y="692" on="1"/>
        <pt x="592" y="590" on="1"/>
        <pt x="144" y="92" on="1"/>
        <pt x="138" y="68" on="1"/>
        <pt x="470" y="68" on="1"/>
        <pt x="454" y="0" on="1"/>
        <pt x="38" y="0" on="1"/>
        <pt x="60" y="99" on="1"/>
        <pt x="508" y="597" on="1"/>
        <pt x="514" y="624" on="1"/>
      </contour>
    </TTGlyph>
    <TTGlyph name="Zacute" xMin="38" yMin="0" xMax="616" yMax="936">
      <contour>
        <pt x="336" y="785" on="1"/>
        <pt x="327" y="842" on="1"/>
        <pt x="555" y="936" on="1"/>
        <pt x="564" y="871" on="1"/>
      </contour>
      <contour>
        <pt x="184" y="624" on="1"/>
        <pt x="200" y="692" on="1"/>
        <pt x="616" y="692" on="1"/>
        <pt x="592" y="590" on="1"/>
        <pt x="144" y="92" on="1"/>
        <pt x="138" y="68" on="1"/>
        <pt x="470" y="68" on="1"/>
        <pt x="454" y="0" on="1"/>
        <pt x="38" y="0" on="1"/>
        <pt x="60" y="99" on="1"/>
        <pt x="508" y="597" on="1"/>
        <pt x="514" y="624" on="1"/>
      </contour>
    </TTGlyph>
    <TTGlyph name="Zcaron" xMin="38" yMin="0" xMax="616" yMax="925">
      <contour>
        <pt x="606" y="925" on="1"/>
        <pt x="449" y="788" on="1"/>
        <pt x="402" y="788" on="1"/>
        <pt x="304" y="925" on="1"/>
        <pt x="378" y="925" on="1"/>
        <pt x="436" y="843" on="1"/>
        <pt x="529" y="925" on="1"/>
      </contour>
      <contour>
        <pt x="184" y="624" on="1"/>
        <pt x="200" y="692" on="1"/>
        <pt x="616" y="692" on="1"/>
        <pt x="592" y="590" on="1"/>
        <pt x="144" y="92" on="1"/>
        <pt x="138" y="68" on="1"/>
        <pt x="470" y="68" on="1"/>
        <pt x="454" y="0" on="1"/>
        <pt x="38" y="0" on="1"/>
        <pt x="60" y="99" on="1"/>
        <pt x="508" y="597" on="1"/>
        <pt x="514" y="624" on="1"/>
      </contour>
    </TTGlyph>
    <TTGlyph name="Zdotaccent" xMin="38" yMin="0" xMax="616" yMax="920">
      <contour>
        <pt x="394" y="830" on="1"/>
        <pt x="414" y="920" on="1"/>
        <pt x="478" y="920" on="1"/>
        <pt x="457" y="830" on="1"/>
      </contour>
      <contour>
        <pt x="184" y="624" on="1"/>
        <pt x="200" y="692" on="1"/>
        <pt x="616" y="692" on="1"/>
        <pt x="592" y="590" on="1"/>
        <pt x="144" y="92" on="1"/>
        <pt x="138" y="68" on="1"/>
        <pt x="470" y="68" on="1"/>
        <pt x="454" y="0" on="1"/>
        <pt x="38" y="0" on="1"/>
        <pt x="60" y="99" on="1"/>
        <pt x="508" y="597" on="1"/>
        <pt x="514" y="624" on="1"/>
      </contour>
    </TTGlyph>
    <TTGlyph name="a" xMin="89" yMin="-10" xMax="546" yMax="510">
      <contour>
        <pt x="217" y="-10" on="1"/>
        <pt x="89" y="-10" on="0"/>
        <pt x="89" y="139" on="1"/>
        <pt x="89" y="222" on="0"/>
        <pt x="142" y="387" on="0"/>
        <pt x="262" y="510" on="0"/>
        <pt x="341" y="510" on="1"/>
        <pt x="402" y="510" on="0"/>
        <pt x="508" y="492" on="1"/>
        <pt x="546" y="485" on="1"/>
        <pt x="470" y="160" on="1"/>
        <pt x="456" y="104" on="0"/>
        <pt x="446" y="28" on="1"/>
        <pt x="442" y="2" on="1"/>
        <pt x="369" y="-1" on="1"/>
        <pt x="383" y="85" on="0"/>
        <pt x="387" y="106" on="1"/>
        <pt x="382" y="97" on="0"/>
        <pt x="333" y="46" on="0"/>
        <pt x="295" y="15" on="0"/>
        <pt x="241" y="-10" on="0"/>
      </contour>
      <contour>
        <pt x="459" y="431" on="1"/>
        <pt x="389" y="445" on="0"/>
        <pt x="288" y="445" on="0"/>
        <pt x="204" y="342" on="0"/>
        <pt x="166" y="205" on="0"/>
        <pt x="166" y="97" on="0"/>
        <pt x="200" y="55" on="0"/>
        <pt x="268" y="55" on="0"/>
        <pt x="349" y="120" on="0"/>
        <pt x="376" y="153" on="1"/>
        <pt x="402" y="186" on="1"/>
      </contour>
    </TTGlyph>
    <TTGlyph name="aacute" xMin="89" yMin="-10" xMax="568" yMax="748">
      <contour>
        <pt x="217" y="-10" on="1"/>
        <pt x="89" y="-10" on="0"/>
        <pt x="89" y="139" on="1"/>
        <pt x="89" y="222" on="0"/>
        <pt x="142" y="387" on="0"/>
        <pt x="262" y="510" on="0"/>
        <pt x="341" y="510" on="1"/>
        <pt x="402" y="510" on="0"/>
        <pt x="508" y="492" on="1"/>
        <pt x="546" y="485" on="1"/>
        <pt x="470" y="160" on="1"/>
        <pt x="456" y="104" on="0"/>
        <pt x="446" y="28" on="1"/>
        <pt x="442" y="2" on="1"/>
        <pt x="369" y="-1" on="1"/>
        <pt x="383" y="85" on="0"/>
        <pt x="387" y="106" on="1"/>
        <pt x="382" y="97" on="0"/>
        <pt x="333" y="46" on="0"/>
        <pt x="295" y="15" on="0"/>
        <pt x="241" y="-10" on="0"/>
      </contour>
      <contour>
        <pt x="459" y="431" on="1"/>
        <pt x="389" y="445" on="0"/>
        <pt x="288" y="445" on="0"/>
        <pt x="204" y="342" on="0"/>
        <pt x="166" y="205" on="0"/>
        <pt x="166" y="97" on="0"/>
        <pt x="200" y="55" on="0"/>
        <pt x="268" y="55" on="0"/>
        <pt x="349" y="120" on="0"/>
        <pt x="376" y="153" on="1"/>
        <pt x="402" y="186" on="1"/>
      </contour>
      <contour>
        <pt x="340" y="596" on="1"/>
        <pt x="333" y="654" on="1"/>
        <pt x="561" y="748" on="1"/>
        <pt x="568" y="682" on="1"/>
      </contour>
    </TTGlyph>
    <TTGlyph name="abreve" xMin="89" yMin="-10" xMax="592" yMax="731">
      <contour>
        <pt x="217" y="-10" on="1"/>
        <pt x="89" y="-10" on="0"/>
        <pt x="89" y="139" on="1"/>
        <pt x="89" y="222" on="0"/>
        <pt x="142" y="387" on="0"/>
        <pt x="262" y="510" on="0"/>
        <pt x="341" y="510" on="1"/>
        <pt x="402" y="510" on="0"/>
        <pt x="508" y="492" on="1"/>
        <pt x="546" y="485" on="1"/>
        <pt x="470" y="160" on="1"/>
        <pt x="456" y="104" on="0"/>
        <pt x="446" y="28" on="1"/>
        <pt x="442" y="2" on="1"/>
        <pt x="369" y="-1" on="1"/>
        <pt x="383" y="85" on="0"/>
        <pt x="387" y="106" on="1"/>
        <pt x="382" y="97" on="0"/>
        <pt x="333" y="46" on="0"/>
        <pt x="295" y="15" on="0"/>
        <pt x="241" y="-10" on="0"/>
      </contour>
      <contour>
        <pt x="459" y="431" on="1"/>
        <pt x="389" y="445" on="0"/>
        <pt x="288" y="445" on="0"/>
        <pt x="204" y="342" on="0"/>
        <pt x="166" y="205" on="0"/>
        <pt x="166" y="97" on="0"/>
        <pt x="200" y="55" on="0"/>
        <pt x="268" y="55" on="0"/>
        <pt x="349" y="120" on="0"/>
        <pt x="376" y="153" on="1"/>
        <pt x="402" y="186" on="1"/>
      </contour>
      <contour>
        <pt x="368" y="731" on="1"/>
        <pt x="365" y="719" on="0"/>
        <pt x="365" y="690" on="0"/>
        <pt x="391" y="655" on="0"/>
        <pt x="429" y="655" on="1"/>
        <pt x="505" y="655" on="0"/>
        <pt x="527" y="731" on="1"/>
        <pt x="592" y="731" on="1"/>
        <pt x="552" y="593" on="0"/>
        <pt x="411" y="593" on="1"/>
        <pt x="346" y="593" on="0"/>
        <pt x="318" y="630" on="1"/>
        <pt x="299" y="656" on="0"/>
        <pt x="299" y="695" on="1"/>
        <pt x="299" y="712" on="0"/>
        <pt x="303" y="731" on="1"/>
      </contour>
    </TTGlyph>
    <TTGlyph name="acircumflex" xMin="89" yMin="-10" xMax="546" yMax="738">
      <contour>
        <pt x="241" y="587" on="1"/>
        <pt x="396" y="738" on="1"/>
        <pt x="449" y="738" on="1"/>
        <pt x="535" y="587" on="1"/>
        <pt x="460" y="587" on="1"/>
        <pt x="412" y="673" on="1"/>
        <pt x="323" y="587" on="1"/>
      </contour>
      <contour>
        <pt x="217" y="-10" on="1"/>
        <pt x="89" y="-10" on="0"/>
        <pt x="89" y="139" on="1"/>
        <pt x="89" y="222" on="0"/>
        <pt x="142" y="387" on="0"/>
        <pt x="262" y="510" on="0"/>
        <pt x="341" y="510" on="1"/>
        <pt x="402" y="510" on="0"/>
        <pt x="508" y="492" on="1"/>
        <pt x="546" y="485" on="1"/>
        <pt x="470" y="160" on="1"/>
        <pt x="456" y="104" on="0"/>
        <pt x="446" y="28" on="1"/>
        <pt x="442" y="2" on="1"/>
        <pt x="369" y="-1" on="1"/>
        <pt x="383" y="85" on="0"/>
        <pt x="387" y="106" on="1"/>
        <pt x="382" y="97" on="0"/>
        <pt x="333" y="46" on="0"/>
        <pt x="295" y="15" on="0"/>
        <pt x="241" y="-10" on="0"/>
      </contour>
      <contour>
        <pt x="459" y="431" on="1"/>
        <pt x="389" y="445" on="0"/>
        <pt x="288" y="445" on="0"/>
        <pt x="204" y="342" on="0"/>
        <pt x="166" y="205" on="0"/>
        <pt x="166" y="97" on="0"/>
        <pt x="200" y="55" on="0"/>
        <pt x="268" y="55" on="0"/>
        <pt x="349" y="120" on="0"/>
        <pt x="376" y="153" on="1"/>
        <pt x="402" y="186" on="1"/>
      </contour>
    </TTGlyph>
    <TTGlyph name="acute" xMin="272" yMin="596" xMax="507" yMax="748">
      <contour>
        <pt x="279" y="596" on="1"/>
        <pt x="272" y="654" on="1"/>
        <pt x="500" y="748" on="1"/>
        <pt x="507" y="682" on="1"/>
      </contour>
    </TTGlyph>
    <TTGlyph name="acute.cap.001" xMin="316" yMin="785" xMax="553" yMax="936">
      <contour>
        <pt x="325" y="785" on="1"/>
        <pt x="316" y="842" on="1"/>
        <pt x="544" y="936" on="1"/>
        <pt x="553" y="871" on="1"/>
      </contour>
    </TTGlyph>
    <TTGlyph name="adieresis" xMin="89" yMin="-10" xMax="546" yMax="713">
      <contour>
        <pt x="266" y="620" on="1"/>
        <pt x="287" y="713" on="1"/>
        <pt x="356" y="713" on="1"/>
        <pt x="334" y="620" on="1"/>
      </contour>
      <contour>
        <pt x="456" y="620" on="1"/>
        <pt x="476" y="713" on="1"/>
        <pt x="545" y="713" on="1"/>
        <pt x="523" y="620" on="1"/>
      </contour>
      <contour>
        <pt x="217" y="-10" on="1"/>
        <pt x="89" y="-10" on="0"/>
        <pt x="89" y="139" on="1"/>
        <pt x="89" y="222" on="0"/>
        <pt x="142" y="387" on="0"/>
        <pt x="262" y="510" on="0"/>
        <pt x="341" y="510" on="1"/>
        <pt x="402" y="510" on="0"/>
        <pt x="508" y="492" on="1"/>
        <pt x="546" y="485" on="1"/>
        <pt x="470" y="160" on="1"/>
        <pt x="456" y="104" on="0"/>
        <pt x="446" y="28" on="1"/>
        <pt x="442" y="2" on="1"/>
        <pt x="369" y="-1" on="1"/>
        <pt x="383" y="85" on="0"/>
        <pt x="387" y="106" on="1"/>
        <pt x="382" y="97" on="0"/>
        <pt x="333" y="46" on="0"/>
        <pt x="295" y="15" on="0"/>
        <pt x="241" y="-10" on="0"/>
      </contour>
      <contour>
        <pt x="459" y="431" on="1"/>
        <pt x="389" y="445" on="0"/>
        <pt x="288" y="445" on="0"/>
        <pt x="204" y="342" on="0"/>
        <pt x="166" y="205" on="0"/>
        <pt x="166" y="97" on="0"/>
        <pt x="200" y="55" on="0"/>
        <pt x="268" y="55" on="0"/>
        <pt x="349" y="120" on="0"/>
        <pt x="376" y="153" on="1"/>
        <pt x="402" y="186" on="1"/>
      </contour>
    </TTGlyph>
    <TTGlyph name="ae" xMin="61" yMin="-10" xMax="785" yMax="510">
      <contour>
        <pt x="441" y="145" on="1"/>
        <pt x="441" y="60" on="0"/>
        <pt x="531" y="60" on="1"/>
        <pt x="603" y="60" on="0"/>
        <pt x="676" y="66" on="1"/>
        <pt x="704" y="69" on="1"/>
        <pt x="691" y="6" on="1"/>
        <pt x="590" y="-10" on="0"/>
        <pt x="416" y="-10" on="0"/>
        <pt x="382" y="44" on="1"/>
        <pt x="338" y="25" on="0"/>
        <pt x="207" y="-10" on="0"/>
        <pt x="166" y="-10" on="1"/>
        <pt x="103" y="-10" on="0"/>
        <pt x="78" y="36" on="1"/>
        <pt x="62" y="65" on="0"/>
        <pt x="62" y="121" on="0"/>
        <pt x="67" y="144" on="1"/>
        <pt x="80" y="213" on="0"/>
        <pt x="168" y="279" on="0"/>
        <pt x="309" y="302" on="0"/>
        <pt x="392" y="305" on="1"/>
        <pt x="407" y="349" on="0"/>
        <pt x="407" y="378" on="1"/>
        <pt x="407" y="437" on="0"/>
        <pt x="347" y="437" on="1"/>
        <pt x="275" y="437" on="0"/>
        <pt x="196" y="429" on="1"/>
        <pt x="167" y="426" on="1"/>
        <pt x="179" y="495" on="1"/>
        <pt x="293" y="510" on="0"/>
        <pt x="351" y="510" on="1"/>
        <pt x="461" y="510" on="0"/>
        <pt x="475" y="436" on="1"/>
        <pt x="536" y="510" on="0"/>
        <pt x="641" y="510" on="1"/>
        <pt x="782" y="510" on="0"/>
        <pt x="785" y="375" on="1"/>
        <pt x="785" y="322" on="0"/>
        <pt x="771" y="272" on="1"/>
        <pt x="756" y="217" on="1"/>
        <pt x="451" y="219" on="1"/>
        <pt x="441" y="176" on="0"/>
      </contour>
      <contour>
        <pt x="139" y="118" on="1"/>
        <pt x="139" y="57" on="0"/>
        <pt x="190" y="57" on="1"/>
        <pt x="252" y="57" on="0"/>
        <pt x="366" y="95" on="1"/>
        <pt x="363" y="109" on="0"/>
        <pt x="363" y="173" on="0"/>
        <pt x="380" y="244" on="1"/>
        <pt x="308" y="238" on="0"/>
        <pt x="242" y="230" on="1"/>
        <pt x="160" y="217" on="0"/>
        <pt x="142" y="146" on="1"/>
        <pt x="139" y="131" on="0"/>
      </contour>
      <contour>
        <pt x="701" y="278" on="1"/>
        <pt x="712" y="320" on="0"/>
        <pt x="712" y="359" on="0"/>
        <pt x="712" y="364" on="1"/>
        <pt x="709" y="442" on="0"/>
        <pt x="624" y="442" on="1"/>
        <pt x="562" y="442" on="0"/>
        <pt x="484" y="364" on="0"/>
        <pt x="464" y="280" on="1"/>
      </contour>
    </TTGlyph>
    <TTGlyph name="aeacute" xMin="61" yMin="-10" xMax="785" yMax="748">
      <contour>
        <pt x="441" y="145" on="1"/>
        <pt x="441" y="60" on="0"/>
        <pt x="531" y="60" on="1"/>
        <pt x="603" y="60" on="0"/>
        <pt x="676" y="66" on="1"/>
        <pt x="704" y="69" on="1"/>
        <pt x="691" y="6" on="1"/>
        <pt x="590" y="-10" on="0"/>
        <pt x="416" y="-10" on="0"/>
        <pt x="382" y="44" on="1"/>
        <pt x="338" y="25" on="0"/>
        <pt x="207" y="-10" on="0"/>
        <pt x="166" y="-10" on="1"/>
        <pt x="103" y="-10" on="0"/>
        <pt x="78" y="36" on="1"/>
        <pt x="62" y="65" on="0"/>
        <pt x="62" y="121" on="0"/>
        <pt x="67" y="144" on="1"/>
        <pt x="80" y="213" on="0"/>
        <pt x="168" y="279" on="0"/>
        <pt x="309" y="302" on="0"/>
        <pt x="392" y="305" on="1"/>
        <pt x="407" y="349" on="0"/>
        <pt x="407" y="378" on="1"/>
        <pt x="407" y="437" on="0"/>
        <pt x="347" y="437" on="1"/>
        <pt x="275" y="437" on="0"/>
        <pt x="196" y="429" on="1"/>
        <pt x="167" y="426" on="1"/>
        <pt x="179" y="495" on="1"/>
        <pt x="293" y="510" on="0"/>
        <pt x="351" y="510" on="1"/>
        <pt x="461" y="510" on="0"/>
        <pt x="475" y="436" on="1"/>
        <pt x="536" y="510" on="0"/>
        <pt x="641" y="510" on="1"/>
        <pt x="782" y="510" on="0"/>
        <pt x="785" y="375" on="1"/>
        <pt x="785" y="322" on="0"/>
        <pt x="771" y="272" on="1"/>
        <pt x="756" y="217" on="1"/>
        <pt x="451" y="219" on="1"/>
        <pt x="441" y="176" on="0"/>
      </contour>
      <contour>
        <pt x="139" y="118" on="1"/>
        <pt x="139" y="57" on="0"/>
        <pt x="190" y="57" on="1"/>
        <pt x="252" y="57" on="0"/>
        <pt x="366" y="95" on="1"/>
        <pt x="363" y="109" on="0"/>
        <pt x="363" y="173" on="0"/>
        <pt x="380" y="244" on="1"/>
        <pt x="308" y="238" on="0"/>
        <pt x="242" y="230" on="1"/>
        <pt x="160" y="217" on="0"/>
        <pt x="142" y="146" on="1"/>
        <pt x="139" y="131" on="0"/>
      </contour>
      <contour>
        <pt x="701" y="278" on="1"/>
        <pt x="712" y="320" on="0"/>
        <pt x="712" y="359" on="0"/>
        <pt x="712" y="364" on="1"/>
        <pt x="709" y="442" on="0"/>
        <pt x="624" y="442" on="1"/>
        <pt x="562" y="442" on="0"/>
        <pt x="484" y="364" on="0"/>
        <pt x="464" y="280" on="1"/>
      </contour>
      <contour>
        <pt x="431" y="596" on="1"/>
        <pt x="424" y="654" on="1"/>
        <pt x="652" y="748" on="1"/>
        <pt x="659" y="682" on="1"/>
      </contour>
    </TTGlyph>
    <TTGlyph name="agrave" xMin="89" yMin="-10" xMax="546" yMax="741">
      <contour>
        <pt x="217" y="-10" on="1"/>
        <pt x="89" y="-10" on="0"/>
        <pt x="89" y="139" on="1"/>
        <pt x="89" y="222" on="0"/>
        <pt x="142" y="387" on="0"/>
        <pt x="262" y="510" on="0"/>
        <pt x="341" y="510" on="1"/>
        <pt x="402" y="510" on="0"/>
        <pt x="508" y="492" on="1"/>
        <pt x="546" y="485" on="1"/>
        <pt x="470" y="160" on="1"/>
        <pt x="456" y="104" on="0"/>
        <pt x="446" y="28" on="1"/>
        <pt x="442" y="2" on="1"/>
        <pt x="369" y="-1" on="1"/>
        <pt x="383" y="85" on="0"/>
        <pt x="387" y="106" on="1"/>
        <pt x="382" y="97" on="0"/>
        <pt x="333" y="46" on="0"/>
        <pt x="295" y="15" on="0"/>
        <pt x="241" y="-10" on="0"/>
      </contour>
      <contour>
        <pt x="459" y="431" on="1"/>
        <pt x="389" y="445" on="0"/>
        <pt x="288" y="445" on="0"/>
        <pt x="204" y="342" on="0"/>
        <pt x="166" y="205" on="0"/>
        <pt x="166" y="97" on="0"/>
        <pt x="200" y="55" on="0"/>
        <pt x="268" y="55" on="0"/>
        <pt x="349" y="120" on="0"/>
        <pt x="376" y="153" on="1"/>
        <pt x="402" y="186" on="1"/>
      </contour>
      <contour>
        <pt x="338" y="741" on="1"/>
        <pt x="523" y="648" on="1"/>
        <pt x="490" y="596" on="1"/>
        <pt x="302" y="682" on="1"/>
      </contour>
    </TTGlyph>
    <TTGlyph name="amacron" xMin="89" yMin="-10" xMax="574" yMax="698">
      <contour>
        <pt x="217" y="-10" on="1"/>
        <pt x="89" y="-10" on="0"/>
        <pt x="89" y="139" on="1"/>
        <pt x="89" y="222" on="0"/>
        <pt x="142" y="387" on="0"/>
        <pt x="262" y="510" on="0"/>
        <pt x="341" y="510" on="1"/>
        <pt x="402" y="510" on="0"/>
        <pt x="508" y="492" on="1"/>
        <pt x="546" y="485" on="1"/>
        <pt x="470" y="160" on="1"/>
        <pt x="456" y="104" on="0"/>
        <pt x="446" y="28" on="1"/>
        <pt x="442" y="2" on="1"/>
        <pt x="369" y="-1" on="1"/>
        <pt x="383" y="85" on="0"/>
        <pt x="387" y="106" on="1"/>
        <pt x="382" y="97" on="0"/>
        <pt x="333" y="46" on="0"/>
        <pt x="295" y="15" on="0"/>
        <pt x="241" y="-10" on="0"/>
      </contour>
      <contour>
        <pt x="459" y="431" on="1"/>
        <pt x="389" y="445" on="0"/>
        <pt x="288" y="445" on="0"/>
        <pt x="204" y="342" on="0"/>
        <pt x="166" y="205" on="0"/>
        <pt x="166" y="97" on="0"/>
        <pt x="200" y="55" on="0"/>
        <pt x="268" y="55" on="0"/>
        <pt x="349" y="120" on="0"/>
        <pt x="376" y="153" on="1"/>
        <pt x="402" y="186" on="1"/>
      </contour>
      <contour>
        <pt x="285" y="639" on="1"/>
        <pt x="299" y="698" on="1"/>
        <pt x="574" y="698" on="1"/>
        <pt x="559" y="639" on="1"/>
      </contour>
    </TTGlyph>
    <TTGlyph name="ampersand" xMin="75" yMin="-10" xMax="635" yMax="702">
      <contour>
        <pt x="443" y="702" on="1"/>
        <pt x="586" y="702" on="0"/>
        <pt x="586" y="579" on="1"/>
        <pt x="586" y="503" on="0"/>
        <pt x="491" y="400" on="0"/>
        <pt x="389" y="361" on="1"/>
        <pt x="500" y="209" on="1"/>
        <pt x="537" y="268" on="0"/>
        <pt x="559" y="344" on="1"/>
        <pt x="631" y="344" on="1"/>
        <pt x="601" y="241" on="0"/>
        <pt x="542" y="157" on="1"/>
        <pt x="635" y="39" on="1"/>
        <pt x="583" y="-7" on="1"/>
        <pt x="495" y="106" on="1"/>
        <pt x="398" y="-10" on="0"/>
        <pt x="264" y="-10" on="1"/>
        <pt x="164" y="-10" on="0"/>
        <pt x="75" y="71" on="0"/>
        <pt x="75" y="248" on="0"/>
        <pt x="172" y="368" on="0"/>
        <pt x="281" y="409" on="1"/>
        <pt x="254" y="460" on="0"/>
        <pt x="254" y="508" on="1"/>
        <pt x="254" y="600" on="0"/>
        <pt x="356" y="702" on="0"/>
      </contour>
      <contour>
        <pt x="275" y="56" on="1"/>
        <pt x="326" y="56" on="0"/>
        <pt x="422" y="109" on="0"/>
        <pt x="456" y="156" on="1"/>
        <pt x="310" y="360" on="1"/>
        <pt x="223" y="327" on="0"/>
        <pt x="153" y="231" on="0"/>
        <pt x="153" y="157" on="1"/>
        <pt x="153" y="56" on="0"/>
      </contour>
      <contour>
        <pt x="387" y="638" on="0"/>
        <pt x="331" y="565" on="0"/>
        <pt x="331" y="450" on="0"/>
        <pt x="360" y="407" on="1"/>
        <pt x="442" y="441" on="0"/>
        <pt x="509" y="518" on="0"/>
        <pt x="509" y="575" on="1"/>
        <pt x="509" y="638" on="0"/>
        <pt x="440" y="638" on="1"/>
      </contour>
    </TTGlyph>
    <TTGlyph name="aogonek" xMin="89" yMin="-204" xMax="546" yMax="510">
      <contour>
        <pt x="335" y="-204" on="1"/>
        <pt x="265" y="-204" on="0"/>
        <pt x="265" y="-141" on="1"/>
        <pt x="265" y="-107" on="0"/>
        <pt x="333" y="-22" on="0"/>
        <pt x="370" y="8" on="1"/>
        <pt x="372" y="16" on="0"/>
        <pt x="385" y="96" on="0"/>
        <pt x="387" y="106" on="1"/>
        <pt x="382" y="97" on="0"/>
        <pt x="333" y="46" on="0"/>
        <pt x="295" y="15" on="0"/>
        <pt x="241" y="-10" on="0"/>
        <pt x="217" y="-10" on="1"/>
        <pt x="89" y="-10" on="0"/>
        <pt x="89" y="139" on="1"/>
        <pt x="89" y="222" on="0"/>
        <pt x="142" y="387" on="0"/>
        <pt x="262" y="510" on="0"/>
        <pt x="341" y="510" on="1"/>
        <pt x="402" y="510" on="0"/>
        <pt x="508" y="492" on="1"/>
        <pt x="546" y="485" on="1"/>
        <pt x="470" y="160" on="1"/>
        <pt x="456" y="104" on="0"/>
        <pt x="446" y="28" on="1"/>
        <pt x="442" y="2" on="1"/>
        <pt x="436" y="2" on="1"/>
        <pt x="407" y="-22" on="0"/>
        <pt x="347" y="-94" on="0"/>
        <pt x="347" y="-117" on="1"/>
        <pt x="347" y="-137" on="0"/>
        <pt x="371" y="-137" on="1"/>
        <pt x="419" y="-132" on="1"/>
        <pt x="412" y="-195" on="1"/>
        <pt x="367" y="-204" on="0"/>
      </contour>
      <contour>
        <pt x="459" y="431" on="1"/>
        <pt x="389" y="445" on="0"/>
        <pt x="288" y="445" on="0"/>
        <pt x="204" y="342" on="0"/>
        <pt x="166" y="205" on="0"/>
        <pt x="166" y="97" on="0"/>
        <pt x="200" y="55" on="0"/>
        <pt x="268" y="55" on="0"/>
        <pt x="349" y="120" on="0"/>
        <pt x="376" y="153" on="1"/>
        <pt x="402" y="186" on="1"/>
      </contour>
    </TTGlyph>
    <TTGlyph name="approxequal" xMin="121" yMin="85" xMax="551" yMax="400">
      <contour>
        <pt x="435" y="270" on="1"/>
        <pt x="408" y="270" on="0"/>
        <pt x="256" y="332" on="0"/>
        <pt x="218" y="332" on="0"/>
        <pt x="165" y="308" on="0"/>
        <pt x="148" y="296" on="1"/>
        <pt x="131" y="285" on="1"/>
        <pt x="121" y="347" on="1"/>
        <pt x="183" y="400" on="0"/>
        <pt x="238" y="400" on="1"/>
        <pt x="267" y="400" on="0"/>
        <pt x="417" y="339" on="0"/>
        <pt x="436" y="339" on="1"/>
        <pt x="471" y="339" on="0"/>
        <pt x="524" y="374" on="1"/>
        <pt x="541" y="385" on="1"/>
        <pt x="551" y="324" on="1"/>
        <pt x="488" y="270" on="0"/>
      </contour>
      <contour>
        <pt x="435" y="85" on="1"/>
        <pt x="408" y="85" on="0"/>
        <pt x="256" y="147" on="0"/>
        <pt x="218" y="147" on="0"/>
        <pt x="165" y="124" on="0"/>
        <pt x="148" y="112" on="1"/>
        <pt x="131" y="100" on="1"/>
        <pt x="121" y="162" on="1"/>
        <pt x="183" y="215" on="0"/>
        <pt x="238" y="215" on="1"/>
        <pt x="267" y="215" on="0"/>
        <pt x="417" y="154" on="0"/>
        <pt x="436" y="154" on="1"/>
        <pt x="471" y="154" on="0"/>
        <pt x="524" y="188" on="1"/>
        <pt x="541" y="200" on="1"/>
        <pt x="551" y="139" on="1"/>
        <pt x="488" y="85" on="0"/>
      </contour>
    </TTGlyph>
    <TTGlyph name="aring" xMin="89" yMin="-10" xMax="546" yMax="760">
      <contour>
        <pt x="217" y="-10" on="1"/>
        <pt x="89" y="-10" on="0"/>
        <pt x="89" y="139" on="1"/>
        <pt x="89" y="222" on="0"/>
        <pt x="142" y="387" on="0"/>
        <pt x="262" y="510" on="0"/>
        <pt x="341" y="510" on="1"/>
        <pt x="402" y="510" on="0"/>
        <pt x="508" y="492" on="1"/>
        <pt x="546" y="485" on="1"/>
        <pt x="470" y="160" on="1"/>
        <pt x="456" y="104" on="0"/>
        <pt x="446" y="28" on="1"/>
        <pt x="442" y="2" on="1"/>
        <pt x="369" y="-1" on="1"/>
        <pt x="383" y="85" on="0"/>
        <pt x="387" y="106" on="1"/>
        <pt x="382" y="97" on="0"/>
        <pt x="333" y="46" on="0"/>
        <pt x="295" y="15" on="0"/>
        <pt x="241" y="-10" on="0"/>
      </contour>
      <contour>
        <pt x="459" y="431" on="1"/>
        <pt x="389" y="445" on="0"/>
        <pt x="288" y="445" on="0"/>
        <pt x="204" y="342" on="0"/>
        <pt x="166" y="205" on="0"/>
        <pt x="166" y="97" on="0"/>
        <pt x="200" y="55" on="0"/>
        <pt x="268" y="55" on="0"/>
        <pt x="349" y="120" on="0"/>
        <pt x="376" y="153" on="1"/>
        <pt x="402" y="186" on="1"/>
      </contour>
      <contour>
        <pt x="378" y="732" on="1"/>
        <pt x="409" y="760" on="0"/>
        <pt x="490" y="760" on="0"/>
        <pt x="522" y="719" on="0"/>
        <pt x="522" y="691" on="1"/>
        <pt x="522" y="683" on="0"/>
        <pt x="521" y="675" on="1"/>
        <pt x="517" y="626" on="0"/>
        <pt x="450" y="564" on="0"/>
        <pt x="361" y="564" on="0"/>
        <pt x="344" y="592" on="1"/>
        <pt x="334" y="609" on="0"/>
        <pt x="334" y="628" on="1"/>
        <pt x="334" y="693" on="0"/>
      </contour>
      <contour>
        <pt x="420" y="709" on="0"/>
        <pt x="387" y="683" on="0"/>
        <pt x="380" y="657" on="0"/>
        <pt x="380" y="639" on="0"/>
        <pt x="397" y="613" on="0"/>
        <pt x="437" y="613" on="0"/>
        <pt x="454" y="627" on="1"/>
        <pt x="477" y="647" on="0"/>
        <pt x="477" y="674" on="1"/>
        <pt x="477" y="685" on="0"/>
        <pt x="460" y="709" on="0"/>
      </contour>
    </TTGlyph>
    <TTGlyph name="aringacute" xMin="89" yMin="-10" xMax="573" yMax="926">
      <contour>
        <pt x="345" y="768" on="1"/>
        <pt x="337" y="833" on="1"/>
        <pt x="565" y="926" on="1"/>
        <pt x="573" y="853" on="1"/>
      </contour>
      <contour>
        <pt x="217" y="-10" on="1"/>
        <pt x="89" y="-10" on="0"/>
        <pt x="89" y="139" on="1"/>
        <pt x="89" y="222" on="0"/>
        <pt x="142" y="387" on="0"/>
        <pt x="262" y="510" on="0"/>
        <pt x="341" y="510" on="1"/>
        <pt x="402" y="510" on="0"/>
        <pt x="508" y="492" on="1"/>
        <pt x="546" y="485" on="1"/>
        <pt x="470" y="160" on="1"/>
        <pt x="456" y="104" on="0"/>
        <pt x="446" y="28" on="1"/>
        <pt x="442" y="2" on="1"/>
        <pt x="369" y="-1" on="1"/>
        <pt x="383" y="85" on="0"/>
        <pt x="387" y="106" on="1"/>
        <pt x="382" y="97" on="0"/>
        <pt x="333" y="46" on="0"/>
        <pt x="295" y="15" on="0"/>
        <pt x="241" y="-10" on="0"/>
      </contour>
      <contour>
        <pt x="459" y="431" on="1"/>
        <pt x="389" y="445" on="0"/>
        <pt x="288" y="445" on="0"/>
        <pt x="204" y="342" on="0"/>
        <pt x="166" y="205" on="0"/>
        <pt x="166" y="97" on="0"/>
        <pt x="200" y="55" on="0"/>
        <pt x="268" y="55" on="0"/>
        <pt x="349" y="120" on="0"/>
        <pt x="376" y="153" on="1"/>
        <pt x="402" y="186" on="1"/>
      </contour>
      <contour>
        <pt x="352" y="712" on="1"/>
        <pt x="383" y="740" on="0"/>
        <pt x="464" y="740" on="0"/>
        <pt x="496" y="699" on="0"/>
        <pt x="496" y="671" on="1"/>
        <pt x="496" y="663" on="0"/>
        <pt x="495" y="655" on="1"/>
        <pt x="491" y="606" on="0"/>
        <pt x="424" y="544" on="0"/>
        <pt x="335" y="544" on="0"/>
        <pt x="318" y="572" on="1"/>
        <pt x="308" y="589" on="0"/>
        <pt x="308" y="608" on="1"/>
        <pt x="308" y="673" on="0"/>
      </contour>
      <contour>
        <pt x="394" y="689" on="0"/>
        <pt x="361" y="663" on="0"/>
        <pt x="354" y="637" on="0"/>
        <pt x="354" y="619" on="0"/>
        <pt x="371" y="593" on="0"/>
        <pt x="411" y="593" on="0"/>
        <pt x="428" y="607" on="1"/>
        <pt x="451" y="627" on="0"/>
        <pt x="451" y="654" on="1"/>
        <pt x="451" y="665" on="0"/>
        <pt x="434" y="689" on="0"/>
      </contour>
    </TTGlyph>
    <TTGlyph name="asciicircum" xMin="116" yMin="319" xMax="560" yMax="660">
      <contour>
        <pt x="480" y="319" on="1"/>
        <pt x="336" y="586" on="1"/>
        <pt x="196" y="319" on="1"/>
        <pt x="116" y="319" on="1"/>
        <pt x="302" y="660" on="1"/>
        <pt x="369" y="660" on="1"/>
        <pt x="560" y="319" on="1"/>
      </contour>
    </TTGlyph>
    <TTGlyph name="asciitilde" xMin="127" yMin="195" xMax="554" yMax="325">
      <contour>
        <pt x="439" y="195" on="1"/>
        <pt x="412" y="195" on="0"/>
        <pt x="261" y="257" on="0"/>
        <pt x="224" y="257" on="0"/>
        <pt x="171" y="234" on="0"/>
        <pt x="154" y="222" on="1"/>
        <pt x="137" y="210" on="1"/>
        <pt x="127" y="272" on="1"/>
        <pt x="189" y="325" on="0"/>
        <pt x="243" y="325" on="1"/>
        <pt x="272" y="325" on="0"/>
        <pt x="421" y="264" on="0"/>
        <pt x="440" y="264" on="1"/>
        <pt x="476" y="264" on="0"/>
        <pt x="527" y="298" on="1"/>
        <pt x="544" y="310" on="1"/>
        <pt x="554" y="249" on="1"/>
        <pt x="491" y="195" on="0"/>
      </contour>
    </TTGlyph>
    <TTGlyph name="asterisk" xMin="174" yMin="371" xMax="492" yMax="704">
      <contour>
        <pt x="492" y="511" on="1"/>
        <pt x="361" y="511" on="1"/>
        <pt x="401" y="386" on="1"/>
        <pt x="353" y="371" on="1"/>
        <pt x="311" y="497" on="1"/>
        <pt x="204" y="418" on="1"/>
        <pt x="174" y="458" on="1"/>
        <pt x="282" y="537" on="1"/>
        <pt x="176" y="614" on="1"/>
        <pt x="206" y="656" on="1"/>
        <pt x="313" y="578" on="1"/>
        <pt x="353" y="704" on="1"/>
        <pt x="403" y="688" on="1"/>
        <pt x="362" y="561" on="1"/>
        <pt x="492" y="561" on="1"/>
      </contour>
    </TTGlyph>
    <TTGlyph name="at" xMin="87" yMin="-201" xMax="983" yMax="721">
      <contour>
        <pt x="639" y="721" on="1"/>
        <pt x="734" y="721" on="0"/>
        <pt x="871" y="676" on="0"/>
        <pt x="910" y="638" on="1"/>
        <pt x="982" y="568" on="0"/>
        <pt x="982" y="442" on="1"/>
        <pt x="982" y="378" on="0"/>
        <pt x="933" y="172" on="0"/>
        <pt x="860" y="35" on="0"/>
        <pt x="782" y="-10" on="0"/>
        <pt x="724" y="-10" on="1"/>
        <pt x="638" y="-10" on="0"/>
        <pt x="626" y="46" on="1"/>
        <pt x="514" y="-10" on="0"/>
        <pt x="435" y="-10" on="1"/>
        <pt x="395" y="-10" on="0"/>
        <pt x="342" y="20" on="0"/>
        <pt x="330" y="42" on="1"/>
        <pt x="310" y="76" on="0"/>
        <pt x="310" y="138" on="1"/>
        <pt x="310" y="170" on="0"/>
        <pt x="319" y="216" on="1"/>
        <pt x="373" y="510" on="0"/>
        <pt x="573" y="510" on="1"/>
        <pt x="624" y="510" on="0"/>
        <pt x="768" y="485" on="1"/>
        <pt x="687" y="155" on="0"/>
        <pt x="687" y="100" on="1"/>
        <pt x="687" y="77" on="0"/>
        <pt x="712" y="61" on="0"/>
        <pt x="740" y="61" on="1"/>
        <pt x="790" y="61" on="0"/>
        <pt x="860" y="161" on="0"/>
        <pt x="894" y="307" on="1"/>
        <pt x="913" y="384" on="0"/>
        <pt x="913" y="475" on="0"/>
        <pt x="890" y="558" on="0"/>
        <pt x="859" y="588" on="1"/>
        <pt x="790" y="655" on="0"/>
        <pt x="626" y="655" on="1"/>
        <pt x="439" y="655" on="0"/>
        <pt x="228" y="471" on="0"/>
        <pt x="178" y="265" on="1"/>
        <pt x="159" y="184" on="0"/>
        <pt x="159" y="120" on="1"/>
        <pt x="159" y="-135" on="0"/>
        <pt x="459" y="-135" on="1"/>
        <pt x="595" y="-126" on="1"/>
        <pt x="582" y="-192" on="1"/>
        <pt x="486" y="-201" on="0"/>
        <pt x="358" y="-201" on="0"/>
        <pt x="229" y="-163" on="0"/>
        <pt x="190" y="-129" on="1"/>
        <pt x="107" y="-58" on="0"/>
        <pt x="92" y="46" on="1"/>
        <pt x="87" y="85" on="0"/>
        <pt x="87" y="138" on="0"/>
        <pt x="91" y="207" on="0"/>
        <pt x="105" y="265" on="1"/>
        <pt x="163" y="512" on="0"/>
        <pt x="415" y="721" on="0"/>
      </contour>
      <contour>
        <pt x="453" y="57" on="1"/>
        <pt x="519" y="57" on="0"/>
        <pt x="613" y="109" on="1"/>
        <pt x="619" y="173" on="0"/>
        <pt x="682" y="431" on="1"/>
        <pt x="621" y="445" on="0"/>
        <pt x="570" y="445" on="1"/>
        <pt x="499" y="445" on="0"/>
        <pt x="418" y="328" on="0"/>
        <pt x="394" y="215" on="1"/>
        <pt x="386" y="168" on="0"/>
        <pt x="386" y="103" on="0"/>
        <pt x="419" y="57" on="0"/>
      </contour>
    </TTGlyph>
    <TTGlyph name="at.cap" xMin="95" yMin="-109" xMax="991" yMax="813">
      <contour>
        <pt x="647" y="813" on="1"/>
        <pt x="742" y="813" on="0"/>
        <pt x="879" y="768" on="0"/>
        <pt x="918" y="730" on="1"/>
        <pt x="990" y="660" on="0"/>
        <pt x="990" y="534" on="1"/>
        <pt x="990" y="470" on="0"/>
        <pt x="941" y="264" on="0"/>
        <pt x="868" y="127" on="0"/>
        <pt x="790" y="82" on="0"/>
        <pt x="732" y="82" on="1"/>
        <pt x="646" y="82" on="0"/>
        <pt x="634" y="138" on="1"/>
        <pt x="522" y="82" on="0"/>
        <pt x="443" y="82" on="1"/>
        <pt x="403" y="82" on="0"/>
        <pt x="350" y="112" on="0"/>
        <pt x="338" y="134" on="1"/>
        <pt x="318" y="168" on="0"/>
        <pt x="318" y="230" on="1"/>
        <pt x="318" y="262" on="0"/>
        <pt x="327" y="308" on="1"/>
        <pt x="381" y="602" on="0"/>
        <pt x="581" y="602" on="1"/>
        <pt x="632" y="602" on="0"/>
        <pt x="776" y="577" on="1"/>
        <pt x="695" y="247" on="0"/>
        <pt x="695" y="192" on="1"/>
        <pt x="695" y="169" on="0"/>
        <pt x="720" y="153" on="0"/>
        <pt x="748" y="153" on="1"/>
        <pt x="798" y="153" on="0"/>
        <pt x="868" y="253" on="0"/>
        <pt x="902" y="399" on="1"/>
        <pt x="921" y="476" on="0"/>
        <pt x="921" y="567" on="0"/>
        <pt x="898" y="650" on="0"/>
        <pt x="867" y="680" on="1"/>
        <pt x="798" y="747" on="0"/>
        <pt x="634" y="747" on="1"/>
        <pt x="447" y="747" on="0"/>
        <pt x="236" y="563" on="0"/>
        <pt x="186" y="357" on="1"/>
        <pt x="167" y="276" on="0"/>
        <pt x="167" y="212" on="1"/>
        <pt x="167" y="-43" on="0"/>
        <pt x="467" y="-43" on="1"/>
        <pt x="603" y="-34" on="1"/>
        <pt x="590" y="-100" on="1"/>
        <pt x="494" y="-109" on="0"/>
        <pt x="366" y="-109" on="0"/>
        <pt x="237" y="-71" on="0"/>
        <pt x="198" y="-37" on="1"/>
        <pt x="115" y="34" on="0"/>
        <pt x="100" y="138" on="1"/>
        <pt x="95" y="177" on="0"/>
        <pt x="95" y="230" on="0"/>
        <pt x="99" y="299" on="0"/>
        <pt x="113" y="357" on="1"/>
        <pt x="171" y="604" on="0"/>
        <pt x="423" y="813" on="0"/>
      </contour>
      <contour>
        <pt x="461" y="149" on="1"/>
        <pt x="527" y="149" on="0"/>
        <pt x="621" y="201" on="1"/>
        <pt x="627" y="265" on="0"/>
        <pt x="690" y="523" on="1"/>
        <pt x="629" y="537" on="0"/>
        <pt x="578" y="537" on="1"/>
        <pt x="507" y="537" on="0"/>
        <pt x="426" y="420" on="0"/>
        <pt x="402" y="307" on="1"/>
        <pt x="394" y="260" on="0"/>
        <pt x="394" y="195" on="0"/>
        <pt x="427" y="149" on="0"/>
      </contour>
    </TTGlyph>
    <TTGlyph name="atilde" xMin="89" yMin="-10" xMax="580" yMax="728">
      <contour>
        <pt x="217" y="-10" on="1"/>
        <pt x="89" y="-10" on="0"/>
        <pt x="89" y="139" on="1"/>
        <pt x="89" y="222" on="0"/>
        <pt x="142" y="387" on="0"/>
        <pt x="262" y="510" on="0"/>
        <pt x="341" y="510" on="1"/>
        <pt x="402" y="510" on="0"/>
        <pt x="508" y="492" on="1"/>
        <pt x="546" y="485" on="1"/>
        <pt x="470" y="160" on="1"/>
        <pt x="456" y="104" on="0"/>
        <pt x="446" y="28" on="1"/>
        <pt x="442" y="2" on="1"/>
        <pt x="369" y="-1" on="1"/>
        <pt x="383" y="85" on="0"/>
        <pt x="387" y="106" on="1"/>
        <pt x="382" y="97" on="0"/>
        <pt x="333" y="46" on="0"/>
        <pt x="295" y="15" on="0"/>
        <pt x="241" y="-10" on="0"/>
      </contour>
      <contour>
        <pt x="459" y="431" on="1"/>
        <pt x="389" y="445" on="0"/>
        <pt x="288" y="445" on="0"/>
        <pt x="204" y="342" on="0"/>
        <pt x="166" y="205" on="0"/>
        <pt x="166" y="97" on="0"/>
        <pt x="200" y="55" on="0"/>
        <pt x="268" y="55" on="0"/>
        <pt x="349" y="120" on="0"/>
        <pt x="376" y="153" on="1"/>
        <pt x="402" y="186" on="1"/>
      </contour>
      <contour>
        <pt x="486" y="614" on="1"/>
        <pt x="465" y="614" on="0"/>
        <pt x="371" y="662" on="0"/>
        <pt x="360" y="662" on="1"/>
        <pt x="339" y="662" on="0"/>
        <pt x="293" y="630" on="1"/>
        <pt x="278" y="619" on="1"/>
        <pt x="275" y="675" on="1"/>
        <pt x="337" y="728" on="0"/>
        <pt x="374" y="728" on="1"/>
        <pt x="398" y="728" on="0"/>
        <pt x="489" y="680" on="0"/>
        <pt x="499" y="680" on="1"/>
        <pt x="518" y="680" on="0"/>
        <pt x="560" y="710" on="1"/>
        <pt x="575" y="721" on="1"/>
        <pt x="580" y="665" on="1"/>
        <pt x="523" y="614" on="0"/>
      </contour>
    </TTGlyph>
    <TTGlyph name="b" xMin="69" yMin="-10" xMax="525" yMax="718">
      <contour>
        <pt x="392" y="510" on="1"/>
        <pt x="467" y="510" on="0"/>
        <pt x="525" y="430" on="0"/>
        <pt x="525" y="357" on="1"/>
        <pt x="525" y="262" on="0"/>
        <pt x="487" y="168" on="1"/>
        <pt x="443" y="60" on="0"/>
        <pt x="366" y="15" on="1"/>
        <pt x="322" y="-10" on="0"/>
        <pt x="278" y="-10" on="1"/>
        <pt x="194" y="-10" on="0"/>
        <pt x="102" y="8" on="1"/>
        <pt x="69" y="15" on="1"/>
        <pt x="231" y="718" on="1"/>
        <pt x="305" y="718" on="1"/>
        <pt x="240" y="434" on="1"/>
        <pt x="289" y="483" on="0"/>
        <pt x="346" y="502" on="1"/>
        <pt x="370" y="510" on="0"/>
      </contour>
      <contour>
        <pt x="155" y="68" on="1"/>
        <pt x="225" y="55" on="0"/>
        <pt x="317" y="55" on="0"/>
        <pt x="391" y="125" on="0"/>
        <pt x="410" y="176" on="1"/>
        <pt x="448" y="280" on="0"/>
        <pt x="448" y="398" on="0"/>
        <pt x="417" y="445" on="0"/>
        <pt x="370" y="445" on="1"/>
        <pt x="342" y="445" on="0"/>
        <pt x="268" y="402" on="0"/>
        <pt x="246" y="380" on="1"/>
        <pt x="223" y="359" on="1"/>
      </contour>
    </TTGlyph>
    <TTGlyph name="backslash" xMin="188" yMin="0" xMax="398" yMax="701">
      <contour>
        <pt x="398" y="8" on="1"/>
        <pt x="320" y="0" on="1"/>
        <pt x="188" y="693" on="1"/>
        <pt x="267" y="701" on="1"/>
      </contour>
    </TTGlyph>
    <TTGlyph name="bar" xMin="176" yMin="-222" xMax="250" yMax="718">
      <contour>
        <pt x="176" y="-222" on="1"/>
        <pt x="176" y="718" on="1"/>
        <pt x="250" y="718" on="1"/>
        <pt x="250" y="-222" on="1"/>
      </contour>
    </TTGlyph>
    <TTGlyph name="braceleft" xMin="83" yMin="-127" xMax="460" yMax="753">
      <contour>
        <pt x="230" y="222" on="1"/>
        <pt x="230" y="204" on="0"/>
        <pt x="182" y="38" on="0"/>
        <pt x="182" y="10" on="1"/>
        <pt x="182" y="-59" on="0"/>
        <pt x="271" y="-59" on="1"/>
        <pt x="252" y="-127" on="1"/>
        <pt x="108" y="-124" on="0"/>
        <pt x="108" y="-12" on="1"/>
        <pt x="108" y="19" on="0"/>
        <pt x="155" y="187" on="0"/>
        <pt x="155" y="210" on="1"/>
        <pt x="155" y="258" on="0"/>
        <pt x="83" y="285" on="1"/>
        <pt x="97" y="344" on="1"/>
        <pt x="162" y="361" on="0"/>
        <pt x="207" y="409" on="0"/>
        <pt x="218" y="459" on="1"/>
        <pt x="221" y="472" on="0"/>
        <pt x="227" y="504" on="1"/>
        <pt x="242" y="587" on="0"/>
        <pt x="247" y="599" on="1"/>
        <pt x="272" y="679" on="0"/>
        <pt x="369" y="749" on="0"/>
        <pt x="460" y="753" on="1"/>
        <pt x="448" y="685" on="1"/>
        <pt x="384" y="681" on="0"/>
        <pt x="323" y="626" on="0"/>
        <pt x="310" y="570" on="1"/>
        <pt x="309" y="564" on="0"/>
        <pt x="290" y="461" on="0"/>
        <pt x="288" y="450" on="1"/>
        <pt x="274" y="388" on="0"/>
        <pt x="221" y="330" on="0"/>
        <pt x="167" y="312" on="1"/>
        <pt x="230" y="283" on="0"/>
      </contour>
    </TTGlyph>
    <TTGlyph name="braceleft.cap" xMin="90" yMin="-97" xMax="467" yMax="783">
      <contour>
        <pt x="237" y="252" on="1"/>
        <pt x="237" y="234" on="0"/>
        <pt x="189" y="68" on="0"/>
        <pt x="189" y="40" on="1"/>
        <pt x="189" y="-29" on="0"/>
        <pt x="278" y="-29" on="1"/>
        <pt x="259" y="-97" on="1"/>
        <pt x="115" y="-94" on="0"/>
        <pt x="115" y="18" on="1"/>
        <pt x="115" y="49" on="0"/>
        <pt x="162" y="217" on="0"/>
        <pt x="162" y="240" on="1"/>
        <pt x="162" y="288" on="0"/>
        <pt x="90" y="315" on="1"/>
        <pt x="104" y="374" on="1"/>
        <pt x="169" y="391" on="0"/>
        <pt x="214" y="439" on="0"/>
        <pt x="225" y="489" on="1"/>
        <pt x="228" y="502" on="0"/>
        <pt x="234" y="534" on="1"/>
        <pt x="249" y="617" on="0"/>
        <pt x="254" y="629" on="1"/>
        <pt x="279" y="709" on="0"/>
        <pt x="376" y="779" on="0"/>
        <pt x="467" y="783" on="1"/>
        <pt x="455" y="715" on="1"/>
        <pt x="391" y="711" on="0"/>
        <pt x="330" y="656" on="0"/>
        <pt x="317" y="600" on="1"/>
        <pt x="316" y="594" on="0"/>
        <pt x="297" y="491" on="0"/>
        <pt x="295" y="480" on="1"/>
        <pt x="281" y="418" on="0"/>
        <pt x="228" y="360" on="0"/>
        <pt x="174" y="342" on="1"/>
        <pt x="237" y="313" on="0"/>
      </contour>
    </TTGlyph>
    <TTGlyph name="braceright" xMin="-4" yMin="-130" xMax="373" yMax="750">
      <contour>
        <pt x="226" y="401" on="1"/>
        <pt x="226" y="420" on="0"/>
        <pt x="274" y="586" on="0"/>
        <pt x="274" y="613" on="1"/>
        <pt x="274" y="682" on="0"/>
        <pt x="185" y="682" on="1"/>
        <pt x="204" y="750" on="1"/>
        <pt x="348" y="747" on="0"/>
        <pt x="348" y="635" on="1"/>
        <pt x="348" y="604" on="0"/>
        <pt x="301" y="436" on="0"/>
        <pt x="301" y="412" on="1"/>
        <pt x="301" y="365" on="0"/>
        <pt x="373" y="338" on="1"/>
        <pt x="359" y="279" on="1"/>
        <pt x="294" y="262" on="0"/>
        <pt x="249" y="214" on="0"/>
        <pt x="238" y="164" on="1"/>
        <pt x="235" y="151" on="0"/>
        <pt x="229" y="118" on="1"/>
        <pt x="214" y="36" on="0"/>
        <pt x="209" y="24" on="1"/>
        <pt x="184" y="-56" on="0"/>
        <pt x="87" y="-126" on="0"/>
        <pt x="-4" y="-130" on="1"/>
        <pt x="8" y="-62" on="1"/>
        <pt x="72" y="-58" on="0"/>
        <pt x="133" y="-3" on="0"/>
        <pt x="146" y="53" on="1"/>
        <pt x="147" y="59" on="0"/>
        <pt x="166" y="162" on="0"/>
        <pt x="168" y="173" on="1"/>
        <pt x="182" y="235" on="0"/>
        <pt x="235" y="293" on="0"/>
        <pt x="289" y="311" on="1"/>
        <pt x="226" y="340" on="0"/>
      </contour>
    </TTGlyph>
    <TTGlyph name="braceright.cap" xMin="4" yMin="-100" xMax="381" yMax="780">
      <contour>
        <pt x="234" y="431" on="1"/>
        <pt x="234" y="450" on="0"/>
        <pt x="282" y="616" on="0"/>
        <pt x="282" y="643" on="1"/>
        <pt x="282" y="712" on="0"/>
        <pt x="193" y="712" on="1"/>
        <pt x="212" y="780" on="1"/>
        <pt x="356" y="777" on="0"/>
        <pt x="356" y="665" on="1"/>
        <pt x="356" y="634" on="0"/>
        <pt x="309" y="466" on="0"/>
        <pt x="309" y="442" on="1"/>
        <pt x="309" y="395" on="0"/>
        <pt x="381" y="368" on="1"/>
        <pt x="367" y="309" on="1"/>
        <pt x="302" y="292" on="0"/>
        <pt x="257" y="244" on="0"/>
        <pt x="246" y="194" on="1"/>
        <pt x="243" y="181" on="0"/>
        <pt x="237" y="148" on="1"/>
        <pt x="222" y="66" on="0"/>
        <pt x="217" y="54" on="1"/>
        <pt x="192" y="-26" on="0"/>
        <pt x="95" y="-96" on="0"/>
        <pt x="4" y="-100" on="1"/>
        <pt x="16" y="-32" on="1"/>
        <pt x="80" y="-28" on="0"/>
        <pt x="141" y="27" on="0"/>
        <pt x="154" y="83" on="1"/>
        <pt x="155" y="89" on="0"/>
        <pt x="174" y="192" on="0"/>
        <pt x="176" y="203" on="1"/>
        <pt x="190" y="265" on="0"/>
        <pt x="243" y="323" on="0"/>
        <pt x="297" y="341" on="1"/>
        <pt x="234" y="370" on="0"/>
      </contour>
    </TTGlyph>
    <TTGlyph name="bracketleft" xMin="25" yMin="-122" xMax="423" yMax="747">
      <contour>
        <pt x="228" y="747" on="1"/>
        <pt x="423" y="747" on="1"/>
        <pt x="408" y="682" on="1"/>
        <pt x="289" y="682" on="1"/>
        <pt x="116" y="-57" on="1"/>
        <pt x="235" y="-57" on="1"/>
        <pt x="218" y="-122" on="1"/>
        <pt x="25" y="-122" on="1"/>
      </contour>
    </TTGlyph>
    <TTGlyph name="bracketleft.cap" xMin="32" yMin="-92" xMax="430" yMax="777">
      <contour>
        <pt x="235" y="777" on="1"/>
        <pt x="430" y="777" on="1"/>
        <pt x="415" y="712" on="1"/>
        <pt x="296" y="712" on="1"/>
        <pt x="123" y="-27" on="1"/>
        <pt x="242" y="-27" on="1"/>
        <pt x="225" y="-92" on="1"/>
        <pt x="32" y="-92" on="1"/>
      </contour>
    </TTGlyph>
    <TTGlyph name="bracketright" xMin="-2" yMin="-121" xMax="396" yMax="748">
      <contour>
        <pt x="193" y="-121" on="1"/>
        <pt x="-2" y="-121" on="1"/>
        <pt x="13" y="-56" on="1"/>
        <pt x="132" y="-56" on="1"/>
        <pt x="305" y="683" on="1"/>
        <pt x="186" y="683" on="1"/>
        <pt x="203" y="748" on="1"/>
        <pt x="396" y="748" on="1"/>
      </contour>
    </TTGlyph>
    <TTGlyph name="bracketright.cap" xMin="4" yMin="-91" xMax="402" yMax="778">
      <contour>
        <pt x="199" y="-91" on="1"/>
        <pt x="4" y="-91" on="1"/>
        <pt x="19" y="-26" on="1"/>
        <pt x="138" y="-26" on="1"/>
        <pt x="311" y="713" on="1"/>
        <pt x="192" y="713" on="1"/>
        <pt x="209" y="778" on="1"/>
        <pt x="402" y="778" on="1"/>
      </contour>
    </TTGlyph>
    <TTGlyph name="breve" xMin="233" yMin="593" xMax="526" yMax="731">
      <contour>
        <pt x="302" y="731" on="1"/>
        <pt x="299" y="719" on="0"/>
        <pt x="299" y="690" on="0"/>
        <pt x="325" y="655" on="0"/>
        <pt x="363" y="655" on="1"/>
        <pt x="439" y="655" on="0"/>
        <pt x="461" y="731" on="1"/>
        <pt x="526" y="731" on="1"/>
        <pt x="486" y="593" on="0"/>
        <pt x="345" y="593" on="1"/>
        <pt x="280" y="593" on="0"/>
        <pt x="252" y="630" on="1"/>
        <pt x="233" y="656" on="0"/>
        <pt x="233" y="695" on="1"/>
        <pt x="233" y="712" on="0"/>
        <pt x="237" y="731" on="1"/>
      </contour>
    </TTGlyph>
    <TTGlyph name="breve.cap" xMin="283" yMin="796" xMax="568" yMax="923">
      <contour>
        <pt x="398" y="796" on="1"/>
        <pt x="283" y="796" on="0"/>
        <pt x="283" y="893" on="1"/>
        <pt x="283" y="907" on="0"/>
        <pt x="286" y="923" on="1"/>
        <pt x="352" y="923" on="1"/>
        <pt x="350" y="913" on="0"/>
        <pt x="350" y="882" on="0"/>
        <pt x="377" y="856" on="0"/>
        <pt x="442" y="856" on="0"/>
        <pt x="493" y="893" on="0"/>
        <pt x="502" y="923" on="1"/>
        <pt x="568" y="923" on="1"/>
        <pt x="531" y="796" on="0"/>
      </contour>
    </TTGlyph>
    <TTGlyph name="brokenbar" xMin="179" yMin="-222" xMax="253" yMax="718">
      <contour>
        <pt x="179" y="718" on="1"/>
        <pt x="253" y="718" on="1"/>
        <pt x="253" y="344" on="1"/>
        <pt x="179" y="344" on="1"/>
      </contour>
      <contour>
        <pt x="179" y="156" on="1"/>
        <pt x="253" y="156" on="1"/>
        <pt x="253" y="-222" on="1"/>
        <pt x="179" y="-222" on="1"/>
      </contour>
    </TTGlyph>
    <TTGlyph name="bullet" xMin="175" yMin="106" xMax="425" yMax="392">
      <contour>
        <pt x="175" y="106" on="1"/>
        <pt x="175" y="392" on="1"/>
        <pt x="425" y="392" on="1"/>
        <pt x="425" y="106" on="1"/>
      </contour>
    </TTGlyph>
    <TTGlyph name="c" xMin="92" yMin="-10" xMax="480" yMax="510">
      <contour>
        <pt x="355" y="510" on="1"/>
        <pt x="402" y="510" on="0"/>
        <pt x="462" y="496" on="1"/>
        <pt x="480" y="491" on="1"/>
        <pt x="461" y="433" on="1"/>
        <pt x="396" y="445" on="0"/>
        <pt x="353" y="445" on="1"/>
        <pt x="293" y="445" on="0"/>
        <pt x="250" y="401" on="1"/>
        <pt x="169" y="320" on="0"/>
        <pt x="169" y="156" on="1"/>
        <pt x="169" y="106" on="0"/>
        <pt x="217" y="55" on="0"/>
        <pt x="272" y="55" on="1"/>
        <pt x="311" y="55" on="0"/>
        <pt x="364" y="66" on="1"/>
        <pt x="384" y="70" on="1"/>
        <pt x="379" y="11" on="1"/>
        <pt x="310" y="-10" on="0"/>
        <pt x="171" y="-10" on="0"/>
        <pt x="92" y="69" on="0"/>
        <pt x="92" y="142" on="1"/>
        <pt x="92" y="356" on="0"/>
        <pt x="208" y="457" on="1"/>
        <pt x="269" y="510" on="0"/>
      </contour>
    </TTGlyph>
    <TTGlyph name="cacute" xMin="92" yMin="-10" xMax="522" yMax="748">
      <contour>
        <pt x="355" y="510" on="1"/>
        <pt x="402" y="510" on="0"/>
        <pt x="462" y="496" on="1"/>
        <pt x="480" y="491" on="1"/>
        <pt x="461" y="433" on="1"/>
        <pt x="396" y="445" on="0"/>
        <pt x="353" y="445" on="1"/>
        <pt x="293" y="445" on="0"/>
        <pt x="250" y="401" on="1"/>
        <pt x="169" y="320" on="0"/>
        <pt x="169" y="156" on="1"/>
        <pt x="169" y="106" on="0"/>
        <pt x="217" y="55" on="0"/>
        <pt x="272" y="55" on="1"/>
        <pt x="311" y="55" on="0"/>
        <pt x="364" y="66" on="1"/>
        <pt x="384" y="70" on="1"/>
        <pt x="379" y="11" on="1"/>
        <pt x="310" y="-10" on="0"/>
        <pt x="171" y="-10" on="0"/>
        <pt x="92" y="69" on="0"/>
        <pt x="92" y="142" on="1"/>
        <pt x="92" y="356" on="0"/>
        <pt x="208" y="457" on="1"/>
        <pt x="269" y="510" on="0"/>
      </contour>
      <contour>
        <pt x="294" y="596" on="1"/>
        <pt x="287" y="654" on="1"/>
        <pt x="515" y="748" on="1"/>
        <pt x="522" y="682" on="1"/>
      </contour>
    </TTGlyph>
    <TTGlyph name="caron" xMin="418" yMin="587" xMax="703" yMax="738">
      <contour>
        <pt x="545" y="587" on="1"/>
        <pt x="503" y="587" on="1"/>
        <pt x="418" y="738" on="1"/>
        <pt x="487" y="738" on="1"/>
        <pt x="538" y="649" on="1"/>
        <pt x="628" y="738" on="1"/>
        <pt x="703" y="738" on="1"/>
      </contour>
    </TTGlyph>
    <TTGlyph name="caron.cap" xMin="274" yMin="792" xMax="576" yMax="929">
      <contour>
        <pt x="576" y="929" on="1"/>
        <pt x="419" y="792" on="1"/>
        <pt x="372" y="792" on="1"/>
        <pt x="274" y="929" on="1"/>
        <pt x="348" y="929" on="1"/>
        <pt x="406" y="847" on="1"/>
        <pt x="499" y="929" on="1"/>
      </contour>
    </TTGlyph>
    <TTGlyph name="ccaron" xMin="92" yMin="-10" xMax="550" yMax="738">
      <contour>
        <pt x="392" y="587" on="1"/>
        <pt x="350" y="587" on="1"/>
        <pt x="265" y="738" on="1"/>
        <pt x="334" y="738" on="1"/>
        <pt x="385" y="649" on="1"/>
        <pt x="475" y="738" on="1"/>
        <pt x="550" y="738" on="1"/>
      </contour>
      <contour>
        <pt x="355" y="510" on="1"/>
        <pt x="402" y="510" on="0"/>
        <pt x="462" y="496" on="1"/>
        <pt x="480" y="491" on="1"/>
        <pt x="461" y="433" on="1"/>
        <pt x="396" y="445" on="0"/>
        <pt x="353" y="445" on="1"/>
        <pt x="293" y="445" on="0"/>
        <pt x="250" y="401" on="1"/>
        <pt x="169" y="320" on="0"/>
        <pt x="169" y="156" on="1"/>
        <pt x="169" y="106" on="0"/>
        <pt x="217" y="55" on="0"/>
        <pt x="272" y="55" on="1"/>
        <pt x="311" y="55" on="0"/>
        <pt x="364" y="66" on="1"/>
        <pt x="384" y="70" on="1"/>
        <pt x="379" y="11" on="1"/>
        <pt x="310" y="-10" on="0"/>
        <pt x="171" y="-10" on="0"/>
        <pt x="92" y="69" on="0"/>
        <pt x="92" y="142" on="1"/>
        <pt x="92" y="356" on="0"/>
        <pt x="208" y="457" on="1"/>
        <pt x="269" y="510" on="0"/>
      </contour>
    </TTGlyph>
    <TTGlyph name="ccedilla" xMin="92" yMin="-211" xMax="480" yMax="510">
      <contour>
        <pt x="244" y="-45" on="1"/>
        <pt x="329" y="-45" on="0"/>
        <pt x="329" y="-100" on="1"/>
        <pt x="329" y="-111" on="0"/>
        <pt x="326" y="-124" on="1"/>
        <pt x="307" y="-211" on="0"/>
        <pt x="218" y="-211" on="1"/>
        <pt x="175" y="-211" on="0"/>
        <pt x="148" y="-206" on="1"/>
        <pt x="138" y="-204" on="1"/>
        <pt x="151" y="-153" on="1"/>
        <pt x="188" y="-156" on="0"/>
        <pt x="213" y="-156" on="1"/>
        <pt x="254" y="-156" on="0"/>
        <pt x="264" y="-120" on="1"/>
        <pt x="269" y="-101" on="0"/>
        <pt x="250" y="-87" on="0"/>
        <pt x="230" y="-87" on="1"/>
        <pt x="191" y="-87" on="1"/>
        <pt x="209" y="-7" on="1"/>
        <pt x="92" y="11" on="0"/>
        <pt x="92" y="142" on="1"/>
        <pt x="92" y="356" on="0"/>
        <pt x="208" y="457" on="1"/>
        <pt x="269" y="510" on="0"/>
        <pt x="355" y="510" on="1"/>
        <pt x="402" y="510" on="0"/>
        <pt x="462" y="496" on="1"/>
        <pt x="480" y="491" on="1"/>
        <pt x="461" y="433" on="1"/>
        <pt x="396" y="445" on="0"/>
        <pt x="353" y="445" on="1"/>
        <pt x="293" y="445" on="0"/>
        <pt x="250" y="401" on="1"/>
        <pt x="169" y="320" on="0"/>
        <pt x="169" y="156" on="1"/>
        <pt x="169" y="106" on="0"/>
        <pt x="217" y="55" on="0"/>
        <pt x="272" y="55" on="1"/>
        <pt x="311" y="55" on="0"/>
        <pt x="364" y="66" on="1"/>
        <pt x="384" y="70" on="1"/>
        <pt x="379" y="11" on="1"/>
        <pt x="310" y="-10" on="0"/>
        <pt x="248" y="-10" on="1"/>
        <pt x="239" y="-45" on="1"/>
      </contour>
    </TTGlyph>
    <TTGlyph name="ccircumflex" xMin="92" yMin="-10" xMax="508" yMax="738">
      <contour>
        <pt x="355" y="510" on="1"/>
        <pt x="402" y="510" on="0"/>
        <pt x="462" y="496" on="1"/>
        <pt x="480" y="491" on="1"/>
        <pt x="461" y="433" on="1"/>
        <pt x="396" y="445" on="0"/>
        <pt x="353" y="445" on="1"/>
        <pt x="293" y="445" on="0"/>
        <pt x="250" y="401" on="1"/>
        <pt x="169" y="320" on="0"/>
        <pt x="169" y="156" on="1"/>
        <pt x="169" y="106" on="0"/>
        <pt x="217" y="55" on="0"/>
        <pt x="272" y="55" on="1"/>
        <pt x="311" y="55" on="0"/>
        <pt x="364" y="66" on="1"/>
        <pt x="384" y="70" on="1"/>
        <pt x="379" y="11" on="1"/>
        <pt x="310" y="-10" on="0"/>
        <pt x="171" y="-10" on="0"/>
        <pt x="92" y="69" on="0"/>
        <pt x="92" y="142" on="1"/>
        <pt x="92" y="356" on="0"/>
        <pt x="208" y="457" on="1"/>
        <pt x="269" y="510" on="0"/>
      </contour>
      <contour>
        <pt x="226" y="587" on="1"/>
        <pt x="381" y="738" on="1"/>
        <pt x="421" y="738" on="1"/>
        <pt x="508" y="587" on="1"/>
        <pt x="439" y="587" on="1"/>
        <pt x="391" y="673" on="1"/>
        <pt x="302" y="587" on="1"/>
      </contour>
    </TTGlyph>
    <TTGlyph name="cdotaccent" xMin="92" yMin="-10" xMax="480" yMax="694">
      <contour>
        <pt x="355" y="510" on="1"/>
        <pt x="402" y="510" on="0"/>
        <pt x="462" y="496" on="1"/>
        <pt x="480" y="491" on="1"/>
        <pt x="461" y="433" on="1"/>
        <pt x="396" y="445" on="0"/>
        <pt x="353" y="445" on="1"/>
        <pt x="293" y="445" on="0"/>
        <pt x="250" y="401" on="1"/>
        <pt x="169" y="320" on="0"/>
        <pt x="169" y="156" on="1"/>
        <pt x="169" y="106" on="0"/>
        <pt x="217" y="55" on="0"/>
        <pt x="272" y="55" on="1"/>
        <pt x="311" y="55" on="0"/>
        <pt x="364" y="66" on="1"/>
        <pt x="384" y="70" on="1"/>
        <pt x="379" y="11" on="1"/>
        <pt x="310" y="-10" on="0"/>
        <pt x="171" y="-10" on="0"/>
        <pt x="92" y="69" on="0"/>
        <pt x="92" y="142" on="1"/>
        <pt x="92" y="356" on="0"/>
        <pt x="208" y="457" on="1"/>
        <pt x="269" y="510" on="0"/>
      </contour>
      <contour>
        <pt x="334" y="605" on="1"/>
        <pt x="355" y="694" on="1"/>
        <pt x="419" y="694" on="1"/>
        <pt x="398" y="605" on="1"/>
      </contour>
    </TTGlyph>
    <TTGlyph name="cedilla" xMin="312" yMin="-211" xMax="504" yMax="5">
      <contour>
        <pt x="418" y="-45" on="1"/>
        <pt x="503" y="-45" on="0"/>
        <pt x="503" y="-100" on="1"/>
        <pt x="503" y="-111" on="0"/>
        <pt x="500" y="-124" on="1"/>
        <pt x="481" y="-211" on="0"/>
        <pt x="392" y="-211" on="1"/>
        <pt x="349" y="-211" on="0"/>
        <pt x="322" y="-206" on="1"/>
        <pt x="312" y="-204" on="1"/>
        <pt x="325" y="-153" on="1"/>
        <pt x="362" y="-156" on="0"/>
        <pt x="387" y="-156" on="1"/>
        <pt x="428" y="-156" on="0"/>
        <pt x="438" y="-120" on="1"/>
        <pt x="443" y="-101" on="0"/>
        <pt x="424" y="-87" on="0"/>
        <pt x="404" y="-87" on="1"/>
        <pt x="365" y="-87" on="1"/>
        <pt x="386" y="5" on="1"/>
        <pt x="426" y="5" on="1"/>
        <pt x="413" y="-45" on="1"/>
      </contour>
    </TTGlyph>
    <TTGlyph name="cent" xMin="155" yMin="-80" xMax="539" yMax="582">
      <contour>
        <pt x="237" y="37" on="0"/>
        <pt x="177" y="74" on="0"/>
        <pt x="156" y="133" on="0"/>
        <pt x="156" y="169" on="0"/>
        <pt x="157" y="207" on="0"/>
        <pt x="167" y="248" on="1"/>
        <pt x="194" y="352" on="0"/>
        <pt x="306" y="460" on="0"/>
        <pt x="385" y="463" on="1"/>
        <pt x="413" y="582" on="1"/>
        <pt x="476" y="582" on="1"/>
        <pt x="447" y="462" on="1"/>
        <pt x="539" y="452" on="1"/>
        <pt x="519" y="386" on="1"/>
        <pt x="438" y="393" on="0"/>
        <pt x="402" y="393" on="1"/>
        <pt x="277" y="393" on="0"/>
        <pt x="241" y="248" on="1"/>
        <pt x="231" y="204" on="0"/>
        <pt x="231" y="144" on="0"/>
        <pt x="282" y="107" on="0"/>
        <pt x="335" y="107" on="1"/>
        <pt x="459" y="113" on="1"/>
        <pt x="445" y="48" on="1"/>
        <pt x="388" y="41" on="0"/>
        <pt x="348" y="40" on="1"/>
        <pt x="320" y="-80" on="1"/>
        <pt x="257" y="-80" on="1"/>
        <pt x="284" y="36" on="1"/>
      </contour>
    </TTGlyph>
    <TTGlyph name="circumflex" xMin="384" yMin="587" xMax="666" yMax="738">
      <contour>
        <pt x="384" y="587" on="1"/>
        <pt x="539" y="738" on="1"/>
        <pt x="579" y="738" on="1"/>
        <pt x="666" y="587" on="1"/>
        <pt x="597" y="587" on="1"/>
        <pt x="549" y="673" on="1"/>
        <pt x="460" y="587" on="1"/>
      </contour>
    </TTGlyph>
    <TTGlyph name="circumflex.cap.001" xMin="244" yMin="793" xMax="545" yMax="931">
      <contour>
        <pt x="244" y="793" on="1"/>
        <pt x="408" y="931" on="1"/>
        <pt x="449" y="931" on="1"/>
        <pt x="545" y="793" on="1"/>
        <pt x="476" y="793" on="1"/>
        <pt x="422" y="874" on="1"/>
        <pt x="326" y="793" on="1"/>
      </contour>
    </TTGlyph>
    <TTGlyph name="colon" xMin="47" yMin="0" xMax="225" yMax="441">
      <contour>
        <pt x="123" y="330" on="1"/>
        <pt x="149" y="441" on="1"/>
        <pt x="225" y="441" on="1"/>
        <pt x="199" y="330" on="1"/>
      </contour>
      <contour>
        <pt x="47" y="0" on="1"/>
        <pt x="73" y="111" on="1"/>
        <pt x="149" y="111" on="1"/>
        <pt x="123" y="0" on="1"/>
      </contour>
    </TTGlyph>
    <TTGlyph name="comma" xMin="-12" yMin="-129" xMax="169" yMax="111">
      <contour>
        <pt x="49" y="-129" on="1"/>
        <pt x="-12" y="-129" on="1"/>
        <pt x="86" y="111" on="1"/>
        <pt x="169" y="111" on="1"/>
      </contour>
    </TTGlyph>
    <TTGlyph name="commaaccent" xMin="-45" yMin="-283" xMax="112" yMax="-73">
      <contour>
        <pt x="-45" y="-283" on="1"/>
        <pt x="42" y="-73" on="1"/>
        <pt x="112" y="-73" on="1"/>
        <pt x="16" y="-283" on="1"/>
      </contour>
    </TTGlyph>
    <TTGlyph name="copyright" xMin="159" yMin="161" xMax="686" yMax="707">
      <contour>
        <pt x="309" y="161" on="0"/>
        <pt x="159" y="319" on="0"/>
        <pt x="159" y="550" on="0"/>
        <pt x="309" y="707" on="0"/>
        <pt x="537" y="707" on="0"/>
        <pt x="686" y="549" on="0"/>
        <pt x="686" y="318" on="0"/>
        <pt x="537" y="161" on="0"/>
      </contour>
      <contour>
        <pt x="203" y="530" on="0"/>
        <pt x="203" y="338" on="0"/>
        <pt x="328" y="205" on="0"/>
        <pt x="516" y="205" on="0"/>
        <pt x="642" y="338" on="0"/>
        <pt x="642" y="530" on="0"/>
        <pt x="516" y="664" on="0"/>
        <pt x="329" y="664" on="0"/>
      </contour>
      <contour>
        <pt x="427" y="591" on="1"/>
        <pt x="465" y="591" on="0"/>
        <pt x="503" y="581" on="1"/>
        <pt x="500" y="528" on="1"/>
        <pt x="461" y="534" on="0"/>
        <pt x="392" y="534" on="0"/>
        <pt x="369" y="489" on="0"/>
        <pt x="369" y="382" on="0"/>
        <pt x="395" y="333" on="0"/>
        <pt x="429" y="333" on="1"/>
        <pt x="500" y="340" on="1"/>
        <pt x="503" y="288" on="1"/>
        <pt x="466" y="276" on="0"/>
        <pt x="425" y="276" on="1"/>
        <pt x="361" y="276" on="0"/>
        <pt x="309" y="351" on="0"/>
        <pt x="309" y="516" on="0"/>
        <pt x="361" y="591" on="0"/>
      </contour>
    </TTGlyph>
    <TTGlyph name="currency" xMin="116" yMin="30" xMax="560" yMax="474">
      <contour>
        <pt x="392" y="71" on="0"/>
        <pt x="284" y="71" on="0"/>
        <pt x="238" y="101" on="1"/>
        <pt x="168" y="30" on="1"/>
        <pt x="116" y="83" on="1"/>
        <pt x="186" y="153" on="1"/>
        <pt x="157" y="198" on="0"/>
        <pt x="157" y="306" on="0"/>
        <pt x="186" y="351" on="1"/>
        <pt x="116" y="421" on="1"/>
        <pt x="168" y="474" on="1"/>
        <pt x="238" y="403" on="1"/>
        <pt x="284" y="432" on="0"/>
        <pt x="392" y="432" on="0"/>
        <pt x="437" y="403" on="1"/>
        <pt x="507" y="474" on="1"/>
        <pt x="560" y="421" on="1"/>
        <pt x="489" y="350" on="1"/>
        <pt x="518" y="305" on="0"/>
        <pt x="518" y="198" on="0"/>
        <pt x="489" y="153" on="1"/>
        <pt x="560" y="83" on="1"/>
        <pt x="507" y="30" on="1"/>
        <pt x="437" y="101" on="1"/>
      </contour>
      <contour>
        <pt x="292" y="142" on="0"/>
        <pt x="384" y="142" on="0"/>
        <pt x="448" y="206" on="0"/>
        <pt x="448" y="298" on="0"/>
        <pt x="384" y="362" on="0"/>
        <pt x="292" y="362" on="0"/>
        <pt x="228" y="298" on="0"/>
        <pt x="228" y="206" on="0"/>
      </contour>
    </TTGlyph>
    <TTGlyph name="d" xMin="89" yMin="-10" xMax="600" yMax="718">
      <contour>
        <pt x="215" y="-10" on="1"/>
        <pt x="89" y="-10" on="0"/>
        <pt x="89" y="136" on="1"/>
        <pt x="89" y="224" on="0"/>
        <pt x="145" y="392" on="0"/>
        <pt x="263" y="510" on="0"/>
        <pt x="339" y="510" on="1"/>
        <pt x="390" y="510" on="0"/>
        <pt x="452" y="496" on="1"/>
        <pt x="472" y="492" on="1"/>
        <pt x="525" y="718" on="1"/>
        <pt x="600" y="718" on="1"/>
        <pt x="433" y="0" on="1"/>
        <pt x="361" y="0" on="1"/>
        <pt x="380" y="89" on="1"/>
        <pt x="371" y="76" on="0"/>
        <pt x="330" y="37" on="0"/>
        <pt x="312" y="24" on="1"/>
        <pt x="263" y="-10" on="0"/>
      </contour>
      <contour>
        <pt x="459" y="430" on="1"/>
        <pt x="393" y="445" on="0"/>
        <pt x="286" y="445" on="0"/>
        <pt x="204" y="341" on="0"/>
        <pt x="166" y="203" on="0"/>
        <pt x="166" y="137" on="1"/>
        <pt x="166" y="55" on="0"/>
        <pt x="238" y="55" on="1"/>
        <pt x="268" y="55" on="0"/>
        <pt x="348" y="114" on="0"/>
        <pt x="374" y="144" on="1"/>
        <pt x="399" y="173" on="1"/>
      </contour>
    </TTGlyph>
    <TTGlyph name="dagger" xMin="126" yMin="-75" xMax="530" yMax="686">
      <contour>
        <pt x="126" y="421" on="1"/>
        <pt x="143" y="498" on="1"/>
        <pt x="301" y="496" on="1"/>
        <pt x="346" y="686" on="1"/>
        <pt x="416" y="686" on="1"/>
        <pt x="372" y="498" on="1"/>
        <pt x="530" y="498" on="1"/>
        <pt x="513" y="421" on="1"/>
        <pt x="354" y="422" on="1"/>
        <pt x="236" y="-75" on="1"/>
        <pt x="167" y="-75" on="1"/>
        <pt x="283" y="421" on="1"/>
      </contour>
    </TTGlyph>
    <TTGlyph name="daggerdbl" xMin="72" yMin="-75" xMax="550" yMax="686">
      <contour>
        <pt x="187" y="-75" on="1"/>
        <pt x="231" y="113" on="1"/>
        <pt x="72" y="113" on="1"/>
        <pt x="89" y="189" on="1"/>
        <pt x="248" y="188" on="1"/>
        <pt x="303" y="421" on="1"/>
        <pt x="146" y="421" on="1"/>
        <pt x="163" y="498" on="1"/>
        <pt x="321" y="496" on="1"/>
        <pt x="366" y="686" on="1"/>
        <pt x="436" y="686" on="1"/>
        <pt x="392" y="498" on="1"/>
        <pt x="550" y="498" on="1"/>
        <pt x="532" y="421" on="1"/>
        <pt x="374" y="422" on="1"/>
        <pt x="319" y="189" on="1"/>
        <pt x="477" y="189" on="1"/>
        <pt x="459" y="113" on="1"/>
        <pt x="301" y="114" on="1"/>
        <pt x="256" y="-75" on="1"/>
      </contour>
    </TTGlyph>
    <TTGlyph name="dcaron" xMin="89" yMin="-10" xMax="721" yMax="718">
      <contour>
        <pt x="721" y="692" on="1"/>
        <pt x="667" y="460" on="1"/>
        <pt x="598" y="460" on="1"/>
        <pt x="653" y="692" on="1"/>
      </contour>
      <contour>
        <pt x="215" y="-10" on="1"/>
        <pt x="89" y="-10" on="0"/>
        <pt x="89" y="136" on="1"/>
        <pt x="89" y="224" on="0"/>
        <pt x="145" y="392" on="0"/>
        <pt x="263" y="510" on="0"/>
        <pt x="339" y="510" on="1"/>
        <pt x="390" y="510" on="0"/>
        <pt x="452" y="496" on="1"/>
        <pt x="472" y="492" on="1"/>
        <pt x="525" y="718" on="1"/>
        <pt x="600" y="718" on="1"/>
        <pt x="433" y="0" on="1"/>
        <pt x="361" y="0" on="1"/>
        <pt x="380" y="89" on="1"/>
        <pt x="371" y="76" on="0"/>
        <pt x="330" y="37" on="0"/>
        <pt x="312" y="24" on="1"/>
        <pt x="263" y="-10" on="0"/>
      </contour>
      <contour>
        <pt x="459" y="430" on="1"/>
        <pt x="393" y="445" on="0"/>
        <pt x="286" y="445" on="0"/>
        <pt x="204" y="341" on="0"/>
        <pt x="166" y="203" on="0"/>
        <pt x="166" y="137" on="1"/>
        <pt x="166" y="55" on="0"/>
        <pt x="238" y="55" on="1"/>
        <pt x="268" y="55" on="0"/>
        <pt x="348" y="114" on="0"/>
        <pt x="374" y="144" on="1"/>
        <pt x="399" y="173" on="1"/>
      </contour>
    </TTGlyph>
    <TTGlyph name="dcroat" xMin="89" yMin="-10" xMax="641" yMax="718">
      <contour>
        <pt x="215" y="-10" on="1"/>
        <pt x="89" y="-10" on="0"/>
        <pt x="89" y="136" on="1"/>
        <pt x="89" y="224" on="0"/>
        <pt x="145" y="392" on="0"/>
        <pt x="263" y="510" on="0"/>
        <pt x="339" y="510" on="1"/>
        <pt x="390" y="510" on="0"/>
        <pt x="452" y="496" on="1"/>
        <pt x="472" y="492" on="1"/>
        <pt x="494" y="589" on="1"/>
        <pt x="350" y="589" on="1"/>
        <pt x="366" y="658" on="1"/>
        <pt x="511" y="658" on="1"/>
        <pt x="525" y="718" on="1"/>
        <pt x="600" y="718" on="1"/>
        <pt x="586" y="658" on="1"/>
        <pt x="641" y="658" on="1"/>
        <pt x="625" y="589" on="1"/>
        <pt x="570" y="589" on="1"/>
        <pt x="433" y="0" on="1"/>
        <pt x="361" y="0" on="1"/>
        <pt x="380" y="89" on="1"/>
        <pt x="371" y="76" on="0"/>
        <pt x="330" y="37" on="0"/>
        <pt x="312" y="24" on="1"/>
        <pt x="263" y="-10" on="0"/>
      </contour>
      <contour>
        <pt x="459" y="430" on="1"/>
        <pt x="393" y="445" on="0"/>
        <pt x="286" y="445" on="0"/>
        <pt x="204" y="341" on="0"/>
        <pt x="166" y="203" on="0"/>
        <pt x="166" y="137" on="1"/>
        <pt x="166" y="55" on="0"/>
        <pt x="238" y="55" on="1"/>
        <pt x="268" y="55" on="0"/>
        <pt x="348" y="114" on="0"/>
        <pt x="374" y="144" on="1"/>
        <pt x="399" y="173" on="1"/>
      </contour>
    </TTGlyph>
    <TTGlyph name="degree" xMin="267" yMin="420" xMax="550" yMax="702">
      <contour>
        <pt x="345" y="420" on="0"/>
        <pt x="267" y="497" on="0"/>
        <pt x="267" y="624" on="0"/>
        <pt x="345" y="702" on="0"/>
        <pt x="472" y="702" on="0"/>
        <pt x="550" y="624" on="0"/>
        <pt x="550" y="497" on="0"/>
        <pt x="472" y="420" on="0"/>
      </contour>
      <contour>
        <pt x="317" y="603" on="0"/>
        <pt x="317" y="519" on="0"/>
        <pt x="367" y="468" on="0"/>
        <pt x="450" y="468" on="0"/>
        <pt x="502" y="519" on="0"/>
        <pt x="502" y="602" on="0"/>
        <pt x="450" y="654" on="0"/>
        <pt x="367" y="654" on="0"/>
      </contour>
    </TTGlyph>
</ttFont>
